<svg viewBox="325 187.5 349.9999999999998 625" fill="none" xmlns="http://www.w3.org/2000/svg" xmlns:xlink="http://www.w3.org/1999/xlink" overflow="visible" width="349.9999999999998px" height="625px"><g id="Master/Stickers/Soda"><g id="Soda"><g id="Path-6"><path id="Vector" d="M667.862 190L675.21 219.048L547.498 251.352L515.107 350.112L486.637 340.771L524.161 226.348L667.862 190Z" fill="black"/></g><g id="Rectangle"><path id="Vector_2" fill-rule="evenodd" clip-rule="evenodd" d="M660.557 326.987H337.711L380.902 808.582H617.366L660.557 326.987Z" fill="white"/><path id="Vector_3" d="M618.554 809.884H379.711L379.607 808.694L336.285 325.685H661.98L618.554 809.884ZM382.095 807.279H616.161L659.123 328.29H339.134L382.095 807.279Z" fill="black"/></g><g id="Rectangle_2"><path id="Vector_4" d="M671.537 299.194H326.301V351.74H671.537V299.194Z" fill="white"/><path id="Vector_5" d="M672.842 353.043H325V297.892H672.842V353.043ZM327.606 350.437H670.237V300.497H327.606V350.437Z" fill="black"/></g></g></g></svg>