<svg viewBox="166.3375000000001 194.62650602409644 1568.3250000000003 1400.3614457831325" fill="none" xmlns="http://www.w3.org/2000/svg" xmlns:xlink="http://www.w3.org/1999/xlink" overflow="visible" width="1568.3250000000003px" height="1400.3614457831325px"><g id="Master/Compositions/Stats and Graphs"><g id="Background Elements Office" transform="translate(173 152) scale(1 1)"><g id="Background Elements Office/Graphs and Stats"><g id="Stock "><path id="Fill 45" fill-rule="evenodd" clip-rule="evenodd" d="M2.96897 907.842C-1.41131 902.803 -0.883195 895.155 4.14601 890.762L687.325 294.676C691.874 290.712 698.643 290.708 703.189 294.672L978.318 534.526L1277.16 260.754C1279.69 258.426 1283.09 257.292 1286.51 257.641C1289.93 257.983 1293.05 259.772 1295.07 262.549L1333.07 314.71L1531.61 97.8032C1535.08 92.0891 1542.52 90.294 1548.21 93.7736C1553.9 97.2567 1555.71 104.707 1552.23 110.414L1344.28 342.782C1342.18 346.231 1338.5 348.403 1334.47 348.569C1330.5 348.738 1326.6 346.877 1324.22 343.612L1283.51 287.74L986.668 559.683C982.139 563.834 975.215 563.913 970.589 559.88L695.264 319.856C695.264 319.856 313.32 653.11 122.349 819.736C88.2369 849.499 20.0137 909.025 20.0137 909.025C17.7287 911.021 14.8982 912 12.0851 912C8.71269 912 5.36103 910.592 2.96897 907.842Z" fill="black"/></g><g id="Pie Chart"><path id="Fill 46" fill-rule="evenodd" clip-rule="evenodd" d="M331.512 86.783C347.661 105.002 357.467 128.972 357.467 155.233C357.467 212.247 311.248 258.467 254.234 258.467C197.22 258.467 151 212.247 151 155.233C151 98.219 197.22 52 254.234 52V155.233L331.512 86.783Z" fill="black"/><path id="Fill 47" fill-rule="evenodd" clip-rule="evenodd" d="M642.819 89.0291H396.91C395.805 89.0291 394.91 88.1331 394.91 87.0291C394.91 85.9251 395.805 85.0291 396.91 85.0291H642.819C643.923 85.0291 644.819 85.9251 644.819 87.0291C644.819 88.1331 643.923 89.0291 642.819 89.0291" fill="black"/><path id="Fill 48" fill-rule="evenodd" clip-rule="evenodd" d="M642.819 134.499H396.91C395.805 134.499 394.91 133.603 394.91 132.499C394.91 131.395 395.805 130.499 396.91 130.499H642.819C643.923 130.499 644.819 131.395 644.819 132.499C644.819 133.603 643.923 134.499 642.819 134.499" fill="black"/><path id="Fill 49" fill-rule="evenodd" clip-rule="evenodd" d="M642.819 179.967H396.91C395.805 179.967 394.91 179.071 394.91 177.967C394.91 176.863 395.805 175.967 396.91 175.967H642.819C643.923 175.967 644.819 176.863 644.819 177.967C644.819 179.071 643.923 179.967 642.819 179.967" fill="black"/><path id="Fill 50" fill-rule="evenodd" clip-rule="evenodd" d="M642.819 225.437H396.91C395.805 225.437 394.91 224.541 394.91 223.437C394.91 222.333 395.805 221.437 396.91 221.437H642.819C643.923 221.437 644.819 222.333 644.819 223.437C644.819 224.541 643.923 225.437 642.819 225.437" fill="black"/></g><g id="Graph"><g id="Graph Bars"><path id="Rectangle (Stroke)" fill-rule="evenodd" clip-rule="evenodd" d="M1083.57 1104H1004.57V1420H1083.57V1104ZM998.57 1098V1426H1089.57V1098H998.57Z" fill="black"/><path id="Rectangle Copy (Stroke)" fill-rule="evenodd" clip-rule="evenodd" d="M1217.57 1192H1138.57V1420H1217.57V1192ZM1132.57 1186V1426H1223.57V1186H1132.57Z" fill="black"/><path id="Rectangle Copy 2 (Stroke)" fill-rule="evenodd" clip-rule="evenodd" d="M1351.57 851H1272.57V1420H1351.57V851ZM1266.57 845V1426H1357.57V845H1266.57Z" fill="black"/><path id="Rectangle Copy 3 (Stroke)" fill-rule="evenodd" clip-rule="evenodd" d="M1485.57 660H1406.57V1420H1485.57V660ZM1400.57 654V1426H1491.57V654H1400.57Z" fill="black"/><path id="Rectangle Copy 7" fill-rule="evenodd" clip-rule="evenodd" d="M1089.57 1426V1098H998.57V1426H1089.57ZM1004.57 1104H1083.57V1420H1004.57V1104Z" fill="black"/><path id="Rectangle Copy 6" fill-rule="evenodd" clip-rule="evenodd" d="M1223.57 1426V1186H1132.57V1426H1223.57ZM1138.57 1192H1217.57V1420H1138.57V1192Z" fill="black"/><path id="Rectangle Copy 5" fill-rule="evenodd" clip-rule="evenodd" d="M1357.57 1426V845H1266.57V1426H1357.57ZM1272.57 851H1351.57V1420H1272.57V851Z" fill="black"/><path id="Rectangle Copy 4" fill-rule="evenodd" clip-rule="evenodd" d="M1491.57 1426V654H1400.57V1426H1491.57ZM1406.57 660H1485.57V1420H1406.57V660Z" fill="black"/></g><path id="Graph Horizon (Stroke)" fill-rule="evenodd" clip-rule="evenodd" d="M958 1425.5H1524.08V1431.5H958V1425.5Z" fill="black"/><path id="Graph Horizon Copy" d="M1524.08 1423V1429H958V1423H1524.08Z" fill="black"/></g></g></g><g id="Character"><g id="Lower Body Sitting"><g id="chair"><g id="Group 19"><path id="Fill 17" fill-rule="evenodd" clip-rule="evenodd" d="M564.602 1156.68C533.882 1156.68 506.967 1153.85 483.093 1148.16C448.711 1139.97 421.523 1126.08 399.976 1105.69C370.375 1077.69 352.976 1039.12 345.218 984.32C338.652 937.934 339.715 884.875 340.842 828.7C341.197 811.064 341.562 792.827 341.695 774.5L383.693 774.803C383.559 793.4 383.191 811.774 382.834 829.543C380.699 935.976 378.855 1027.9 428.84 1075.18C462.591 1107.11 520.709 1119.48 606.518 1112.99L609.686 1154.87C593.797 1156.07 578.793 1156.68 564.602 1156.68" fill="black"/></g><path id="Fill 20" fill-rule="evenodd" clip-rule="evenodd" d="M556.891 1026.95H393.447C373.115 1026.95 356.633 1010.47 356.633 990.135V725.813C356.633 705.481 373.115 688.999 393.447 688.999H556.891C577.223 688.999 593.705 705.481 593.705 725.813V990.135C593.705 1010.47 577.223 1026.95 556.891 1026.95" fill="white"/><g id="Group 24"><path id="Fill 22" fill-rule="evenodd" clip-rule="evenodd" d="M393.447 691C374.251 691 358.633 706.618 358.633 725.814V990.135C358.633 1009.33 374.251 1024.95 393.447 1024.95H556.891C576.088 1024.95 591.706 1009.33 591.706 990.135V725.814C591.706 706.618 576.088 691 556.891 691H393.447ZM556.891 1028.95H393.447C372.045 1028.95 354.633 1011.54 354.633 990.135V725.814C354.633 704.412 372.045 687 393.447 687H556.891C578.294 687 595.706 704.412 595.706 725.814V990.135C595.706 1011.54 578.294 1028.95 556.891 1028.95V1028.95Z" fill="black"/></g><path id="Fill 25" fill-rule="evenodd" clip-rule="evenodd" d="M636.613 1523.87H680.6V1161.61H636.613V1523.87Z" fill="black"/><path id="Fill 27" fill-rule="evenodd" clip-rule="evenodd" d="M548.287 1535.01C548.287 1516.71 563.125 1501.87 581.428 1501.87H735.783C754.086 1501.87 768.923 1516.71 768.923 1535.01H548.287Z" fill="black"/><path id="Fill 28" fill-rule="evenodd" clip-rule="evenodd" d="M752.164 1190.17H565.363C497.553 1191.2 497.495 1076.66 565.365 1077.69C565.363 1077.69 752.164 1077.69 752.164 1077.69C780.234 1077.69 802.99 1100.45 802.99 1128.52C806.905 1159.98 785.263 1190.47 752.164 1190.17" fill="white"/><path id="Fill 29" fill-rule="evenodd" clip-rule="evenodd" d="M564.516 1079.69C547.272 1079.69 533.137 1087.68 524.616 1102.27C513.731 1120.9 513.733 1146.94 524.622 1165.58C533.287 1180.42 547.727 1188.46 565.333 1188.17H752.183C752.332 1188.18 752.482 1188.18 752.63 1188.18C766.308 1188.18 778.817 1182.58 787.897 1172.39C798.083 1160.96 802.984 1144.65 801.007 1128.76L800.992 1128.52C800.992 1101.59 779.088 1079.69 752.165 1079.69C750.302 1079.69 565.857 1079.69 565.37 1079.69C565.084 1079.69 564.799 1079.69 564.516 1079.69M564.449 1192.18C545.796 1192.18 530.443 1183.48 521.168 1167.6C509.585 1147.77 509.582 1120.07 521.162 1100.25C530.582 1084.12 546.299 1075.41 565.397 1075.69L565.396 1075.74C565.957 1075.69 566.643 1075.69 567.464 1075.69H752.165C781.253 1075.69 804.925 1099.32 804.992 1128.39C807.101 1145.62 801.962 1162.62 790.883 1175.05C781.033 1186.11 767.464 1192.18 752.632 1192.18C752.472 1192.18 752.313 1192.18 752.153 1192.17H565.364C565.059 1192.18 564.752 1192.18 564.449 1192.18" fill="black"/><path id="Fill 43" fill-rule="evenodd" clip-rule="evenodd" d="M548.287 1545.48H558.753V1535.01H548.287V1545.48Z" fill="black"/><path id="Fill 44" fill-rule="evenodd" clip-rule="evenodd" d="M653.373 1545.48H663.839V1535.01H653.373V1545.48Z" fill="black"/><path id="Fill 45" fill-rule="evenodd" clip-rule="evenodd" d="M758.459 1545.48H768.924V1535.01H758.459V1545.48Z" fill="black"/><path id="Fill 46" fill-rule="evenodd" clip-rule="evenodd" d="M565.207 1555.52C565.107 1577.65 531.464 1577.64 531.367 1555.52C531.467 1533.39 565.11 1533.39 565.207 1555.52" fill="white"/><path id="Fill 47" fill-rule="evenodd" clip-rule="evenodd" d="M548.287 1540.92C541.133 1540.92 533.412 1545.49 533.367 1555.53C533.411 1565.54 541.132 1570.11 548.286 1570.11C555.438 1570.11 563.156 1565.55 563.206 1555.52C563.158 1545.49 555.44 1540.92 548.289 1540.92H548.287ZM548.287 1574.11H548.286C538.925 1574.11 529.421 1567.73 529.367 1555.53C529.422 1543.31 538.927 1536.92 548.287 1536.92H548.289C557.649 1536.92 567.153 1543.31 567.206 1555.51V1555.53C567.151 1567.73 557.647 1574.11 548.287 1574.11V1574.11Z" fill="black"/><path id="Fill 48" fill-rule="evenodd" clip-rule="evenodd" d="M675.684 1555.52C675.584 1577.65 641.941 1577.64 641.844 1555.52C641.944 1533.39 675.587 1533.39 675.684 1555.52" fill="white"/><path id="Fill 49" fill-rule="evenodd" clip-rule="evenodd" d="M658.765 1540.92C651.611 1540.92 643.889 1545.49 643.844 1555.53C643.888 1565.54 651.608 1570.11 658.763 1570.11C665.915 1570.11 673.634 1565.55 673.684 1555.52C673.635 1545.49 665.917 1540.92 658.765 1540.92M658.764 1574.11H658.762C649.402 1574.11 639.898 1567.73 639.844 1555.53C639.899 1543.31 649.404 1536.92 658.764 1536.92H658.766C668.126 1536.92 677.63 1543.31 677.684 1555.51V1555.53C677.629 1567.73 668.124 1574.11 658.764 1574.11" fill="black"/><path id="Fill 50" fill-rule="evenodd" clip-rule="evenodd" d="M785.843 1555.52C785.743 1577.65 752.1 1577.64 752.004 1555.52C752.103 1533.39 785.747 1533.39 785.843 1555.52" fill="white"/><path id="Fill 51" fill-rule="evenodd" clip-rule="evenodd" d="M768.925 1540.92C761.771 1540.92 754.049 1545.49 754.004 1555.53C754.048 1565.54 761.768 1570.11 768.923 1570.11C776.075 1570.11 783.794 1565.55 783.844 1555.52C783.795 1545.49 776.077 1540.92 768.925 1540.92M768.924 1574.11H768.922C759.562 1574.11 750.058 1567.73 750.004 1555.53C750.059 1543.31 759.564 1536.92 768.924 1536.92H768.926C778.286 1536.92 787.79 1543.31 787.844 1555.51V1555.53C787.789 1567.73 778.284 1574.11 768.924 1574.11" fill="black"/></g><g id="blue"><g id="shoe"><path id="Fill 1" fill-rule="evenodd" clip-rule="evenodd" d="M1004.44 1570.49C1004.14 1569.36 1004.85 1561.76 1003.64 1561.08C1003.26 1560.71 1002.75 1560.51 1002.23 1560.53L976.932 1561.19C973.493 1561.05 975.45 1569.35 974.921 1571.11L946.379 1571.72C945.022 1503.05 944.355 1433.7 943.873 1365.03L1031.61 1364.46C1031.97 1416.67 1032.47 1470.58 1033.27 1522.63C1033.26 1523.77 1034.34 1524.71 1035.47 1524.59C1056.36 1523.36 1086.36 1539.05 1085.71 1568.77L1004.44 1570.49Z" fill="white"/><path id="Fill 3" fill-rule="evenodd" clip-rule="evenodd" d="M1033.59 1362.54C1033.95 1415.29 1034.46 1470.03 1035.27 1522.6C1059.11 1521.59 1088.81 1538.44 1087.78 1570.62C1067.37 1571.08 1022.5 1572.09 1002.48 1572.54L1002.26 1562.53L976.984 1563.2L976.908 1573.11L944.424 1573.84C943.08 1505.04 942.309 1431.86 941.859 1363.14L1033.59 1362.54ZM1029.62 1366.37L945.885 1366.93C946.36 1434.32 947.024 1502.26 948.336 1569.64L972.935 1569.14C973.12 1565.93 971.852 1559.19 976.877 1559.18L1002.16 1558.52C1007.29 1558.29 1006.22 1565.21 1006.39 1568.45C1024.16 1568.08 1065.43 1567.23 1083.58 1566.86C1083.38 1539.44 1054.37 1525.4 1035.5 1526.59C1033.3 1526.75 1031.26 1524.87 1031.27 1522.66C1030.48 1471.18 1029.98 1417.98 1029.62 1366.37V1366.37Z" fill="black"/><path id="Fill 5" fill-rule="evenodd" clip-rule="evenodd" d="M946.137 1563.51L946.061 1559.51L1083.45 1556.89L1083.53 1560.89L946.137 1563.51Z" fill="black"/><path id="Fill 9" fill-rule="evenodd" clip-rule="evenodd" d="M1035.33 1561.81L1035.25 1557.81C1049.88 1557.53 1061.59 1545.46 1061.36 1530.91L1065.36 1530.84C1065.63 1547.59 1052.16 1561.48 1035.33 1561.81" fill="black"/><path id="Fill 11" fill-rule="evenodd" clip-rule="evenodd" d="M1031.52 1489.25C1031.52 1489.25 1015.34 1488.39 1015.7 1503.02C1015.85 1509.09 1010.29 1508.27 998.6 1508.44L946.336 1509.18" fill="white"/><path id="Fill 13" fill-rule="evenodd" clip-rule="evenodd" d="M946.333 1511.18C945.242 1511.18 944.35 1510.31 944.334 1509.21C944.318 1508.11 945.201 1507.2 946.306 1507.18L998.57 1506.44C999.998 1506.42 1001.34 1506.41 1002.58 1506.41C1007.84 1506.39 1011.99 1506.37 1013.18 1505.14C1013.32 1505 1013.74 1504.57 1013.7 1503.07C1013.59 1498.43 1014.96 1494.68 1017.79 1491.94C1023.02 1486.86 1031.28 1487.23 1031.63 1487.25C1032.73 1487.31 1033.57 1488.25 1033.52 1489.36C1033.46 1490.46 1032.51 1491.29 1031.42 1491.25C1031.29 1491.24 1024.5 1490.98 1020.56 1494.82C1018.58 1496.76 1017.62 1499.5 1017.7 1502.97C1017.75 1505.11 1017.21 1506.73 1016.05 1507.93C1013.69 1510.36 1009.51 1510.38 1002.6 1510.41C1001.36 1510.41 1000.04 1510.42 998.627 1510.44L946.362 1511.18H946.333Z" fill="black"/></g><path id="leg" fill-rule="evenodd" clip-rule="evenodd" d="M1061.81 1480.02L924.445 1481.72C923.293 1388.13 922.915 1289.33 922.758 1196.09C926.375 1109.42 824.169 1093.15 755.864 1091.36C676.501 1083.8 669.248 953.846 759.026 954.019C887.568 954.869 1032.2 1008.39 1056.04 1150.52C1058.84 1166.03 1060.12 1182.42 1060.2 1198.16C1060.22 1290.06 1060.7 1387.85 1061.81 1480.02" fill="#10c446"/></g><g id="black"><g id="shoe_2"><path id="Fill 7" fill-rule="evenodd" clip-rule="evenodd" d="M972.667 1561C972.394 1546.44 960.491 1534.75 946.048 1534.75C945.909 1534.75 945.772 1534.75 945.635 1534.75L945.572 1530.75C945.73 1530.75 945.891 1530.75 946.048 1530.75C962.663 1530.75 976.352 1544.19 976.667 1560.93L972.667 1561Z" fill="black"/><path id="Fill 34" fill-rule="evenodd" clip-rule="evenodd" d="M899.966 1573.57C899.668 1572.47 900.383 1565.17 899.181 1564.52C898.799 1564.17 898.289 1563.98 897.762 1563.99L872.469 1564.65C869.051 1564.48 870.971 1572.45 870.451 1574.19L841.909 1574.8C840.686 1509.77 839.857 1438.94 839.445 1374.15L927.177 1373.55C929.645 1424.53 923.996 1481.12 931.023 1529.4C951.154 1528.15 981.904 1542.8 981.243 1571.85L899.966 1573.57Z" fill="white"/><path id="Fill 35" fill-rule="evenodd" clip-rule="evenodd" d="M929.164 1371.62C929.516 1423.59 930.031 1475.56 930.825 1527.48C953.656 1526.48 984.306 1541.89 983.311 1573.62C962.901 1574.08 918.029 1575.09 898.012 1575.54L897.801 1565.91L872.522 1566.58L872.438 1576.11L839.954 1576.84C838.638 1509.92 837.883 1439.05 837.432 1372.24L929.164 1371.62ZM925.19 1375.49L841.458 1376.07C841.923 1441.72 842.594 1507.05 843.87 1572.8L868.469 1572.29C868.64 1569.12 867.435 1562.71 872.418 1562.72L897.697 1562.06C902.748 1561.78 901.792 1568.41 901.924 1571.6C919.692 1571.24 960.968 1570.39 979.114 1570.01C978.926 1543.24 949.198 1530.1 931.058 1531.32C928.906 1531.48 926.82 1529.72 926.825 1527.55C926.051 1476.89 925.54 1426.19 925.19 1375.49V1375.49Z" fill="black"/><path id="Fill 36" fill-rule="evenodd" clip-rule="evenodd" d="M841.676 1566.98L841.6 1562.98L978.987 1560.35L979.064 1564.35L841.676 1566.98Z" fill="black"/><path id="Fill 37" fill-rule="evenodd" clip-rule="evenodd" d="M868.203 1564.47C867.938 1550.51 856.053 1539.32 841.617 1539.32C841.473 1539.32 841.33 1539.32 841.185 1539.32L841.123 1535.32C841.288 1535.32 841.454 1535.32 841.617 1535.32C858.224 1535.32 871.896 1548.26 872.203 1564.39L868.203 1564.47Z" fill="black"/><path id="Fill 38" fill-rule="evenodd" clip-rule="evenodd" d="M930.865 1565.27L930.787 1561.27C945.421 1560.99 957.14 1549.41 956.913 1535.46L960.913 1535.39C961.176 1551.54 947.697 1564.94 930.865 1565.27" fill="black"/><path id="Fill 39" fill-rule="evenodd" clip-rule="evenodd" d="M927.089 1495.42C927.089 1495.42 910.913 1494.6 911.269 1508.67C911.415 1514.51 905.858 1513.73 894.163 1513.89L841.9 1514.65" fill="white"/><path id="Fill 40" fill-rule="evenodd" clip-rule="evenodd" d="M841.898 1516.64C840.807 1516.64 839.915 1515.77 839.899 1514.67C839.883 1513.57 840.766 1512.66 841.871 1512.64L894.135 1511.89C895.561 1511.87 896.897 1511.87 898.142 1511.86C903.44 1511.84 907.624 1511.82 908.794 1510.61C908.92 1510.48 909.303 1510.09 909.269 1508.72C909.158 1504.33 910.478 1500.76 913.192 1498.11C918.401 1493.03 926.837 1493.4 927.19 1493.42C928.293 1493.47 929.142 1494.41 929.086 1495.52C929.032 1496.62 928.051 1497.46 926.991 1497.41C926.835 1497.41 919.89 1497.15 915.971 1500.99C914.07 1502.85 913.185 1505.35 913.267 1508.62C913.319 1510.67 912.794 1512.23 911.665 1513.39C909.324 1515.81 905.123 1515.83 898.162 1515.86C896.928 1515.87 895.605 1515.87 894.192 1515.89L841.927 1516.64H841.898Z" fill="black"/></g><g id="leg"><path id="Fill 41" fill-rule="evenodd" clip-rule="evenodd" d="M820.266 1488.24C817.968 1388.45 820.654 1282.25 817.379 1182.42C807.906 1107.78 714.656 1096.11 652.059 1093.31C571.76 1085.67 564.785 956.634 655.441 956.91C759.407 958.622 881.634 992.088 931.658 1092.72C949.436 1127.57 956.29 1166.25 955.979 1204.72C955.994 1296.43 956.49 1395.05 957.632 1486.51L820.266 1488.24Z" fill="black"/><path id="Fill 42" fill-rule="evenodd" clip-rule="evenodd" d="M536.979 982.075C537.437 834.015 802.56 834.03 802.992 982.083C802.535 1130.13 537.411 1130.12 536.979 982.075" fill="black"/></g></g><path id="Rectangle" d="M537.619 871.311H670.619V1093.31H596.619C564.034 1093.31 537.619 1066.9 537.619 1034.31V871.311Z" fill="black"/></g><g id="Upper Body" transform="translate(17 301) scale(1 1)"><g id="Upper Body/Holding Document"><g id="left"><g id="Group 2"><path id="Fill 1" fill-rule="evenodd" clip-rule="evenodd" d="M1067.19 244.801C956.308 253.648 975.118 222.591 974.214 336.867L1068.63 338.303C1069.09 306.792 1068.47 275.69 1067.19 244.801" fill="white"/><path id="Fill 3" fill-rule="evenodd" clip-rule="evenodd" d="M976.224 334.897L1066.66 336.272C1067.03 308.343 1066.57 279.081 1065.27 246.956C1042.57 248.692 1025.24 248.762 1012.49 248.813C994.42 248.886 984.464 248.926 979.977 253.532C974.998 258.641 975.264 270.705 975.794 294.74C976.03 305.465 976.322 318.711 976.224 334.897M1068.63 340.303C1068.62 340.303 1068.61 340.303 1068.6 340.302L974.18 338.866C973.081 338.85 972.202 337.949 972.21 336.851C972.345 319.819 972.04 305.962 971.795 294.828C971.223 268.89 970.962 257.052 977.112 250.74C982.77 244.933 992.698 244.893 1012.48 244.813C1025.55 244.76 1043.45 244.688 1067.03 242.807C1067.57 242.763 1068.1 242.943 1068.51 243.303C1068.92 243.664 1069.16 244.174 1069.18 244.718C1070.59 278.504 1071.06 309.126 1070.63 338.332C1070.62 338.863 1070.4 339.368 1070.02 339.738C1069.65 340.1 1069.15 340.303 1068.63 340.303" fill="black"/><path id="Fill 5" fill-rule="evenodd" clip-rule="evenodd" d="M996.664 253.417C996.088 238.756 995.36 224.094 994.523 209.433C993.333 191.028 969.95 192.484 970.957 210.806C971.988 228.607 972.825 246.392 973.417 264.14" fill="white"/><path id="Fill 7" fill-rule="evenodd" clip-rule="evenodd" d="M973.416 266.141C972.342 266.141 971.454 265.289 971.418 264.208C970.853 247.244 970.026 229.317 968.96 210.922C968.392 200.579 974.99 194.758 981.802 194.351C990.795 193.821 996.013 201.467 996.52 209.305C997.414 224.978 998.114 239.377 998.663 253.339C998.706 254.443 997.846 255.373 996.743 255.416C995.631 255.457 994.709 254.6 994.666 253.496C994.119 239.558 993.419 225.182 992.527 209.548C992.004 201.455 986.722 198.068 982.041 198.344C977.353 198.624 972.51 202.61 972.954 210.697C974.021 229.118 974.849 247.079 975.416 264.074C975.453 265.178 974.588 266.103 973.484 266.14C973.461 266.141 973.438 266.141 973.416 266.141" fill="black"/><path id="Fill 9" fill-rule="evenodd" clip-rule="evenodd" d="M996.665 253.417C996.089 238.756 995.361 224.094 994.524 209.433C994.05 201.654 998.933 195.007 1005.44 194.586C1011.94 194.165 1017.61 200.197 1018.09 208.061C1018.94 222.864 1019.67 237.679 1020.25 252.51" fill="white"/><path id="Fill 11" fill-rule="evenodd" clip-rule="evenodd" d="M996.663 255.417C995.595 255.417 994.708 254.573 994.666 253.495C994.119 239.557 993.419 225.181 992.527 209.547C991.987 200.692 997.72 193.082 1005.31 192.59C1008.58 192.379 1011.83 193.541 1014.47 195.865C1017.75 198.756 1019.8 203.157 1020.09 207.939C1020.99 223.77 1021.7 238.321 1022.25 252.432C1022.3 253.536 1021.44 254.465 1020.33 254.509C1019.23 254.542 1018.3 253.693 1018.26 252.589C1017.7 238.502 1017 223.974 1016.09 208.175C1015.87 204.454 1014.31 201.058 1011.82 198.866C1009.97 197.227 1007.8 196.437 1005.57 196.582C1000.17 196.931 996.113 202.642 996.52 209.311C997.414 224.977 998.115 239.376 998.663 253.339C998.706 254.442 997.847 255.372 996.743 255.416C996.716 255.417 996.689 255.417 996.663 255.417" fill="black"/><path id="Fill 13" fill-rule="evenodd" clip-rule="evenodd" d="M1020.25 252.511C1019.67 237.679 1018.94 222.865 1018.09 208.062C1017.61 200.211 1022.49 193.506 1029 193.084C1035.5 192.663 1041.17 198.754 1041.66 206.689C1042.51 221.634 1043.25 236.602 1043.84 251.604" fill="white"/><path id="Fill 15" fill-rule="evenodd" clip-rule="evenodd" d="M1020.25 254.511C1019.18 254.511 1018.3 253.667 1018.26 252.589C1017.7 238.502 1017 223.975 1016.09 208.176C1015.55 199.249 1021.28 191.581 1028.87 191.088C1032.12 190.879 1035.36 192.039 1037.99 194.356C1041.29 197.271 1043.36 201.722 1043.65 206.568C1044.57 222.566 1045.28 237.269 1045.84 251.526C1045.88 252.63 1045.03 253.559 1043.92 253.603C1042.81 253.642 1041.89 252.786 1041.84 251.683C1041.29 237.45 1040.57 222.77 1039.66 206.803C1039.43 203.019 1037.86 199.573 1035.34 197.356C1033.49 195.724 1031.34 194.939 1029.13 195.08C1023.73 195.43 1019.68 201.199 1020.09 207.94C1020.99 223.771 1021.7 238.322 1022.25 252.433C1022.3 253.536 1021.44 254.466 1020.33 254.51C1020.31 254.511 1020.28 254.511 1020.25 254.511" fill="black"/><path id="Fill 17" fill-rule="evenodd" clip-rule="evenodd" d="M984.485 335.062C954.696 336.602 946.727 324.227 948.767 296.084C946.983 276.52 949.005 256.444 973.318 254.314C976.892 261.242 980.497 268.209 983.999 275.204" fill="white"/><path id="Fill 19" fill-rule="evenodd" clip-rule="evenodd" d="M974.213 336.867C963.771 336.708 950.378 336.349 950.378 336.349C950.788 325.312 950.797 307.514 950.594 296.057C948.933 277.616 950.488 256.156 973.076 254.325C973.318 261.379 973.591 268.438 973.76 275.482" fill="white"/><path id="Fill 21" fill-rule="evenodd" clip-rule="evenodd" d="M974.214 338.867C974.204 338.867 974.193 338.867 974.183 338.867C963.849 338.709 950.459 338.352 950.325 338.349C949.791 338.335 949.285 338.107 948.92 337.718C948.554 337.328 948.36 336.809 948.38 336.275C948.787 325.321 948.795 307.455 948.596 296.165C947.633 285.425 947.288 270.094 955.247 260.646C959.375 255.744 965.32 252.947 972.915 252.331C973.459 252.286 973.999 252.468 974.407 252.831C974.815 253.195 975.056 253.71 975.075 254.256L975.244 259.086C975.433 264.445 975.629 269.987 975.76 275.434C975.786 276.538 974.912 277.455 973.808 277.481C972.702 277.505 971.787 276.634 971.761 275.53C971.631 270.106 971.435 264.575 971.246 259.227L971.153 256.553C965.61 257.364 961.394 259.557 958.306 263.222C951.292 271.549 951.683 285.847 952.587 295.878C952.591 295.926 952.593 295.974 952.594 296.022C952.783 306.694 952.788 323.277 952.445 334.402C956.583 334.508 966.317 334.746 974.244 334.867C975.348 334.884 976.23 335.793 976.213 336.898C976.196 337.992 975.304 338.867 974.214 338.867" fill="black"/><path id="Fill 23" fill-rule="evenodd" clip-rule="evenodd" d="M973.836 278.297C973.643 270.374 973.365 262.438 973.083 254.502C972.265 236.307 948.857 237.336 949.493 255.407C950.162 272.955 950.598 290.444 950.727 307.825" fill="white"/><path id="Fill 25" fill-rule="evenodd" clip-rule="evenodd" d="M950.726 309.825C949.628 309.825 948.735 308.939 948.726 307.84C948.605 291.341 948.19 273.725 947.494 255.483C947.134 245.254 953.852 239.629 960.675 239.356C969.67 238.991 974.732 246.657 975.08 254.412C975.382 262.885 975.647 270.512 975.835 278.249C975.862 279.353 974.989 280.27 973.884 280.297C972.773 280.313 971.863 279.45 971.836 278.346C971.648 270.631 971.384 263.015 971.084 254.573C970.725 246.602 965.517 243.159 960.835 243.353C956.138 243.541 951.211 247.371 951.491 255.336C952.189 273.614 952.604 291.27 952.726 307.81C952.734 308.915 951.846 309.817 950.741 309.825H950.726Z" fill="black"/><path id="Fill 27" fill-rule="evenodd" clip-rule="evenodd" d="M1043.84 251.604C1045.46 237.979 1034.35 204.345 1053.18 201.749C1072.53 202.306 1064.78 237.175 1067.43 250.698" fill="white"/><path id="Fill 29" fill-rule="evenodd" clip-rule="evenodd" d="M1043.84 253.604C1043.77 253.604 1043.69 253.599 1043.61 253.59C1042.51 253.459 1041.73 252.465 1041.86 251.368C1042.29 247.706 1041.72 242.246 1041.12 236.466C1039.52 221.061 1037.53 201.888 1052.91 199.768C1053.02 199.753 1053.13 199.747 1053.24 199.75C1069.22 200.21 1069 219.966 1068.82 235.839C1068.76 241.469 1068.7 246.787 1069.39 250.312C1069.61 251.396 1068.9 252.448 1067.82 252.66C1066.73 252.871 1065.68 252.166 1065.47 251.083C1064.7 247.154 1064.76 241.636 1064.82 235.795C1065.02 217.924 1064.29 204.208 1053.29 203.754C1042.76 205.343 1043.3 218.73 1045.1 236.053C1045.73 242.061 1046.32 247.735 1045.83 251.84C1045.71 252.856 1044.84 253.604 1043.84 253.604" fill="black"/></g><g id="Group"><path id="Fill 63" fill-rule="evenodd" clip-rule="evenodd" d="M968.477 295.511H1080.73V111H968.477V295.511Z" fill="white"/><path id="Fill 64" fill-rule="evenodd" clip-rule="evenodd" d="M970.477 293.511H1078.73V113H970.477V293.511ZM966.477 297.511H1082.73V109H966.477V297.511Z" fill="black"/><path id="Fill 66" fill-rule="evenodd" clip-rule="evenodd" d="M988.32 144.861H1060.89V140.861H988.32V144.861Z" fill="black"/><path id="Fill 68" fill-rule="evenodd" clip-rule="evenodd" d="M988.32 161.869H1060.89V157.869H988.32V161.869Z" fill="black"/><path id="Fill 70" fill-rule="evenodd" clip-rule="evenodd" d="M988.32 178.877H1060.89V174.877H988.32V178.877Z" fill="black"/><path id="Fill 72" fill-rule="evenodd" clip-rule="evenodd" d="M988.32 195.885H1060.89V191.885H988.32V195.885Z" fill="black"/><path id="Fill 74" fill-rule="evenodd" clip-rule="evenodd" d="M988.32 212.893H1060.89V208.893H988.32V212.893Z" fill="black"/><path id="Fill 76" fill-rule="evenodd" clip-rule="evenodd" d="M988.32 229.901H1060.89V225.901H988.32V229.901Z" fill="black"/><path id="Fill 78" fill-rule="evenodd" clip-rule="evenodd" d="M988.32 246.909H1060.89V242.909H988.32V246.909Z" fill="black"/><path id="Fill 80" fill-rule="evenodd" clip-rule="evenodd" d="M988.32 263.916H1060.89V259.916H988.32V263.916Z" fill="black"/></g><path id="Fill 31" fill-rule="evenodd" clip-rule="evenodd" d="M938.279 334.436C937.172 380.431 935.798 425.721 922.937 468.879C891.883 443.895 832.597 346.529 757.178 346.183C681.76 345.838 716.927 442.624 728.458 459.118C747.748 486.614 767.825 512.788 791.032 537.916C831.164 581.352 886.156 625.853 949.079 617.739C1072.34 597.116 1076.15 434.417 1079.22 336.348L938.279 334.436Z" fill="black"/></g><g id="torso"><path id="Fill 33" fill-rule="evenodd" clip-rule="evenodd" d="M809.85 691.074H514.111C504.448 691.074 496.277 683.92 495 674.341L510.307 406.597C506.03 374.515 520.989 346.009 553.354 346.009H756.779C798.71 346.32 831.762 383.845 828.304 425.569L828.395 670.717C829.415 681.64 820.821 691.074 809.85 691.074Z" fill="#10c446"/><path id="Fill 35" fill-rule="evenodd" clip-rule="evenodd" d="M741.335 346.008C717.12 244.035 537.081 316.125 653.996 401.242C656.094 402.948 659.142 402.782 661.056 400.869L674.921 387.003L688.741 373.183C695.359 379.614 708.968 392.829 715.63 399.304C725.825 409.815 742.156 358.983 741.335 346.008" fill="#10c446"/><path id="Fill 37" fill-rule="evenodd" clip-rule="evenodd" d="M683.697 408.17L669.496 393.97L689.252 374.214L709.007 393.97L694.767 408.21L708.637 450.278L741.337 346.008H615.234L678.196 450.999C678.213 450.925 683.664 408.234 683.697 408.17" fill="#10c446"/><path id="Fill 39" fill-rule="evenodd" clip-rule="evenodd" d="M711.383 577.757L694.766 408.21L709.007 393.97L689.251 374.215L669.496 393.97L683.696 408.17C683.675 408.152 660.951 578.464 660.941 578.478C690.532 614.533 684.489 620.622 711.383 577.757" fill="black"/><path id="Fill 41" fill-rule="evenodd" clip-rule="evenodd" d="M658.323 403.351C656.558 403.351 654.459 402.709 652.034 401.431C636.906 393.459 611.333 361.749 613.75 345.784C613.874 344.965 614.639 344.402 615.457 344.525C616.277 344.649 616.84 345.414 616.716 346.233C615.75 352.613 620.288 363.372 628.856 375.013C636.632 385.578 646.509 395.128 653.432 398.777C655.263 399.741 658.555 401.154 660.033 399.774C663.811 395.99 669.771 390.031 675.503 384.301L687.681 372.122C688.261 371.542 689.2 371.535 689.788 372.107L716.677 398.228C717.677 399.258 718.581 399.466 719.734 398.956C728.404 395.119 740.568 357.625 739.839 346.103C739.787 345.276 740.414 344.564 741.241 344.511C742.068 344.461 742.781 345.087 742.833 345.913C743.573 357.605 731.372 397.087 720.948 401.7C718.655 402.715 716.384 402.235 714.555 400.348L688.758 375.289L677.624 386.423C671.893 392.152 665.933 398.111 662.118 401.931C661.103 402.879 659.836 403.351 658.323 403.351" fill="black"/><path id="Fill 43" fill-rule="evenodd" clip-rule="evenodd" d="M723.898 443.312C724.245 452.654 723.987 461.008 723.758 468.425C723.255 484.729 722.891 496.51 729.708 503.077C736.305 509.433 749.668 511.425 774.389 509.738L774.466 509.735C780.928 509.624 785.785 507.738 789.314 503.969C797.807 494.898 796.919 476.724 796.136 460.69C795.824 454.292 795.527 448.211 795.897 443.312H723.898ZM759.621 513.299C743.218 513.299 733.334 510.736 727.627 505.238C719.851 497.747 720.232 485.409 720.76 468.333C721 460.556 721.272 451.742 720.837 441.878L720.768 440.312H799.23L799.036 441.985C798.466 446.891 798.79 453.522 799.133 460.543C799.945 477.173 800.865 496.021 791.504 506.019C787.455 510.344 781.753 512.603 774.556 512.733C769.061 513.108 764.097 513.299 759.621 513.299V513.299Z" fill="black"/><path id="Fill 45" fill-rule="evenodd" clip-rule="evenodd" d="M686.66 691.073H689.66V608.967H686.66V691.073Z" fill="black"/></g><g id="right"><g id="Group 3"><path id="Fill 47" fill-rule="evenodd" clip-rule="evenodd" d="M817.426 613.911C768.445 514.042 804.244 520.123 697.633 561.281L730.998 649.617C760.474 638.468 789.17 626.456 817.426 613.911" fill="white"/><path id="Fill 48" fill-rule="evenodd" clip-rule="evenodd" d="M700.205 562.429L732.162 647.036C758.278 637.115 785.326 625.939 814.719 612.923C804.76 592.445 798.328 576.361 793.594 564.521C786.884 547.74 783.187 538.496 777.255 536.015C770.674 533.264 759.552 537.944 737.396 547.269C727.507 551.431 715.295 556.571 700.205 562.429M730.998 651.616C730.717 651.616 730.437 651.557 730.175 651.439C729.692 651.22 729.315 650.819 729.127 650.323L695.762 561.987C695.374 560.959 695.888 559.81 696.913 559.414C712.803 553.28 725.579 547.903 735.844 543.583C759.755 533.519 770.668 528.927 778.798 532.325C786.278 535.452 789.964 544.671 797.308 563.036C802.161 575.173 808.808 591.796 819.222 613.03C819.462 613.518 819.492 614.082 819.306 614.593C819.121 615.104 818.735 615.518 818.238 615.738C787.337 629.458 759.032 641.151 731.706 651.487C731.478 651.573 731.238 651.616 730.998 651.616" fill="black"/><path id="Fill 49" fill-rule="evenodd" clip-rule="evenodd" d="M783.494 551.491C796.917 545.568 810.285 539.501 823.613 533.335C840.293 525.464 830.343 504.252 813.674 511.922C797.498 519.424 781.266 526.739 764.977 533.812" fill="white"/><path id="Fill 50" fill-rule="evenodd" clip-rule="evenodd" d="M783.495 553.492C782.727 553.492 781.994 553.047 781.664 552.299C781.218 551.288 781.676 550.108 782.686 549.662C795.441 544.033 808.554 538.099 822.773 531.52C830.107 528.059 831.32 521.903 829.339 517.651C827.355 513.394 821.868 510.354 814.51 513.739C797.781 521.498 781.382 528.869 765.774 535.647C764.761 536.086 763.583 535.623 763.143 534.609C762.703 533.596 763.167 532.418 764.181 531.978C779.758 525.213 796.127 517.855 812.833 510.108C822.243 505.779 830.082 509.776 832.964 515.961C836.769 524.127 831.57 531.792 824.467 535.144C810.211 541.74 797.078 547.683 784.301 553.321C784.039 553.437 783.765 553.492 783.495 553.492" fill="black"/><path id="Fill 51" fill-rule="evenodd" clip-rule="evenodd" d="M783.496 551.491C796.919 545.568 810.287 539.501 823.615 533.335C830.675 530.035 838.652 532.133 841.434 538.029C844.217 543.924 840.69 551.412 833.553 554.748C820.096 560.974 806.588 567.104 793.009 573.096" fill="white"/><path id="Fill 52" fill-rule="evenodd" clip-rule="evenodd" d="M793.011 575.097C792.243 575.097 791.51 574.652 791.18 573.904C790.734 572.893 791.192 571.713 792.202 571.267C805.09 565.58 818.342 559.583 832.714 552.934C836.09 551.355 838.676 548.66 839.802 545.541C840.643 543.21 840.582 540.908 839.627 538.883C837.319 533.993 830.516 532.317 824.463 535.147C810.214 541.74 797.081 547.683 784.304 553.321C783.294 553.767 782.113 553.309 781.667 552.299C781.221 551.288 781.679 550.108 782.689 549.662C795.444 544.033 808.556 538.099 822.776 531.52C830.813 527.763 839.998 530.299 843.244 537.176C844.643 540.14 844.757 543.594 843.564 546.899C842.081 551.011 838.741 554.532 834.4 556.561C820 563.223 806.727 569.23 793.817 574.926C793.555 575.042 793.281 575.097 793.011 575.097" fill="black"/><path id="Fill 53" fill-rule="evenodd" clip-rule="evenodd" d="M793.008 573.096C806.587 567.104 820.095 560.974 833.551 554.748C840.677 551.418 848.706 553.492 851.489 559.387C854.271 565.281 850.692 572.795 843.489 576.161C829.904 582.447 816.257 588.64 802.521 594.701" fill="white"/><path id="Fill 54" fill-rule="evenodd" clip-rule="evenodd" d="M802.522 596.702C801.754 596.702 801.021 596.257 800.691 595.509C800.245 594.498 800.703 593.318 801.714 592.872C814.75 587.119 828.141 581.059 842.649 574.346C846.084 572.741 848.71 570.01 849.848 566.858C850.686 564.536 850.628 562.248 849.681 560.241C847.372 555.352 840.517 553.701 834.399 556.56C819.998 563.223 806.725 569.229 793.816 574.926C792.805 575.371 791.624 574.914 791.178 573.903C790.733 572.893 791.19 571.712 792.201 571.266C805.089 565.579 818.34 559.582 832.712 552.933C840.814 549.147 850.052 551.657 853.298 558.533C854.689 561.481 854.8 564.919 853.611 568.215C852.115 572.361 848.734 575.918 844.336 577.973C829.798 584.7 816.387 590.769 803.328 596.531C803.066 596.647 802.792 596.702 802.522 596.702" fill="black"/><path id="Fill 55" fill-rule="evenodd" clip-rule="evenodd" d="M703.089 570.171C690.709 543.033 699.289 531.072 726.212 522.627C743.752 513.778 763.165 508.28 774.082 530.108C768.951 535.978 763.797 541.892 758.579 547.719" fill="white"/><path id="Fill 56" fill-rule="evenodd" clip-rule="evenodd" d="M697.633 561.281C693.944 551.511 689.355 538.924 689.355 538.924C699.753 535.248 716.339 528.717 726.906 524.317C743.439 515.995 763.979 509.552 773.981 529.886C767.509 532.705 761.044 535.553 754.556 538.299" fill="white"/><path id="Fill 57" fill-rule="evenodd" clip-rule="evenodd" d="M697.634 563.281C696.826 563.281 696.065 562.788 695.763 561.987C692.112 552.318 687.522 539.735 687.476 539.609C687.293 539.107 687.319 538.553 687.546 538.071C687.774 537.588 688.185 537.216 688.689 537.038C699.269 533.297 715.826 526.762 726.072 522.497C735.705 517.654 749.834 511.698 761.551 515.629C767.628 517.667 772.414 522.167 775.776 529.003C776.018 529.494 776.048 530.062 775.86 530.574C775.671 531.088 775.281 531.501 774.78 531.72L770.354 533.651C765.438 535.797 760.355 538.017 755.336 540.14C754.319 540.571 753.145 540.095 752.715 539.078C752.284 538.061 752.76 536.887 753.777 536.457C758.775 534.342 763.848 532.127 768.753 529.985L771.203 528.916C768.412 524.06 764.824 520.946 760.279 519.421C752.42 516.785 742.101 518.908 727.806 526.103C727.763 526.124 727.72 526.144 727.675 526.162C717.979 530.2 702.596 536.284 691.926 540.129C693.348 544.016 696.704 553.157 699.505 560.574C699.895 561.607 699.374 562.761 698.34 563.152C698.108 563.239 697.869 563.281 697.634 563.281" fill="black"/><path id="Fill 58" fill-rule="evenodd" clip-rule="evenodd" d="M751.967 539.405C759.264 536.314 766.543 533.139 773.821 529.959C790.442 522.511 780.88 501.12 764.309 508.353C748.235 515.425 732.13 522.258 716.012 528.765" fill="white"/><path id="Fill 59" fill-rule="evenodd" clip-rule="evenodd" d="M751.968 541.405C751.189 541.405 750.448 540.947 750.125 540.185C749.695 539.167 750.17 537.994 751.187 537.563C758.306 534.548 765.286 531.505 773.02 528.125C780.301 524.863 781.585 518.759 779.688 514.471C777.787 510.172 772.413 506.997 765.109 510.186C748.364 517.552 732.096 524.428 716.761 530.619C715.737 531.033 714.572 530.538 714.158 529.514C713.744 528.489 714.239 527.324 715.264 526.91C730.56 520.734 746.791 513.875 763.503 506.522C772.884 502.427 780.585 506.608 783.346 512.853C786.988 521.087 781.722 528.609 774.638 531.783C766.877 535.175 759.885 538.223 752.747 541.246C752.493 541.354 752.228 541.405 751.968 541.405" fill="black"/><path id="Fill 60" fill-rule="evenodd" clip-rule="evenodd" d="M802.52 594.702C815.787 591.199 842.984 568.507 852.317 585.063C859.072 603.049 823.548 608.986 812.033 616.307" fill="white"/><path id="Fill 61" fill-rule="evenodd" clip-rule="evenodd" d="M812.034 618.307C811.373 618.307 810.725 617.979 810.344 617.38C809.752 616.448 810.027 615.212 810.959 614.619C814.269 612.515 819.36 610.558 824.749 608.486C841.617 602.002 854.231 596.216 850.498 585.91C845.155 576.69 832.899 582.113 817.445 590.157C812.087 592.946 807.027 595.58 803.03 596.635C801.962 596.917 800.868 596.28 800.586 595.212C800.304 594.144 800.941 593.049 802.009 592.767C805.575 591.826 810.444 589.292 815.598 586.609C829.337 579.458 846.436 570.558 854.059 584.08C854.109 584.17 854.153 584.263 854.189 584.359C859.799 599.298 841.161 606.463 826.185 612.219C820.987 614.218 816.077 616.105 813.105 617.995C812.773 618.206 812.401 618.307 812.034 618.307" fill="black"/></g><path id="Fill 62" fill-rule="evenodd" clip-rule="evenodd" d="M736.71 658.748L686.689 526.968C643.507 542.844 600.88 558.21 556.016 562.112C563.561 537.016 575.837 513.876 589.194 490.669C596.062 478.891 603.454 467.106 611.177 455.425C631.017 424.84 620.395 384.238 591.703 361.553V361.553C560.707 336.949 515.539 344.35 493.618 377.656C475.136 405.703 458.173 433.992 443.332 464.811C423.608 506.27 406.544 554.309 413.639 600.874C420.085 651.723 462.571 691.924 512.615 699.93C588.958 712.595 666.71 683.889 736.71 658.748" fill="black"/></g></g></g><g id="Hairstyle" transform="translate(637 450) scale(1 1)"><g id="Hairstyle/Short Hair Combed"><g id="hair"><g id="Group 3"><path id="Fill 1" fill-rule="evenodd" clip-rule="evenodd" d="M65.514 90.9026C65.514 113.597 51.967 131.994 35.257 131.994C18.547 131.994 5 113.597 5 90.9026C5 68.2086 18.547 49.8116 35.257 49.8116C51.967 49.8116 65.514 68.2086 65.514 90.9026" fill="black"/></g><path id="Fill 4" fill-rule="evenodd" clip-rule="evenodd" d="M132.24 90.9439C132.24 113.661 118.694 132.076 101.983 132.076C85.2726 132.076 71.7256 113.661 71.7256 90.9439C71.7256 68.2269 85.2726 49.8119 101.983 49.8119C118.694 49.8119 132.24 68.2269 132.24 90.9439" fill="black"/></g><g id="head"><path id="Fill 6" fill-rule="evenodd" clip-rule="evenodd" d="M132.448 106.852C132.448 115.265 125.628 122.085 117.215 122.085C108.802 122.085 101.982 115.265 101.982 106.852C101.982 98.4389 108.802 91.6189 117.215 91.6189C125.628 91.6189 132.448 98.4389 132.448 106.852" fill="white"/><g id="Group 10"><path id="Fill 8" fill-rule="evenodd" clip-rule="evenodd" d="M117.216 93.619C109.919 93.619 103.983 99.555 103.983 106.852C103.983 114.149 109.919 120.085 117.216 120.085C124.513 120.085 130.449 114.149 130.449 106.852C130.449 99.555 124.513 93.619 117.216 93.619M117.216 124.085C107.714 124.085 99.9834 116.354 99.9834 106.852C99.9834 97.35 107.714 89.619 117.216 89.619C126.718 89.619 134.449 97.35 134.449 106.852C134.449 116.354 126.718 124.085 117.216 124.085" fill="black"/></g><path id="Fill 11" fill-rule="evenodd" clip-rule="evenodd" d="M66.1127 206.347V206.347C47.1557 206.347 29.6787 191.809 29.6787 174.452L45.7887 114.789C45.7887 97.432 41.1557 83.361 60.1127 83.361H80.1127C99.0697 83.361 94.4367 97.432 94.4367 114.789V174.919C94.4367 192.276 85.0697 206.347 66.1127 206.347" fill="white"/><path id="Fill 13" fill-rule="evenodd" clip-rule="evenodd" d="M31.6807 174.712C31.8537 190.529 47.8697 204.347 66.1137 204.347C85.5217 204.347 92.4377 189.146 92.4377 174.919V114.789C92.4377 111.741 92.5757 108.845 92.7097 106.044C93.0767 98.337 93.3937 91.682 90.2147 88.347C88.2987 86.338 84.9947 85.361 80.1137 85.361H60.1137C55.2317 85.361 51.9287 86.338 50.0127 88.347C46.8327 91.682 47.1497 98.338 47.5177 106.044C47.6507 108.845 47.7887 111.742 47.7887 114.789V115.055L31.6807 174.712ZM66.1137 208.347C45.6387 208.347 27.6797 192.508 27.6797 174.452V174.187L27.7487 173.931L43.7887 114.525C43.7807 111.667 43.6497 108.907 43.5217 106.234C43.1107 97.61 42.7557 90.162 47.1177 85.587C49.8287 82.743 54.0787 81.361 60.1137 81.361H80.1137C86.1477 81.361 90.3987 82.743 93.1097 85.587C97.4717 90.162 97.1167 97.61 96.7047 106.234C96.5737 108.989 96.4377 111.837 96.4377 114.789V174.919C96.4377 195.226 84.5347 208.347 66.1137 208.347V208.347Z" fill="black"/><path id="Fill 15" fill-rule="evenodd" clip-rule="evenodd" d="M77.7118 154.279C60.2448 154.279 44.4828 143.92 37.5558 127.887L36.9048 126.383C32.2738 115.662 32.0938 103.779 36.3988 92.9226C40.7048 82.0666 48.9808 73.5376 59.7008 68.9056C65.2248 66.5196 71.0518 65.3096 77.0208 65.3096C94.4888 65.3096 110.252 75.6686 117.178 91.7016L117.828 93.2066C122.46 103.927 122.64 115.81 118.334 126.666C114.028 137.522 105.753 146.051 95.0328 150.683C89.5088 153.069 83.6808 154.279 77.7118 154.279" fill="white"/><path id="Fill 17" fill-rule="evenodd" clip-rule="evenodd" d="M77.022 63.3092H77.021C70.777 63.3092 64.683 64.5742 58.908 67.0692C47.697 71.9132 39.043 80.8332 34.54 92.1852C30.038 103.538 30.226 115.964 35.069 127.175L35.719 128.68C42.963 145.446 59.446 156.279 77.712 156.279C83.956 156.279 90.05 155.014 95.825 152.518C107.037 147.675 115.69 138.755 120.193 127.403C124.695 116.05 124.507 103.624 119.664 92.4132L119.014 90.9082C111.77 74.1422 95.288 63.3092 77.022 63.3092M77.021 67.3092C93.164 67.3092 108.532 76.7332 115.342 92.4942L115.992 93.9992C125.13 115.152 115.392 139.708 94.239 148.846C88.848 151.176 83.234 152.279 77.712 152.279C61.569 152.279 46.201 142.855 39.392 127.094L38.741 125.589C29.603 104.436 39.342 79.8802 60.494 70.7412C65.886 68.4122 71.499 67.3092 77.021 67.3092" fill="black"/><path id="Fill 19" fill-rule="evenodd" clip-rule="evenodd" d="M36.7603 122.085C28.3473 122.085 21.5273 115.265 21.5273 106.852C21.5273 98.4388 28.3473 91.6188 36.7603 91.6188C37.8113 91.6188 38.8383 91.7258 39.8303 91.9288" fill="white"/><path id="Fill 21" fill-rule="evenodd" clip-rule="evenodd" d="M36.7603 124.085C27.2583 124.085 19.5273 116.354 19.5273 106.852C19.5273 97.3498 27.2583 89.6188 36.7603 89.6188C37.9273 89.6188 39.0953 89.7368 40.2313 89.9688C41.3133 90.1908 42.0103 91.2468 41.7893 92.3298C41.5683 93.4118 40.5123 94.1088 39.4293 93.8878C38.5563 93.7098 37.6583 93.6188 36.7603 93.6188C29.4633 93.6188 23.5273 99.5548 23.5273 106.852C23.5273 114.149 29.4633 120.085 36.7603 120.085C37.8643 120.085 38.7603 120.981 38.7603 122.085C38.7603 123.189 37.8643 124.085 36.7603 124.085" fill="black"/></g><path id="Fill 23" fill-rule="evenodd" clip-rule="evenodd" d="M120.279 55.5116C120.279 69.6016 101.066 81.0236 77.3661 81.0236C53.6661 81.0236 34.4531 69.6016 34.4531 55.5116C34.4531 41.4216 53.6661 29.9996 77.3661 29.9996C101.066 29.9996 120.279 41.4216 120.279 55.5116" fill="black"/><circle id="Oval" cx="46" cy="82" r="14" fill="black"/><path id="Fill 9" fill-rule="evenodd" clip-rule="evenodd" d="M83.1474 123.992H90.7084C92.7934 123.992 94.3374 120.961 93.8714 117.782L90.6874 96.0426C89.9484 90.9976 85.4234 90.7156 84.4294 95.6516L80.0524 117.391C79.3944 120.662 80.9554 123.992 83.1474 123.992" fill="#10c446"/></g></g><g id="Face" transform="translate(657 540) scale(122 129)"><g id="Face/None" stroke="none" stroke-width="1" fill="none" fill-rule="evenodd" fill-opacity="0"/></g><g id="Expression" transform="translate(685 531) scale(1 1)"><g id="Expression/Happy"><path id="Fill 1" fill-rule="evenodd" clip-rule="evenodd" d="M37.0177 54.3827C31.7907 54.3827 26.5648 52.3937 22.5857 48.4137C21.8047 47.6327 21.8047 46.3668 22.5857 45.5857C23.3668 44.8047 24.6327 44.8047 25.4137 45.5857C31.8117 51.9837 42.2238 51.9837 48.6217 45.5857C49.4027 44.8047 50.6688 44.8047 51.4498 45.5857C52.2318 46.3668 52.2318 47.6327 51.4498 48.4137C47.4718 52.3928 42.2437 54.3827 37.0177 54.3827" fill="black"/><path id="Fill 3" fill-rule="evenodd" clip-rule="evenodd" d="M25.1309 19.3419C22.5579 19.5899 20.2699 17.7049 20.0219 15.1319C19.7739 12.5579 21.6589 10.2709 24.2319 10.0219C26.8059 9.77392 29.0929 11.6589 29.3409 14.2329C29.5899 16.8059 27.7049 19.0939 25.1309 19.3419" fill="black"/><path id="Fill 6" fill-rule="evenodd" clip-rule="evenodd" d="M50.551 19.3419C47.977 19.5899 45.69 17.7049 45.442 15.1319C45.193 12.5579 47.079 10.2709 49.652 10.0219C52.226 9.77392 54.513 11.6589 54.761 14.2329C55.01 16.8059 53.124 19.0939 50.551 19.3419" fill="black"/></g></g><g id="Glasses" transform="translate(666 518) scale(1 1)"><g id="Glasses/Round Glasses"><path id="Shape" fill-rule="evenodd" clip-rule="evenodd" d="M77.2 10C86.553 10 94.162 17.609 94.162 26.962C94.162 36.316 86.553 43.925 77.2 43.925C67.847 43.925 60.238 36.316 60.238 26.962C60.238 26.3961 60.2659 25.8365 60.3203 25.2846C59.1176 24.4202 57.9788 24.7444 57.224 25.1805C57.2869 25.7661 57.3184 26.3604 57.3184 26.962C57.3184 36.316 49.7094 43.925 40.3564 43.925C31.0181 43.925 23.4184 36.34 23.3945 27.0062L12 27.0063C10.895 27.0063 10 26.1113 10 25.0063C10 23.9013 10.895 23.0063 12 23.0063L23.86 23.0065C25.6466 15.555 32.3649 10 40.3564 10C47.6929 10 53.9564 14.6817 56.3161 21.2145C57.7784 20.6606 59.5139 20.5111 61.2354 21.2273C63.5911 14.6884 69.8583 10 77.2 10ZM40.3564 14C33.2094 14 27.3944 19.815 27.3944 26.962C27.3944 34.11 33.2094 39.925 40.3564 39.925C47.5044 39.925 53.3184 34.11 53.3184 26.962C53.3184 19.815 47.5044 14 40.3564 14ZM77.2 14C70.053 14 64.238 19.815 64.238 26.962C64.238 34.11 70.053 39.925 77.2 39.925C84.347 39.925 90.162 34.11 90.162 26.962C90.162 19.815 84.347 14 77.2 14Z" fill="#10c446"/></g></g></g></g></svg>