<svg viewBox="403.9625000000001 218.36144578313247 1116.8374999999999 1376.6265060240964" fill="none" xmlns="http://www.w3.org/2000/svg" xmlns:xlink="http://www.w3.org/1999/xlink" overflow="visible" width="1116.8374999999999px" height="1376.6265060240964px"><g id="Master/Compositions/Socializing"><path id="Floor (Stroke)" fill-rule="evenodd" clip-rule="evenodd" d="M1427 1450H603V1446H1427V1450Z" fill="black"/><g id="Background"><g id="Group 3"><path id="Fill 1" fill-rule="evenodd" clip-rule="evenodd" d="M472.588 1245.09C464.286 1202.57 470.181 1159.65 489.634 1120.98L490.142 1119.97L489.11 1119.51C448.591 1101.25 419.332 1064.39 410.844 1020.91C404.281 987.293 410.502 952.716 428.36 923.551C446.101 894.568 473.776 873.373 506.278 863.86L507.167 863.6L507.047 862.682C494.052 763.17 519.224 663.382 577.914 581.684C636.863 499.639 724.023 443.868 823.339 424.646L822.924 422.52C723.064 441.847 635.425 497.923 576.153 580.42C517.31 662.302 491.987 762.289 504.78 862.044C472.145 871.833 444.376 893.227 426.511 922.419C408.369 952.047 402.05 987.172 408.717 1021.32C417.268 1065.12 446.569 1102.31 487.195 1121.02C467.924 1159.85 462.138 1202.87 470.461 1245.51L472.588 1245.09Z" fill="black"/></g><g id="Group 6"><path id="Fill 4" fill-rule="evenodd" clip-rule="evenodd" d="M1246.1 627.656C1190.15 542.893 1104.9 483.493 1006.06 460.396C907.645 437.4 805.265 452.492 717.781 502.892L718.856 504.768C805.862 454.645 907.684 439.635 1005.56 462.507C1103.87 485.477 1188.65 544.553 1244.29 628.854L1246.1 627.656Z" fill="black"/></g><path id="Fill 7" fill-rule="evenodd" clip-rule="evenodd" d="M690.359 1339.46L689.605 1337.43C657.873 1349.16 623.015 1348.66 591.453 1336.01C559.688 1323.28 534.007 1299.28 519.14 1268.45C499.912 1228.56 501.286 1181.61 522.816 1142.85L520.923 1141.8C499.053 1181.17 497.657 1228.86 517.19 1269.38C532.293 1300.71 558.381 1325.09 590.65 1338.02C622.711 1350.87 658.123 1351.38 690.359 1339.46" fill="black"/></g><g id="Cel"><path id="Fill 1_2" fill-rule="evenodd" clip-rule="evenodd" d="M1125.19 1487.5L716.515 1355.15C665.677 1338.69 638.075 1285.57 654.864 1236.5L915.838 473.794C932.626 424.727 987.45 398.298 1038.29 414.76L1446.96 547.105C1497.8 563.568 1525.4 616.689 1508.61 665.755L1247.64 1428.46C1230.85 1477.53 1176.02 1503.96 1125.19 1487.5" fill="white"/><path id="Stroke 3 (Stroke)" fill-rule="evenodd" clip-rule="evenodd" d="M1039.53 418.797C989.677 402.654 936.005 428.594 919.588 476.575L917.696 475.928L919.588 476.575L658.614 1239.28C642.205 1287.24 669.158 1339.25 718.989 1355.38L1127.66 1487.73C1177.51 1503.87 1231.18 1477.93 1247.6 1429.95L1508.57 667.242C1524.98 619.288 1498.03 567.278 1448.2 551.142L1039.53 418.797ZM1040.76 414.992L1040.14 416.892L1040.76 414.992L1449.43 547.336C1501.28 564.125 1529.53 618.359 1512.36 668.537L1251.38 1431.24C1234.22 1481.4 1178.25 1508.32 1126.43 1491.53L717.756 1359.19C665.911 1342.4 637.66 1288.16 654.829 1237.99L915.804 475.28C932.963 425.129 988.938 398.21 1040.76 414.992Z" fill="black"/><path id="Fill 5 (Stroke)" fill-rule="evenodd" clip-rule="evenodd" d="M987.447 484.004C987.447 484.005 987.447 484.004 987.447 484.004L741.533 1203.08C740.459 1206.22 742.209 1209.7 745.57 1210.79L1192.69 1355.66C1196.06 1356.75 1199.64 1354.98 1200.73 1351.81L1446.64 632.736C1447.71 629.591 1445.96 626.12 1442.6 625.031L995.486 480.16C992.108 479.066 988.53 480.839 987.447 484.004ZM996.411 477.306L1443.53 622.177C1448.4 623.756 1451.12 628.896 1449.48 633.707L1203.56 1352.78C1201.93 1357.57 1196.62 1360.08 1191.76 1358.51L744.645 1213.64C739.771 1212.06 737.051 1206.92 738.694 1202.11L984.608 483.033C986.248 478.243 991.552 475.732 996.411 477.306Z" fill="black"/><path id="Fill 7_2" fill-rule="evenodd" clip-rule="evenodd" d="M973.028 1318.05C985.738 1334.01 982.789 1356.93 966.442 1369.25C950.092 1381.56 926.536 1378.61 913.826 1362.64C901.116 1346.68 904.065 1323.76 920.412 1311.44C936.762 1299.13 960.318 1302.09 973.028 1318.05" fill="black"/></g><g id="Element 2"><path id="Fill 37" fill-rule="evenodd" clip-rule="evenodd" d="M695.671 999.318C666.285 1024.86 621.756 1021.75 596.211 992.363C570.667 962.977 573.781 918.448 603.166 892.903C632.552 867.359 677.081 870.473 702.626 899.858C728.169 929.244 725.056 973.773 695.671 999.318" fill="white"/><path id="Fill 37 Copy" fill-rule="evenodd" clip-rule="evenodd" d="M595.078 993.347C621.167 1023.36 666.643 1026.54 696.654 1000.45L697.546 999.661C726.725 973.454 729.583 928.585 703.757 898.874C677.669 868.863 632.192 865.683 602.181 891.771C572.17 917.859 568.99 963.336 595.078 993.347ZM701.493 900.842C726.243 929.315 723.504 972.314 695.541 997.43L694.686 998.186L693.819 998.927C665.056 1023.12 622.094 1019.85 597.343 991.379C572.341 962.618 575.389 919.037 604.149 894.035C632.91 869.034 676.492 872.082 701.493 900.842Z" fill="black"/><path id="Fill 95" fill-rule="evenodd" clip-rule="evenodd" d="M675.24 966.553C676.38 965.352 678.279 965.301 679.481 966.441C680.683 967.582 680.733 969.481 679.593 970.683C678.453 971.884 676.554 971.935 675.352 970.795C674.15 969.654 674.1 967.755 675.24 966.553" fill="black"/><path id="Fill 97" fill-rule="evenodd" clip-rule="evenodd" d="M640.017 997.171C641.158 995.969 643.056 995.919 644.258 997.059C645.46 998.2 645.51 1000.1 644.37 1001.3C643.23 1002.5 641.331 1002.55 640.129 1001.41C638.927 1000.27 638.877 998.373 640.017 997.171" fill="black"/><path id="Fill 99" fill-rule="evenodd" clip-rule="evenodd" d="M638.818 956.989C639.958 955.787 641.857 955.738 643.059 956.877C644.261 958.018 644.311 959.917 643.171 961.118C642.03 962.321 640.132 962.371 638.93 961.23C637.728 960.09 637.677 958.191 638.818 956.989" fill="black"/><path id="Fill 101" fill-rule="evenodd" clip-rule="evenodd" d="M603.595 987.607C604.736 986.405 606.634 986.355 607.837 987.495C609.039 988.635 609.088 990.535 607.948 991.737C606.808 992.938 604.91 992.988 603.707 991.849C602.505 990.708 602.455 988.809 603.595 987.607" fill="black"/><path id="Fill 103" fill-rule="evenodd" clip-rule="evenodd" d="M600.191 950.279C601.331 949.077 603.231 949.027 604.432 950.167C605.634 951.308 605.684 953.206 604.544 954.408C603.404 955.61 601.505 955.66 600.303 954.52C599.101 953.379 599.051 951.481 600.191 950.279" fill="black"/><path id="Fill 105" fill-rule="evenodd" clip-rule="evenodd" d="M597.994 910.027C599.134 908.826 601.033 908.775 602.235 909.915C603.437 911.056 603.487 912.955 602.347 914.157C601.206 915.359 599.307 915.409 598.105 914.269C596.904 913.128 596.853 911.229 597.994 910.027" fill="black"/></g><g id="Element 1"><path id="Fill 37_2" fill-rule="evenodd" clip-rule="evenodd" d="M1349.92 341.954C1334.91 354.997 1312.17 353.407 1299.13 338.402C1286.09 323.397 1287.68 300.658 1302.68 287.614C1317.69 274.57 1340.43 276.16 1353.47 291.166C1366.51 306.171 1364.92 328.91 1349.92 341.954" fill="white"/><path id="Fill 37 Copy 2" fill-rule="evenodd" clip-rule="evenodd" d="M1298 339.386C1311.58 355.017 1335.27 356.673 1350.9 343.086L1351.37 342.675C1366.56 329.025 1368.05 305.656 1354.6 290.182C1341.01 274.551 1317.33 272.895 1301.7 286.482C1286.07 300.07 1284.41 323.756 1298 339.386ZM1352.34 292.15C1364.71 306.386 1363.34 327.886 1349.36 340.444L1348.93 340.821L1348.5 341.192C1334.12 353.29 1312.64 351.654 1300.26 337.418C1287.76 323.038 1289.28 301.247 1303.66 288.746C1318.04 276.246 1339.84 277.77 1352.34 292.15Z" fill="black"/><path id="Fill 95_2" fill-rule="evenodd" clip-rule="evenodd" d="M1339.94 325.307C1340.51 324.706 1341.46 324.681 1342.06 325.251C1342.66 325.822 1342.69 326.771 1342.12 327.372C1341.55 327.973 1340.6 327.998 1340 327.428C1339.4 326.857 1339.37 325.908 1339.94 325.307" fill="black"/><path id="Fill 97_2" fill-rule="evenodd" clip-rule="evenodd" d="M1321.8 341.08C1322.37 340.479 1323.32 340.454 1323.92 341.024C1324.52 341.594 1324.54 342.543 1323.97 343.144C1323.4 343.746 1322.45 343.77 1321.85 343.2C1321.25 342.63 1321.23 341.681 1321.8 341.08" fill="black"/><path id="Fill 99_2" fill-rule="evenodd" clip-rule="evenodd" d="M1321.27 319.991C1321.84 319.39 1322.79 319.366 1323.39 319.935C1323.99 320.506 1324.01 321.455 1323.44 322.056C1322.87 322.657 1321.92 322.682 1321.32 322.112C1320.72 321.542 1320.7 320.592 1321.27 319.991" fill="black"/><path id="Fill 101_2" fill-rule="evenodd" clip-rule="evenodd" d="M1303.12 335.764C1303.69 335.163 1304.64 335.138 1305.24 335.708C1305.84 336.278 1305.87 337.228 1305.3 337.829C1304.73 338.43 1303.78 338.455 1303.18 337.885C1302.58 337.315 1302.55 336.365 1303.12 335.764" fill="black"/><path id="Fill 103_2" fill-rule="evenodd" clip-rule="evenodd" d="M1301.45 316.601C1302.02 316 1302.97 315.975 1303.57 316.545C1304.18 317.116 1304.2 318.065 1303.63 318.666C1303.06 319.267 1302.11 319.292 1301.51 318.722C1300.91 318.151 1300.88 317.202 1301.45 316.601" fill="black"/><path id="Fill 105_2" fill-rule="evenodd" clip-rule="evenodd" d="M1299.86 296.441C1300.43 295.84 1301.38 295.815 1301.98 296.385C1302.58 296.955 1302.6 297.904 1302.03 298.505C1301.46 299.106 1300.51 299.131 1299.91 298.561C1299.31 297.991 1299.29 297.042 1299.86 296.441" fill="black"/></g><g id="Character"><g id="Blue"><path id="Path 4 (Stroke)" fill-rule="evenodd" clip-rule="evenodd" d="M951.476 1025.66L969.333 1285.62L879.529 1256.82L864.863 1059.4L951.476 1025.66ZM868.019 1061.39L882.371 1254.58L966.037 1281.41L948.762 1029.93L868.019 1061.39Z" fill="black"/><g id="Group 5"><path id="Fill 16" fill-rule="evenodd" clip-rule="evenodd" d="M815.246 1065.83L991.615 1046.94C989.957 1039.42 988.364 1031.89 986.654 1024.39L981.53 1001.92L978.969 990.687L976.321 979.484L971.022 957.098C963.804 927.292 956.445 897.588 948.705 867.966C947.295 858.423 944.024 849.616 939.336 841.88C934.607 834.134 928.516 827.49 921.362 822.213C907.114 811.707 888.842 806.744 870.155 809.964V809.964C851.457 813.192 835.79 823.428 825.435 837.513C820.278 844.527 816.402 852.54 814.216 861.058C811.994 869.597 811.42 878.684 812.787 887.935C813.799 917.631 814.431 947.353 814.909 977.011L815.153 999.252L815.27 1010.36L815.3 1021.47L815.359 1043.67C815.378 1051.06 815.28 1058.45 815.246 1065.83" fill="#ff830f"/><g id="Group 4"><path id="Fill 18" fill-rule="evenodd" clip-rule="evenodd" d="M894.314 853.388C896.892 853.248 898.882 851.027 898.729 848.428C898.577 845.828 896.36 843.838 893.779 843.985C891.198 844.131 889.228 846.354 889.379 848.946C889.536 851.539 891.73 853.528 894.314 853.388" fill="black"/><path id="Fill 20" fill-rule="evenodd" clip-rule="evenodd" d="M830.669 863.071C833.247 862.929 835.241 860.732 835.094 858.176C834.948 855.619 832.738 853.667 830.157 853.818C827.576 853.97 825.601 856.16 825.746 858.709C825.896 861.257 828.086 863.215 830.669 863.071" fill="black"/><path id="Fill 22" fill-rule="evenodd" clip-rule="evenodd" d="M929.686 891.993C932.269 891.879 934.261 889.669 934.134 887.053C934.007 884.438 931.811 882.415 929.227 882.535C926.644 882.654 924.654 884.867 924.779 887.476C924.905 890.086 927.102 892.107 929.686 891.993" fill="black"/><path id="Fill 24" fill-rule="evenodd" clip-rule="evenodd" d="M865.95 901.065C868.533 900.948 870.529 898.762 870.407 896.183C870.284 893.604 868.093 891.612 865.51 891.735C862.928 891.858 860.933 894.044 861.053 896.618C861.175 899.191 863.366 901.182 865.95 901.065" fill="black"/><path id="Fill 26" fill-rule="evenodd" clip-rule="evenodd" d="M906.478 938.925C909.061 938.833 911.081 936.652 910.989 934.05C910.897 931.451 908.73 929.421 906.147 929.519C903.564 929.616 901.544 931.8 901.635 934.394C901.726 936.989 903.894 939.017 906.478 938.925" fill="black"/><path id="Fill 28" fill-rule="evenodd" clip-rule="evenodd" d="M842.664 947.421C845.248 947.326 847.27 945.169 847.183 942.603C847.097 940.036 844.932 938.037 842.349 938.138C839.767 938.239 837.744 940.397 837.83 942.958C837.917 945.519 840.08 947.516 842.664 947.421" fill="black"/><path id="Fill 30" fill-rule="evenodd" clip-rule="evenodd" d="M941.13 978.159C943.715 978.092 945.751 975.917 945.676 973.3C945.6 970.683 943.444 968.62 940.86 968.692C938.276 968.765 936.241 970.941 936.315 973.552C936.39 976.164 938.545 978.225 941.13 978.159" fill="black"/><path id="Fill 32" fill-rule="evenodd" clip-rule="evenodd" d="M877.24 986.072C879.824 986.001 881.862 983.853 881.791 981.271C881.721 978.689 879.57 976.657 876.985 976.733C874.402 976.809 872.364 978.96 872.434 981.536C872.503 984.111 874.655 986.142 877.24 986.072" fill="black"/><path id="Fill 34" fill-rule="evenodd" clip-rule="evenodd" d="M917.086 1024.67C919.672 1024.63 921.726 1022.48 921.674 1019.88C921.622 1017.28 919.485 1015.21 916.9 1015.26C914.315 1015.31 912.26 1017.45 912.312 1020.05C912.363 1022.65 914.501 1024.71 917.086 1024.67" fill="black"/><path id="Fill 36" fill-rule="evenodd" clip-rule="evenodd" d="M853.123 1031.97C855.709 1031.93 857.766 1029.81 857.718 1027.25C857.671 1024.68 855.537 1022.65 852.952 1022.7C850.368 1022.75 848.31 1024.87 848.358 1027.43C848.405 1029.99 850.538 1032.02 853.123 1031.97" fill="black"/></g></g></g><g id="Black"><g id="Group 2"><path id="Fill 40" fill-rule="evenodd" clip-rule="evenodd" d="M1164.76 1501.29L1141.79 1428.52L1013.72 1022.62L1097.35 996.231L1225.43 1402.13L1248.39 1474.9L1164.76 1501.29Z" fill="white"/><path id="Fill 42" fill-rule="evenodd" clip-rule="evenodd" d="M1098.68 993.795L1227.33 1401.53L1250.9 1476.2L1163.45 1503.8L1139.89 1429.12L1011.23 1021.39L1098.68 993.795ZM1096.02 998.666L1016.2 1023.85L1143.7 1427.92L1166.06 1498.78L1245.88 1473.59L1223.52 1402.73L1096.02 998.666Z" fill="black"/><path id="Fill 46" fill-rule="evenodd" clip-rule="evenodd" d="M1245.91 1571.87C1245.82 1571.48 1245.71 1571.09 1245.58 1570.71C1242.62 1561.31 1232.56 1556.07 1223.16 1559.04C1213.76 1562 1208.53 1572.06 1211.49 1581.46C1211.61 1581.85 1211.75 1582.23 1211.9 1582.61L1192.36 1588.77L1141.79 1428.52L1130.31 1392.13L1213.98 1365.72L1225.46 1402.12L1261.77 1517.17C1261.93 1517.68 1262.29 1518.1 1262.76 1518.35C1263.23 1518.59 1263.77 1518.63 1264.28 1518.47C1264.29 1518.47 1264.44 1518.42 1264.44 1518.42C1265.77 1518 1277.82 1514.38 1291.19 1516.55C1307.77 1519.25 1319.22 1529.43 1325.27 1546.83L1245.91 1571.87Z" fill="white"/><path id="Fill 48" fill-rule="evenodd" clip-rule="evenodd" d="M1215.31 1363.29L1227.37 1401.52L1263.67 1516.56C1263.67 1516.56 1263.73 1516.55 1263.84 1516.51C1266.96 1515.52 1313.19 1501.81 1327.8 1548.13L1278.54 1563.68L1253.45 1571.59L1244.33 1574.47C1244.22 1573.42 1244.01 1572.36 1243.68 1571.31C1241.04 1562.95 1232.12 1558.31 1223.76 1560.95C1215.4 1563.58 1210.76 1572.5 1213.4 1580.86C1213.73 1581.91 1214.16 1582.9 1214.68 1583.83L1191.05 1591.28L1139.89 1429.12L1127.82 1390.89L1215.31 1363.29ZM1212.65 1368.16L1132.8 1393.36L1143.7 1427.92L1193.67 1586.26L1209.36 1581.31C1206.57 1571.08 1212.36 1560.35 1222.56 1557.13C1232.76 1553.91 1243.66 1559.38 1247.24 1569.36L1252.25 1567.78L1277.33 1559.86L1322.67 1545.56C1316.72 1530.08 1306.04 1520.99 1290.87 1518.53C1277.95 1516.43 1266.32 1519.92 1265.04 1520.33L1264.93 1520.36L1264.88 1520.38C1263.88 1520.69 1262.79 1520.6 1261.85 1520.12C1260.9 1519.64 1260.18 1518.79 1259.86 1517.77L1223.55 1402.72L1212.65 1368.16V1368.16Z" fill="black"/><path id="Stroke 50 (Stroke)" fill-rule="evenodd" clip-rule="evenodd" d="M1313.7 1528.9L1184.84 1569.57L1186.05 1573.38L1314.91 1532.72L1313.7 1528.9Z" fill="black"/><path id="Stroke 52 (Stroke)" fill-rule="evenodd" clip-rule="evenodd" d="M1242.13 1452.77C1232.05 1455.95 1226.47 1466.69 1229.64 1476.76C1232.82 1486.84 1243.56 1492.42 1253.64 1489.25L1252.43 1485.43C1244.47 1487.94 1235.97 1483.52 1233.46 1475.56L1233.46 1475.56C1230.95 1467.6 1235.37 1459.1 1243.33 1456.59L1242.13 1452.77Z" fill="black"/></g><g id="Group 3_2"><path id="Fill 38" fill-rule="evenodd" clip-rule="evenodd" d="M1076.31 865.806C1079.59 803.309 1022.78 749.53 949.42 745.685C876.064 741.841 813.942 789.387 810.666 851.884C807.391 914.381 864.203 968.161 937.559 972.006C1010.92 975.85 1073.04 928.303 1076.31 865.806" fill="black"/><path id="Fill 44" fill-rule="evenodd" clip-rule="evenodd" d="M1156.34 1018.96L987.18 1072.34L954.288 901.635C943.313 866.853 963.744 829.403 999.921 817.987C1036.1 806.571 1074.32 825.514 1085.3 860.296L1156.34 1018.96Z" fill="black"/></g></g><g id="Upper Body" transform="matrix(-0.99863 -0.052336 -0.052336 0.99863 1636.84 217.938) scale(1 1)"><g id="Upper Body/Holding Document"><g id="left"><g id="Group 2"><path id="Fill 1" fill-rule="evenodd" clip-rule="evenodd" d="M1067.19 244.801C956.308 253.648 975.118 222.591 974.214 336.867L1068.63 338.303C1069.09 306.792 1068.47 275.69 1067.19 244.801" fill="white"/><path id="Fill 3" fill-rule="evenodd" clip-rule="evenodd" d="M976.224 334.897L1066.66 336.272C1067.03 308.343 1066.57 279.081 1065.27 246.956C1042.57 248.692 1025.24 248.762 1012.49 248.813C994.42 248.886 984.464 248.926 979.977 253.532C974.998 258.641 975.264 270.705 975.794 294.74C976.03 305.465 976.322 318.711 976.224 334.897M1068.63 340.303C1068.62 340.303 1068.61 340.303 1068.6 340.302L974.18 338.866C973.081 338.85 972.202 337.949 972.21 336.851C972.345 319.819 972.04 305.962 971.795 294.828C971.223 268.89 970.962 257.052 977.112 250.74C982.77 244.933 992.698 244.893 1012.48 244.813C1025.55 244.76 1043.45 244.688 1067.03 242.807C1067.57 242.763 1068.1 242.943 1068.51 243.303C1068.92 243.664 1069.16 244.174 1069.18 244.718C1070.59 278.504 1071.06 309.126 1070.63 338.332C1070.62 338.863 1070.4 339.368 1070.02 339.738C1069.65 340.1 1069.15 340.303 1068.63 340.303" fill="black"/><path id="Fill 5" fill-rule="evenodd" clip-rule="evenodd" d="M996.664 253.417C996.088 238.756 995.36 224.094 994.523 209.433C993.333 191.028 969.95 192.484 970.957 210.806C971.988 228.607 972.825 246.392 973.417 264.14" fill="white"/><path id="Fill 7" fill-rule="evenodd" clip-rule="evenodd" d="M973.416 266.141C972.342 266.141 971.454 265.289 971.418 264.208C970.853 247.244 970.026 229.317 968.96 210.922C968.392 200.579 974.99 194.758 981.802 194.351C990.795 193.821 996.013 201.467 996.52 209.305C997.414 224.978 998.114 239.377 998.663 253.339C998.706 254.443 997.846 255.373 996.743 255.416C995.631 255.457 994.709 254.6 994.666 253.496C994.119 239.558 993.419 225.182 992.527 209.548C992.004 201.455 986.722 198.068 982.041 198.344C977.353 198.624 972.51 202.61 972.954 210.697C974.021 229.118 974.849 247.079 975.416 264.074C975.453 265.178 974.588 266.103 973.484 266.14C973.461 266.141 973.438 266.141 973.416 266.141" fill="black"/><path id="Fill 9" fill-rule="evenodd" clip-rule="evenodd" d="M996.665 253.417C996.089 238.756 995.361 224.094 994.524 209.433C994.05 201.654 998.933 195.007 1005.44 194.586C1011.94 194.165 1017.61 200.197 1018.09 208.061C1018.94 222.864 1019.67 237.679 1020.25 252.51" fill="white"/><path id="Fill 11" fill-rule="evenodd" clip-rule="evenodd" d="M996.663 255.417C995.595 255.417 994.708 254.573 994.666 253.495C994.119 239.557 993.419 225.181 992.527 209.547C991.987 200.692 997.72 193.082 1005.31 192.59C1008.58 192.379 1011.83 193.541 1014.47 195.865C1017.75 198.756 1019.8 203.157 1020.09 207.939C1020.99 223.77 1021.7 238.321 1022.25 252.432C1022.3 253.536 1021.44 254.465 1020.33 254.509C1019.23 254.542 1018.3 253.693 1018.26 252.589C1017.7 238.502 1017 223.974 1016.09 208.175C1015.87 204.454 1014.31 201.058 1011.82 198.866C1009.97 197.227 1007.8 196.437 1005.57 196.582C1000.17 196.931 996.113 202.642 996.52 209.311C997.414 224.977 998.115 239.376 998.663 253.339C998.706 254.442 997.847 255.372 996.743 255.416C996.716 255.417 996.689 255.417 996.663 255.417" fill="black"/><path id="Fill 13" fill-rule="evenodd" clip-rule="evenodd" d="M1020.25 252.511C1019.67 237.679 1018.94 222.865 1018.09 208.062C1017.61 200.211 1022.49 193.506 1029 193.084C1035.5 192.663 1041.17 198.754 1041.66 206.689C1042.51 221.634 1043.25 236.602 1043.84 251.604" fill="white"/><path id="Fill 15" fill-rule="evenodd" clip-rule="evenodd" d="M1020.25 254.511C1019.18 254.511 1018.3 253.667 1018.26 252.589C1017.7 238.502 1017 223.975 1016.09 208.176C1015.55 199.249 1021.28 191.581 1028.87 191.088C1032.12 190.879 1035.36 192.039 1037.99 194.356C1041.29 197.271 1043.36 201.722 1043.65 206.568C1044.57 222.566 1045.28 237.269 1045.84 251.526C1045.88 252.63 1045.03 253.559 1043.92 253.603C1042.81 253.642 1041.89 252.786 1041.84 251.683C1041.29 237.45 1040.57 222.77 1039.66 206.803C1039.43 203.019 1037.86 199.573 1035.34 197.356C1033.49 195.724 1031.34 194.939 1029.13 195.08C1023.73 195.43 1019.68 201.199 1020.09 207.94C1020.99 223.771 1021.7 238.322 1022.25 252.433C1022.3 253.536 1021.44 254.466 1020.33 254.51C1020.31 254.511 1020.28 254.511 1020.25 254.511" fill="black"/><path id="Fill 17" fill-rule="evenodd" clip-rule="evenodd" d="M984.485 335.062C954.696 336.602 946.727 324.227 948.767 296.084C946.983 276.52 949.005 256.444 973.318 254.314C976.892 261.242 980.497 268.209 983.999 275.204" fill="white"/><path id="Fill 19" fill-rule="evenodd" clip-rule="evenodd" d="M974.213 336.867C963.771 336.708 950.378 336.349 950.378 336.349C950.788 325.312 950.797 307.514 950.594 296.057C948.933 277.616 950.488 256.156 973.076 254.325C973.318 261.379 973.591 268.438 973.76 275.482" fill="white"/><path id="Fill 21" fill-rule="evenodd" clip-rule="evenodd" d="M974.214 338.867C974.204 338.867 974.193 338.867 974.183 338.867C963.849 338.709 950.459 338.352 950.325 338.349C949.791 338.335 949.285 338.107 948.92 337.718C948.554 337.328 948.36 336.809 948.38 336.275C948.787 325.321 948.795 307.455 948.596 296.165C947.633 285.425 947.288 270.094 955.247 260.646C959.375 255.744 965.32 252.947 972.915 252.331C973.459 252.286 973.999 252.468 974.407 252.831C974.815 253.195 975.056 253.71 975.075 254.256L975.244 259.086C975.433 264.445 975.629 269.987 975.76 275.434C975.786 276.538 974.912 277.455 973.808 277.481C972.702 277.505 971.787 276.634 971.761 275.53C971.631 270.106 971.435 264.575 971.246 259.227L971.153 256.553C965.61 257.364 961.394 259.557 958.306 263.222C951.292 271.549 951.683 285.847 952.587 295.878C952.591 295.926 952.593 295.974 952.594 296.022C952.783 306.694 952.788 323.277 952.445 334.402C956.583 334.508 966.317 334.746 974.244 334.867C975.348 334.884 976.23 335.793 976.213 336.898C976.196 337.992 975.304 338.867 974.214 338.867" fill="black"/><path id="Fill 23" fill-rule="evenodd" clip-rule="evenodd" d="M973.836 278.297C973.643 270.374 973.365 262.438 973.083 254.502C972.265 236.307 948.857 237.336 949.493 255.407C950.162 272.955 950.598 290.444 950.727 307.825" fill="white"/><path id="Fill 25" fill-rule="evenodd" clip-rule="evenodd" d="M950.726 309.825C949.628 309.825 948.735 308.939 948.726 307.84C948.605 291.341 948.19 273.725 947.494 255.483C947.134 245.254 953.852 239.629 960.675 239.356C969.67 238.991 974.732 246.657 975.08 254.412C975.382 262.885 975.647 270.512 975.835 278.249C975.862 279.353 974.989 280.27 973.884 280.297C972.773 280.313 971.863 279.45 971.836 278.346C971.648 270.631 971.384 263.015 971.084 254.573C970.725 246.602 965.517 243.159 960.835 243.353C956.138 243.541 951.211 247.371 951.491 255.336C952.189 273.614 952.604 291.27 952.726 307.81C952.734 308.915 951.846 309.817 950.741 309.825H950.726Z" fill="black"/><path id="Fill 27" fill-rule="evenodd" clip-rule="evenodd" d="M1043.84 251.604C1045.46 237.979 1034.35 204.345 1053.18 201.749C1072.53 202.306 1064.78 237.175 1067.43 250.698" fill="white"/><path id="Fill 29" fill-rule="evenodd" clip-rule="evenodd" d="M1043.84 253.604C1043.77 253.604 1043.69 253.599 1043.61 253.59C1042.51 253.459 1041.73 252.465 1041.86 251.368C1042.29 247.706 1041.72 242.246 1041.12 236.466C1039.52 221.061 1037.53 201.888 1052.91 199.768C1053.02 199.753 1053.13 199.747 1053.24 199.75C1069.22 200.21 1069 219.966 1068.82 235.839C1068.76 241.469 1068.7 246.787 1069.39 250.312C1069.61 251.396 1068.9 252.448 1067.82 252.66C1066.73 252.871 1065.68 252.166 1065.47 251.083C1064.7 247.154 1064.76 241.636 1064.82 235.795C1065.02 217.924 1064.29 204.208 1053.29 203.754C1042.76 205.343 1043.3 218.73 1045.1 236.053C1045.73 242.061 1046.32 247.735 1045.83 251.84C1045.71 252.856 1044.84 253.604 1043.84 253.604" fill="black"/></g><g id="Group"><path id="Fill 63" fill-rule="evenodd" clip-rule="evenodd" d="M968.477 295.511H1080.73V111H968.477V295.511Z" fill="white"/><path id="Fill 64" fill-rule="evenodd" clip-rule="evenodd" d="M970.477 293.511H1078.73V113H970.477V293.511ZM966.477 297.511H1082.73V109H966.477V297.511Z" fill="black"/><path id="Fill 66" fill-rule="evenodd" clip-rule="evenodd" d="M988.32 144.861H1060.89V140.861H988.32V144.861Z" fill="black"/><path id="Fill 68" fill-rule="evenodd" clip-rule="evenodd" d="M988.32 161.869H1060.89V157.869H988.32V161.869Z" fill="black"/><path id="Fill 70" fill-rule="evenodd" clip-rule="evenodd" d="M988.32 178.877H1060.89V174.877H988.32V178.877Z" fill="black"/><path id="Fill 72" fill-rule="evenodd" clip-rule="evenodd" d="M988.32 195.885H1060.89V191.885H988.32V195.885Z" fill="black"/><path id="Fill 74" fill-rule="evenodd" clip-rule="evenodd" d="M988.32 212.893H1060.89V208.893H988.32V212.893Z" fill="black"/><path id="Fill 76" fill-rule="evenodd" clip-rule="evenodd" d="M988.32 229.901H1060.89V225.901H988.32V229.901Z" fill="black"/><path id="Fill 78" fill-rule="evenodd" clip-rule="evenodd" d="M988.32 246.909H1060.89V242.909H988.32V246.909Z" fill="black"/><path id="Fill 80" fill-rule="evenodd" clip-rule="evenodd" d="M988.32 263.916H1060.89V259.916H988.32V263.916Z" fill="black"/></g><path id="Fill 31" fill-rule="evenodd" clip-rule="evenodd" d="M938.279 334.436C937.172 380.431 935.798 425.721 922.937 468.879C891.883 443.895 832.597 346.529 757.178 346.183C681.76 345.838 716.927 442.624 728.458 459.118C747.748 486.614 767.825 512.788 791.032 537.916C831.164 581.352 886.156 625.853 949.079 617.739C1072.34 597.116 1076.15 434.417 1079.22 336.348L938.279 334.436Z" fill="black"/></g><g id="torso"><path id="Fill 33" fill-rule="evenodd" clip-rule="evenodd" d="M809.85 691.074H514.111C504.448 691.074 496.277 683.92 495 674.341L510.307 406.597C506.03 374.515 520.989 346.009 553.354 346.009H756.779C798.71 346.32 831.762 383.845 828.304 425.569L828.395 670.717C829.415 681.64 820.821 691.074 809.85 691.074Z" fill="#ff830f"/><path id="Fill 35" fill-rule="evenodd" clip-rule="evenodd" d="M741.335 346.008C717.12 244.035 537.081 316.125 653.996 401.242C656.094 402.948 659.142 402.782 661.056 400.869L674.921 387.003L688.741 373.183C695.359 379.614 708.968 392.829 715.63 399.304C725.825 409.815 742.156 358.983 741.335 346.008" fill="#ff830f"/><path id="Fill 37" fill-rule="evenodd" clip-rule="evenodd" d="M683.697 408.17L669.496 393.97L689.252 374.214L709.007 393.97L694.767 408.21L708.637 450.278L741.337 346.008H615.234L678.196 450.999C678.213 450.925 683.664 408.234 683.697 408.17" fill="#ff830f"/><path id="Fill 39" fill-rule="evenodd" clip-rule="evenodd" d="M711.383 577.757L694.766 408.21L709.007 393.97L689.251 374.215L669.496 393.97L683.696 408.17C683.675 408.152 660.951 578.464 660.941 578.478C690.532 614.533 684.489 620.622 711.383 577.757" fill="black"/><path id="Fill 41" fill-rule="evenodd" clip-rule="evenodd" d="M658.323 403.351C656.558 403.351 654.459 402.709 652.034 401.431C636.906 393.459 611.333 361.749 613.75 345.784C613.874 344.965 614.639 344.402 615.457 344.525C616.277 344.649 616.84 345.414 616.716 346.233C615.75 352.613 620.288 363.372 628.856 375.013C636.632 385.578 646.509 395.128 653.432 398.777C655.263 399.741 658.555 401.154 660.033 399.774C663.811 395.99 669.771 390.031 675.503 384.301L687.681 372.122C688.261 371.542 689.2 371.535 689.788 372.107L716.677 398.228C717.677 399.258 718.581 399.466 719.734 398.956C728.404 395.119 740.568 357.625 739.839 346.103C739.787 345.276 740.414 344.564 741.241 344.511C742.068 344.461 742.781 345.087 742.833 345.913C743.573 357.605 731.372 397.087 720.948 401.7C718.655 402.715 716.384 402.235 714.555 400.348L688.758 375.289L677.624 386.423C671.893 392.152 665.933 398.111 662.118 401.931C661.103 402.879 659.836 403.351 658.323 403.351" fill="black"/><path id="Fill 43" fill-rule="evenodd" clip-rule="evenodd" d="M723.898 443.312C724.245 452.654 723.987 461.008 723.758 468.425C723.255 484.729 722.891 496.51 729.708 503.077C736.305 509.433 749.668 511.425 774.389 509.738L774.466 509.735C780.928 509.624 785.785 507.738 789.314 503.969C797.807 494.898 796.919 476.724 796.136 460.69C795.824 454.292 795.527 448.211 795.897 443.312H723.898ZM759.621 513.299C743.218 513.299 733.334 510.736 727.627 505.238C719.851 497.747 720.232 485.409 720.76 468.333C721 460.556 721.272 451.742 720.837 441.878L720.768 440.312H799.23L799.036 441.985C798.466 446.891 798.79 453.522 799.133 460.543C799.945 477.173 800.865 496.021 791.504 506.019C787.455 510.344 781.753 512.603 774.556 512.733C769.061 513.108 764.097 513.299 759.621 513.299V513.299Z" fill="black"/><path id="Fill 45" fill-rule="evenodd" clip-rule="evenodd" d="M686.66 691.073H689.66V608.967H686.66V691.073Z" fill="black"/></g><g id="right"><g id="Group 3"><path id="Fill 47" fill-rule="evenodd" clip-rule="evenodd" d="M817.426 613.911C768.445 514.042 804.244 520.123 697.633 561.281L730.998 649.617C760.474 638.468 789.17 626.456 817.426 613.911" fill="white"/><path id="Fill 48" fill-rule="evenodd" clip-rule="evenodd" d="M700.205 562.429L732.162 647.036C758.278 637.115 785.326 625.939 814.719 612.923C804.76 592.445 798.328 576.361 793.594 564.521C786.884 547.74 783.187 538.496 777.255 536.015C770.674 533.264 759.552 537.944 737.396 547.269C727.507 551.431 715.295 556.571 700.205 562.429M730.998 651.616C730.717 651.616 730.437 651.557 730.175 651.439C729.692 651.22 729.315 650.819 729.127 650.323L695.762 561.987C695.374 560.959 695.888 559.81 696.913 559.414C712.803 553.28 725.579 547.903 735.844 543.583C759.755 533.519 770.668 528.927 778.798 532.325C786.278 535.452 789.964 544.671 797.308 563.036C802.161 575.173 808.808 591.796 819.222 613.03C819.462 613.518 819.492 614.082 819.306 614.593C819.121 615.104 818.735 615.518 818.238 615.738C787.337 629.458 759.032 641.151 731.706 651.487C731.478 651.573 731.238 651.616 730.998 651.616" fill="black"/><path id="Fill 49" fill-rule="evenodd" clip-rule="evenodd" d="M783.494 551.491C796.917 545.568 810.285 539.501 823.613 533.335C840.293 525.464 830.343 504.252 813.674 511.922C797.498 519.424 781.266 526.739 764.977 533.812" fill="white"/><path id="Fill 50" fill-rule="evenodd" clip-rule="evenodd" d="M783.495 553.492C782.727 553.492 781.994 553.047 781.664 552.299C781.218 551.288 781.676 550.108 782.686 549.662C795.441 544.033 808.554 538.099 822.773 531.52C830.107 528.059 831.32 521.903 829.339 517.651C827.355 513.394 821.868 510.354 814.51 513.739C797.781 521.498 781.382 528.869 765.774 535.647C764.761 536.086 763.583 535.623 763.143 534.609C762.703 533.596 763.167 532.418 764.181 531.978C779.758 525.213 796.127 517.855 812.833 510.108C822.243 505.779 830.082 509.776 832.964 515.961C836.769 524.127 831.57 531.792 824.467 535.144C810.211 541.74 797.078 547.683 784.301 553.321C784.039 553.437 783.765 553.492 783.495 553.492" fill="black"/><path id="Fill 51" fill-rule="evenodd" clip-rule="evenodd" d="M783.496 551.491C796.919 545.568 810.287 539.501 823.615 533.335C830.675 530.035 838.652 532.133 841.434 538.029C844.217 543.924 840.69 551.412 833.553 554.748C820.096 560.974 806.588 567.104 793.009 573.096" fill="white"/><path id="Fill 52" fill-rule="evenodd" clip-rule="evenodd" d="M793.011 575.097C792.243 575.097 791.51 574.652 791.18 573.904C790.734 572.893 791.192 571.713 792.202 571.267C805.09 565.58 818.342 559.583 832.714 552.934C836.09 551.355 838.676 548.66 839.802 545.541C840.643 543.21 840.582 540.908 839.627 538.883C837.319 533.993 830.516 532.317 824.463 535.147C810.214 541.74 797.081 547.683 784.304 553.321C783.294 553.767 782.113 553.309 781.667 552.299C781.221 551.288 781.679 550.108 782.689 549.662C795.444 544.033 808.556 538.099 822.776 531.52C830.813 527.763 839.998 530.299 843.244 537.176C844.643 540.14 844.757 543.594 843.564 546.899C842.081 551.011 838.741 554.532 834.4 556.561C820 563.223 806.727 569.23 793.817 574.926C793.555 575.042 793.281 575.097 793.011 575.097" fill="black"/><path id="Fill 53" fill-rule="evenodd" clip-rule="evenodd" d="M793.008 573.096C806.587 567.104 820.095 560.974 833.551 554.748C840.677 551.418 848.706 553.492 851.489 559.387C854.271 565.281 850.692 572.795 843.489 576.161C829.904 582.447 816.257 588.64 802.521 594.701" fill="white"/><path id="Fill 54" fill-rule="evenodd" clip-rule="evenodd" d="M802.522 596.702C801.754 596.702 801.021 596.257 800.691 595.509C800.245 594.498 800.703 593.318 801.714 592.872C814.75 587.119 828.141 581.059 842.649 574.346C846.084 572.741 848.71 570.01 849.848 566.858C850.686 564.536 850.628 562.248 849.681 560.241C847.372 555.352 840.517 553.701 834.399 556.56C819.998 563.223 806.725 569.229 793.816 574.926C792.805 575.371 791.624 574.914 791.178 573.903C790.733 572.893 791.19 571.712 792.201 571.266C805.089 565.579 818.34 559.582 832.712 552.933C840.814 549.147 850.052 551.657 853.298 558.533C854.689 561.481 854.8 564.919 853.611 568.215C852.115 572.361 848.734 575.918 844.336 577.973C829.798 584.7 816.387 590.769 803.328 596.531C803.066 596.647 802.792 596.702 802.522 596.702" fill="black"/><path id="Fill 55" fill-rule="evenodd" clip-rule="evenodd" d="M703.089 570.171C690.709 543.033 699.289 531.072 726.212 522.627C743.752 513.778 763.165 508.28 774.082 530.108C768.951 535.978 763.797 541.892 758.579 547.719" fill="white"/><path id="Fill 56" fill-rule="evenodd" clip-rule="evenodd" d="M697.633 561.281C693.944 551.511 689.355 538.924 689.355 538.924C699.753 535.248 716.339 528.717 726.906 524.317C743.439 515.995 763.979 509.552 773.981 529.886C767.509 532.705 761.044 535.553 754.556 538.299" fill="white"/><path id="Fill 57" fill-rule="evenodd" clip-rule="evenodd" d="M697.634 563.281C696.826 563.281 696.065 562.788 695.763 561.987C692.112 552.318 687.522 539.735 687.476 539.609C687.293 539.107 687.319 538.553 687.546 538.071C687.774 537.588 688.185 537.216 688.689 537.038C699.269 533.297 715.826 526.762 726.072 522.497C735.705 517.654 749.834 511.698 761.551 515.629C767.628 517.667 772.414 522.167 775.776 529.003C776.018 529.494 776.048 530.062 775.86 530.574C775.671 531.088 775.281 531.501 774.78 531.72L770.354 533.651C765.438 535.797 760.355 538.017 755.336 540.14C754.319 540.571 753.145 540.095 752.715 539.078C752.284 538.061 752.76 536.887 753.777 536.457C758.775 534.342 763.848 532.127 768.753 529.985L771.203 528.916C768.412 524.06 764.824 520.946 760.279 519.421C752.42 516.785 742.101 518.908 727.806 526.103C727.763 526.124 727.72 526.144 727.675 526.162C717.979 530.2 702.596 536.284 691.926 540.129C693.348 544.016 696.704 553.157 699.505 560.574C699.895 561.607 699.374 562.761 698.34 563.152C698.108 563.239 697.869 563.281 697.634 563.281" fill="black"/><path id="Fill 58" fill-rule="evenodd" clip-rule="evenodd" d="M751.967 539.405C759.264 536.314 766.543 533.139 773.821 529.959C790.442 522.511 780.88 501.12 764.309 508.353C748.235 515.425 732.13 522.258 716.012 528.765" fill="white"/><path id="Fill 59" fill-rule="evenodd" clip-rule="evenodd" d="M751.968 541.405C751.189 541.405 750.448 540.947 750.125 540.185C749.695 539.167 750.17 537.994 751.187 537.563C758.306 534.548 765.286 531.505 773.02 528.125C780.301 524.863 781.585 518.759 779.688 514.471C777.787 510.172 772.413 506.997 765.109 510.186C748.364 517.552 732.096 524.428 716.761 530.619C715.737 531.033 714.572 530.538 714.158 529.514C713.744 528.489 714.239 527.324 715.264 526.91C730.56 520.734 746.791 513.875 763.503 506.522C772.884 502.427 780.585 506.608 783.346 512.853C786.988 521.087 781.722 528.609 774.638 531.783C766.877 535.175 759.885 538.223 752.747 541.246C752.493 541.354 752.228 541.405 751.968 541.405" fill="black"/><path id="Fill 60" fill-rule="evenodd" clip-rule="evenodd" d="M802.52 594.702C815.787 591.199 842.984 568.507 852.317 585.063C859.072 603.049 823.548 608.986 812.033 616.307" fill="white"/><path id="Fill 61" fill-rule="evenodd" clip-rule="evenodd" d="M812.034 618.307C811.373 618.307 810.725 617.979 810.344 617.38C809.752 616.448 810.027 615.212 810.959 614.619C814.269 612.515 819.36 610.558 824.749 608.486C841.617 602.002 854.231 596.216 850.498 585.91C845.155 576.69 832.899 582.113 817.445 590.157C812.087 592.946 807.027 595.58 803.03 596.635C801.962 596.917 800.868 596.28 800.586 595.212C800.304 594.144 800.941 593.049 802.009 592.767C805.575 591.826 810.444 589.292 815.598 586.609C829.337 579.458 846.436 570.558 854.059 584.08C854.109 584.17 854.153 584.263 854.189 584.359C859.799 599.298 841.161 606.463 826.185 612.219C820.987 614.218 816.077 616.105 813.105 617.995C812.773 618.206 812.401 618.307 812.034 618.307" fill="black"/></g><path id="Fill 62" fill-rule="evenodd" clip-rule="evenodd" d="M736.71 658.748L686.689 526.968C643.507 542.844 600.88 558.21 556.016 562.112C563.561 537.016 575.837 513.876 589.194 490.669C596.062 478.891 603.454 467.106 611.177 455.425C631.017 424.84 620.395 384.238 591.703 361.553V361.553C560.707 336.949 515.539 344.35 493.618 377.656C475.136 405.703 458.173 433.992 443.332 464.811C423.608 506.27 406.544 554.309 413.639 600.874C420.085 651.723 462.571 691.924 512.615 699.93C588.958 712.595 666.71 683.889 736.71 658.748" fill="black"/></g></g></g><g id="Hairstyle" transform="matrix(-0.99863 -0.052336 -0.052336 0.99863 1008.05 331.185) scale(1 1)"><g id="Hairstyle/Low Bun Fringe"><g id="hair"><g id="Group 3"><path id="Fill 1" fill-rule="evenodd" clip-rule="evenodd" d="M51.873 144.675C51.873 159.275 40.037 171.111 25.437 171.111C10.836 171.111 -1 159.275 -1 144.675C-1 130.075 10.836 118.239 25.437 118.239C40.037 118.239 51.873 130.075 51.873 144.675" fill="black"/></g><g id="Group 6"><path id="Fill 4" fill-rule="evenodd" clip-rule="evenodd" d="M129.421 97.1319C129.421 127.58 102.304 152.264 68.8522 152.264C35.4012 152.264 8.28418 127.58 8.28418 97.1319C8.28418 66.6839 35.4012 41.9999 68.8522 41.9999C102.304 41.9999 129.421 66.6839 129.421 97.1319" fill="black"/></g></g><g id="head"><path id="Fill 7" fill-rule="evenodd" clip-rule="evenodd" d="M65.4174 206.168V206.168C46.4604 206.168 28.9834 191.63 28.9834 174.273L45.0934 114.61C45.0934 97.253 40.4604 83.182 59.4174 83.182H79.4174C98.3744 83.182 93.7414 97.253 93.7414 114.61V174.74C93.7414 192.097 84.3744 206.168 65.4174 206.168" fill="white"/><path id="Fill 9" fill-rule="evenodd" clip-rule="evenodd" d="M30.9854 174.533C31.1584 190.35 47.1744 204.168 65.4184 204.168C84.8274 204.168 91.7424 188.967 91.7424 174.74V114.61C91.7424 111.562 91.8804 108.666 92.0144 105.865C92.3814 98.158 92.6994 91.503 89.5194 88.168C87.6034 86.159 84.2994 85.182 79.4184 85.182H59.4184C54.5374 85.182 51.2334 86.159 49.3174 88.168C46.1374 91.503 46.4544 98.158 46.8224 105.865C46.9554 108.666 47.0944 111.562 47.0944 114.61V114.876L30.9854 174.533ZM65.4184 208.168C44.9434 208.168 26.9844 192.329 26.9844 174.273V174.008L43.0934 114.346C43.0864 111.488 42.9544 108.727 42.8274 106.055C42.4154 97.431 42.0604 89.983 46.4224 85.408C49.1334 82.564 53.3844 81.182 59.4184 81.182H79.4184C85.4524 81.182 89.7034 82.564 92.4144 85.408C96.7764 89.983 96.4214 97.431 96.0094 106.055C95.8784 108.81 95.7424 111.658 95.7424 114.61V174.74C95.7424 195.047 83.8394 208.168 65.4184 208.168V208.168Z" fill="black"/><path id="Fill 11" fill-rule="evenodd" clip-rule="evenodd" d="M131.754 106.673C131.754 115.086 124.934 121.906 116.521 121.906C108.108 121.906 101.288 115.086 101.288 106.673C101.288 98.2599 108.108 91.4399 116.521 91.4399C124.934 91.4399 131.754 98.2599 131.754 106.673" fill="white"/><path id="Fill 13" fill-rule="evenodd" clip-rule="evenodd" d="M116.521 93.44C109.224 93.44 103.288 99.376 103.288 106.673C103.288 113.97 109.224 119.906 116.521 119.906C123.818 119.906 129.754 113.97 129.754 106.673C129.754 99.376 123.818 93.44 116.521 93.44M116.521 123.906C107.019 123.906 99.2881 116.175 99.2881 106.673C99.2881 97.171 107.019 89.44 116.521 89.44C126.023 89.44 133.754 97.171 133.754 106.673C133.754 116.175 126.023 123.906 116.521 123.906" fill="black"/><path id="Fill 15" fill-rule="evenodd" clip-rule="evenodd" d="M77.0169 154.1C59.5499 154.1 43.7879 143.74 36.8609 127.708L36.2099 126.203C26.6489 104.072 36.8749 78.2879 59.0059 68.7259C64.5289 66.3399 70.3569 65.1299 76.3259 65.1299C93.7929 65.1299 109.556 75.4899 116.482 91.5219L117.133 93.0269C121.765 103.748 121.944 115.631 117.639 126.486C113.333 137.342 105.058 145.872 94.3369 150.504C88.8139 152.89 82.9859 154.1 77.0169 154.1" fill="white"/><path id="Fill 17" fill-rule="evenodd" clip-rule="evenodd" d="M76.3274 63.1299H76.3264C70.0824 63.1299 63.9884 64.3959 58.2124 66.8909C47.0014 71.7339 38.3484 80.6539 33.8454 92.0059C29.3424 103.359 29.5304 115.785 34.3744 126.996L35.0244 128.501C42.2684 145.267 58.7514 156.1 77.0174 156.1C83.2604 156.1 89.3544 154.835 95.1304 152.339C106.341 147.496 114.995 138.576 119.497 127.224C124 115.871 123.812 103.445 118.968 92.2339L118.318 90.7289C111.075 73.9629 94.5924 63.1299 76.3274 63.1299M76.3264 67.1299C92.4694 67.1299 107.837 76.5539 114.646 92.3159L115.296 93.8199C124.435 114.973 114.696 139.529 93.5444 148.668C88.1524 150.997 82.5394 152.1 77.0174 152.1C60.8744 152.1 45.5064 142.676 38.6964 126.915L38.0464 125.41C28.9074 104.257 38.6464 79.7009 59.7994 70.5629C65.1904 68.2329 70.8044 67.1299 76.3264 67.1299" fill="black"/><path id="Fill 19" fill-rule="evenodd" clip-rule="evenodd" d="M36.065 121.906C27.652 121.906 20.832 115.086 20.832 106.673C20.832 98.2598 27.652 91.4398 36.065 91.4398C37.117 91.4398 38.143 91.5468 39.135 91.7498" fill="white"/><path id="Fill 21" fill-rule="evenodd" clip-rule="evenodd" d="M36.065 123.906C26.563 123.906 18.832 116.175 18.832 106.673C18.832 97.1708 26.563 89.4398 36.065 89.4398C37.232 89.4398 38.4 89.5578 39.536 89.7898C40.618 90.0118 41.316 91.0678 41.094 92.1508C40.873 93.2318 39.815 93.9298 38.734 93.7088C37.861 93.5308 36.963 93.4398 36.065 93.4398C28.768 93.4398 22.832 99.3758 22.832 106.673C22.832 113.97 28.768 119.906 36.065 119.906C37.169 119.906 38.065 120.802 38.065 121.906C38.065 123.01 37.169 123.906 36.065 123.906" fill="black"/></g><g id="hair_2"><path id="Fill 23" fill-rule="evenodd" clip-rule="evenodd" d="M131.621 83.1824H80.2206C61.4906 83.1824 46.3066 67.9984 46.3066 49.2674C46.3066 45.2544 61.2796 42.0004 65.2936 42.0004H97.7056C116.437 42.0004 131.621 57.1844 131.621 75.9154V83.1824Z" fill="black"/></g><circle id="Oval" cx="46" cy="82" r="14" fill="black"/><path id="Fill 9" fill-rule="evenodd" clip-rule="evenodd" d="M83.1474 123.992H90.7084C92.7934 123.992 94.3374 120.961 93.8714 117.782L90.6874 96.0426C89.9484 90.9976 85.4234 90.7156 84.4294 95.6516L80.0524 117.391C79.3944 120.662 80.9554 123.992 83.1474 123.992" fill="#ff830f"/></g></g><g id="Face" transform="matrix(-0.99863 -0.052336 -0.052336 0.99863 983.371 420.015) scale(122 129)"><g id="Face/None" stroke="none" stroke-width="1" fill="none" fill-rule="evenodd" fill-opacity="0"/></g><g id="Expression" transform="matrix(-0.99863 -0.052336 -0.052336 0.99863 955.881 409.562) scale(1 1)"><g id="Expression/Happy"><path id="Fill 1" fill-rule="evenodd" clip-rule="evenodd" d="M37.0177 54.3827C31.7907 54.3827 26.5648 52.3937 22.5857 48.4137C21.8047 47.6327 21.8047 46.3668 22.5857 45.5857C23.3668 44.8047 24.6327 44.8047 25.4137 45.5857C31.8117 51.9837 42.2238 51.9837 48.6217 45.5857C49.4027 44.8047 50.6688 44.8047 51.4498 45.5857C52.2318 46.3668 52.2318 47.6327 51.4498 48.4137C47.4718 52.3928 42.2437 54.3827 37.0177 54.3827" fill="black"/><path id="Fill 3" fill-rule="evenodd" clip-rule="evenodd" d="M25.1309 19.3419C22.5579 19.5899 20.2699 17.7049 20.0219 15.1319C19.7739 12.5579 21.6589 10.2709 24.2319 10.0219C26.8059 9.77392 29.0929 11.6589 29.3409 14.2329C29.5899 16.8059 27.7049 19.0939 25.1309 19.3419" fill="black"/><path id="Fill 6" fill-rule="evenodd" clip-rule="evenodd" d="M50.551 19.3419C47.977 19.5899 45.69 17.7049 45.442 15.1319C45.193 12.5579 47.079 10.2709 49.652 10.0219C52.226 9.77392 54.513 11.6589 54.761 14.2329C55.01 16.8059 53.124 19.0939 50.551 19.3419" fill="black"/></g></g><g id="Glasses" transform="matrix(-0.99863 -0.052336 -0.052336 0.99863 975.535 397.574) scale(105 93)"><g id="Glasses/No Items" stroke="none" stroke-width="1" fill="none" fill-rule="evenodd" fill-opacity="0"/></g></g><g id="Emojis" transform="matrix(-1 0 0 1 859 201) scale(1 1)"><g id="Emojis/Heart"><g id="Box"><path id="Combined Shape" fill-rule="evenodd" clip-rule="evenodd" d="M220 27H21C13.268 27 7 33.268 7 41V251.823C7 254.627 10.5032 255.898 12.3015 253.748L44.289 215.493L220 215.493C227.628 215.493 233.83 209.393 233.997 201.806L234 201.493V41C234 33.268 227.732 27 220 27ZM20.7508 33.0038L21 33H220C224.418 33 228 36.5817 228 41V201.493C228 205.911 224.418 209.493 220 209.493H42.8869C41.9983 209.493 41.1555 209.887 40.5855 210.569L13 243.559V41C13 36.6651 16.4478 33.1355 20.7508 33.0038Z" fill="black"/><path id="Path" d="M21 27H220C227.732 27 234 33.268 234 41V201.493L233.997 201.806C233.83 209.393 227.628 215.493 220 215.493L44.289 215.493L12.3015 253.748C10.5032 255.898 7 254.627 7 251.823V41C7 33.268 13.268 27 21 27Z" fill="white"/><path id="Combined Shape Copy" fill-rule="evenodd" clip-rule="evenodd" d="M220 27H21C13.268 27 7 33.268 7 41V251.823C7 254.627 10.5032 255.898 12.3015 253.748L44.289 215.493L220 215.493C227.628 215.493 233.83 209.393 233.997 201.806L234 201.493V41C234 33.268 227.732 27 220 27ZM20.7508 33.0038L21 33H220C224.418 33 228 36.5817 228 41V201.493C228 205.911 224.418 209.493 220 209.493H42.8869C41.9983 209.493 41.1555 209.887 40.5855 210.569L13 243.559V41C13 36.6651 16.4478 33.1355 20.7508 33.0038Z" fill="black"/><path id="Combined Shape Copy 2" fill-rule="evenodd" clip-rule="evenodd" d="M220 27H21C13.268 27 7 33.268 7 41V251.823C7 254.627 10.5032 255.898 12.3015 253.748L44.289 215.493L220 215.493C227.628 215.493 233.83 209.393 233.997 201.806L234 201.493V41C234 33.268 227.732 27 220 27ZM20.7508 33.0038L21 33H220C224.418 33 228 36.5817 228 41V201.493C228 205.911 224.418 209.493 220 209.493H42.8869C41.9983 209.493 41.1555 209.887 40.5855 210.569L13 243.559V41C13 36.6651 16.4478 33.1355 20.7508 33.0038Z" fill="black"/></g><path id="Heart" fill-rule="evenodd" clip-rule="evenodd" d="M119.5 104.061V176.647L71.3941 135.757C63.5314 129.074 59 119.275 59 108.956V104.061C59 87.4258 72.4316 73.9123 89.0661 73.8112C105.844 73.7092 119.5 87.2822 119.5 104.061ZM89.0601 72.8112C106.393 72.7059 120.5 86.7275 120.5 104.061C120.5 86.7275 134.607 72.7059 151.94 72.8112C169.124 72.9157 183 86.8759 183 104.061V108.956C183 119.569 178.34 129.646 170.254 136.519L120.5 178.809L70.7464 136.519C62.6602 129.646 58 119.569 58 108.956V104.061C58 86.8759 71.8756 72.9157 89.0601 72.8112ZM121.5 104.061V176.647L169.606 135.757C177.469 129.074 182 119.275 182 108.956V104.061C182 87.4258 168.568 73.9123 151.934 73.8112C135.156 73.7092 121.5 87.2822 121.5 104.061Z" fill="black"/></g></g></g></svg>