<svg viewBox="300 250 399.9999999999998 549.9999999999999" fill="none" xmlns="http://www.w3.org/2000/svg" xmlns:xlink="http://www.w3.org/1999/xlink" overflow="visible" width="399.9999999999998px" height="549.9999999999999px"><g id="Master/Stickers/Lamp"><g id="Lamp"><path id="Fill 83" fill-rule="evenodd" clip-rule="evenodd" d="M466 747H501V712H466V747Z" fill="white"/><path id="Fill 84" fill-rule="evenodd" clip-rule="evenodd" d="M468.2 744.8H497.8V715.2H468.2V744.8ZM463 750H503V710H463V750Z" fill="black"/><path id="Fill 85" fill-rule="evenodd" clip-rule="evenodd" d="M687.776 527.776V527.776C680.812 534.741 669.52 534.741 662.555 527.776L467.224 332.444C460.259 325.48 460.259 314.188 467.224 307.224C474.188 300.259 485.48 300.259 492.445 307.224L687.776 502.555C694.741 509.519 694.741 520.812 687.776 527.776" fill="white"/><path id="Fill 86" fill-rule="evenodd" clip-rule="evenodd" d="M480.436 304.239C476.377 304.239 472.561 305.82 469.69 308.69C466.82 311.561 465.239 315.377 465.239 319.436C465.239 323.495 466.82 327.311 469.69 330.182L664.828 525.319C670.754 531.243 680.394 531.243 686.32 525.319C692.244 519.393 692.244 509.751 686.32 503.827L491.182 308.69C488.311 305.82 484.496 304.239 480.436 304.239M675.574 535C670.34 535 665.108 533.008 661.124 529.023L465.986 333.886C462.126 330.026 460 324.896 460 319.436C460 313.978 462.126 308.846 465.986 304.986C469.846 301.126 474.978 299 480.436 299C485.894 299 491.026 301.126 494.887 304.986L690.024 500.123C697.992 508.091 697.992 521.054 690.024 529.023V529.023C686.041 533.006 680.807 535 675.574 535" fill="black"/><path id="Fill 87" fill-rule="evenodd" clip-rule="evenodd" d="M687.776 501.224V501.224C694.741 508.189 694.741 519.48 687.776 526.445L492.445 721.777C485.48 728.741 474.188 728.741 467.224 721.777C460.259 714.812 460.259 703.521 467.224 696.556L662.555 501.224C669.52 494.259 680.812 494.259 687.776 501.224" fill="white"/><path id="Fill 88" fill-rule="evenodd" clip-rule="evenodd" d="M675.573 498.238C671.681 498.238 667.79 499.72 664.827 502.683L469.682 697.826C463.756 703.753 463.756 713.394 469.681 719.319C475.608 725.242 485.249 725.243 491.173 719.319L686.319 524.176C692.244 518.25 692.244 508.607 686.319 502.683C683.356 499.72 679.465 498.238 675.573 498.238M480.427 729C475.194 729 469.961 727.008 465.976 723.023C458.008 715.055 458.008 702.091 465.976 694.121L661.122 498.977C669.09 491.008 682.056 491.008 690.024 498.977V498.977C697.992 506.945 697.992 519.912 690.024 527.88L494.879 723.023C490.894 727.006 485.661 729 480.427 729" fill="black"/><path id="Fill 89" fill-rule="evenodd" clip-rule="evenodd" d="M429.38 418.38C411.221 436.54 381.779 436.54 363.62 418.38C345.46 400.221 345.46 370.779 363.62 352.62C381.779 334.46 411.221 334.46 429.38 352.62C447.54 370.779 447.54 400.221 429.38 418.38" fill="black"/><path id="Fill 90" fill-rule="evenodd" clip-rule="evenodd" d="M487 297H308L485.107 474L487 297Z" fill="white"/><path id="Fill 91" fill-rule="evenodd" clip-rule="evenodd" d="M313.948 299.238L481.936 467.125L483.731 299.238H313.948ZM484.49 476C483.807 476 483.138 475.734 482.636 475.233L305.767 298.471C305.018 297.722 304.794 296.595 305.2 295.616C305.606 294.638 306.561 294 307.621 294H486.379C487.08 294 487.751 294.28 488.242 294.778C488.735 295.274 489.008 295.947 489 296.647L487.11 473.41C487.099 474.464 486.457 475.408 485.479 475.806C485.159 475.937 484.823 476 484.49 476V476Z" fill="black"/><path id="Fill 92" fill-rule="evenodd" clip-rule="evenodd" d="M495.325 306.649L476.351 287.675C473.216 284.541 473.216 279.459 476.351 276.325L495.325 257.351C498.459 254.216 503.541 254.216 506.676 257.351L525.649 276.325C528.784 279.459 528.784 284.541 525.649 287.675L506.676 306.649C503.541 309.784 498.459 309.784 495.325 306.649" fill="white"/><path id="Fill 93" fill-rule="evenodd" clip-rule="evenodd" d="M497.714 305.171C499.802 307.259 503.199 307.259 505.286 305.171L524.171 286.286C526.258 284.198 526.258 280.802 524.171 278.714L505.286 259.829C503.199 257.741 499.801 257.742 497.714 259.829L478.83 278.714C476.742 280.802 476.742 284.198 478.83 286.286L497.714 305.171ZM501.501 312C498.78 312 496.06 310.964 493.99 308.894V308.894L475.106 290.009C470.965 285.87 470.965 279.131 475.106 274.99L493.99 256.106C498.131 251.966 504.869 251.963 509.011 256.106L527.894 274.99C532.035 279.131 532.035 285.87 527.894 290.009L509.011 308.894C506.94 310.964 504.22 312 501.501 312V312Z" fill="black"/><path id="Fill 94" fill-rule="evenodd" clip-rule="evenodd" d="M485.334 729H483.666C471.7 729 462 719.3 462 707.335V705.666C462 693.7 471.7 684 483.666 684H485.334C497.3 684 507 693.7 507 705.666V707.335C507 719.3 497.3 729 485.334 729" fill="white"/><path id="Fill 95" fill-rule="evenodd" clip-rule="evenodd" d="M484.171 687.251C473.738 687.251 465.251 695.738 465.251 706.171V707.83C465.251 718.262 473.738 726.749 484.171 726.749H485.83C496.262 726.749 504.749 718.262 504.749 707.83V706.171C504.749 695.738 496.262 687.251 485.83 687.251H484.171ZM485.83 732H484.171C470.844 732 460 721.158 460 707.83V706.171C460 692.844 470.844 682 484.171 682H485.83C499.158 682 510 692.844 510 706.171V707.83C510 721.158 499.158 732 485.83 732V732Z" fill="black"/><path id="Fill 96" fill-rule="evenodd" clip-rule="evenodd" d="M391 792C391 742.253 431.519 741 481.5 741C531.481 741 572 742.253 572 792H391Z" fill="white"/><path id="Fill 97" fill-rule="evenodd" clip-rule="evenodd" d="M393.294 789.717H569.706C568.429 746.457 535.331 743.283 481.5 743.283C427.669 743.283 394.57 746.457 393.294 789.717V789.717ZM575 795H388V792.358C388 768.24 397.246 752.791 416.266 745.13C432.667 738.524 454.57 738 481.5 738C508.43 738 530.333 738.524 546.734 745.13C565.753 752.791 575 768.24 575 792.358V795Z" fill="black"/></g></g></svg>