<svg viewBox="275.9473684210527 413.70000000000005 1202.3421052631584 1181.9999999999998" xmlns="http://www.w3.org/2000/svg" overflow="visible" xmlns:xlink="http://www.w3.org/1999/xlink" width="1202.3421052631584px" height="1181.9999999999998px"><g id="Master/Character/Sitting" stroke="none" stroke-width="1" fill="none" fill-rule="evenodd"><g id="Lower Body Sitting" transform="translate(-93.000000, 605.000000) scale(1 1)"><g id="Lower Body Sitting/Comfy Chair" stroke="none" stroke-width="1" fill="none" fill-rule="evenodd"><g id="Sofa-Back" transform="translate(542.000000, 376.000000)"><polygon id="Rectangle-Copy-4" fill="#000" transform="translate(560.000000, 550.500000) scale(-1, 1) translate(-560.000000, -550.500000)" points="513 505 607 505 567 596 513 596"/><path d="M181.483194,35.8259006 C152.261448,31.4522749 124.03336,39.3371528 102.017302,55.6208736 C80.001244,71.9045945 64.1972163,96.5871583 59.8235905,125.808904 L20.7068552,387.1617 C19.9221425,392.404644 19.5281587,397.698657 19.5281587,403 C19.5281587,432.547234 31.5045416,459.297234 50.8677331,478.660426 C70.2309245,498.023617 96.9809245,510 126.528159,510 L617.278055,510 C626.548523,510 635.779683,508.795233 644.739631,506.415965 C673.297161,498.832661 696.077411,480.39204 709.822452,456.707864 C723.567493,433.023687 728.277325,404.095955 720.69402,375.538424 L685.516602,243.065812 C676.058638,207.448612 648.938018,179.204868 613.733692,168.310217 L197.277949,39.4300342 C192.111676,37.8312323 186.831627,36.6264019 181.483194,35.8259006 Z" stroke="#000" stroke-width="4" fill="#FFF"/></g><g id="Blue" transform="translate(706.000000, 321.000000)"><path d="M478.2022,472.9522 C475.0572,445.0892 471.7582,417.0162 468.3582,389.0712 C464.9492,361.1092 461.4732,333.1552 457.7942,305.3032 C456.7612,297.3562 455.7142,289.4172 454.6262,281.5032 L451.3782,257.7532 L447.5872,231.0652 L443.6182,204.5382 L439.4232,178.2772 L437.1792,165.3932 L436.0542,158.9602 C435.6732,156.8332 435.3222,154.6202 434.8992,152.6132 L432.4652,140.3062 L431.8592,137.2282 L431.5562,135.7022 L431.2302,134.3542 L430.5232,131.3552 L430.1792,129.8692 C430.0412,129.3152 429.8752,128.7682 429.6802,128.2322 C429.2892,127.1602 428.7982,126.1192 428.1712,125.1662 C426.9552,123.2302 425.2542,121.6212 423.3192,120.4132 C421.3822,119.2012 419.2352,118.3492 417.0282,117.7672 C416.7472,117.7132 416.4732,117.6342 416.2002,117.5512 C415.9172,117.5072 415.6392,117.4462 415.3642,117.3672 L413.6562,117.0292 C413.0272,116.8902 412.3072,116.8022 411.6392,116.6792 C408.8882,116.2312 405.9092,115.8662 402.7712,115.5892 C396.4502,115.0702 389.5202,114.9132 382.2572,115.1182 C367.7112,115.5132 351.9632,117.2842 335.9542,119.8732 C319.9162,122.4772 303.5342,125.9252 287.0672,129.9322 C270.5962,133.9392 254.0242,138.5182 237.4472,143.4862 L212.2392,59.4912 C230.0772,54.1452 248.0822,49.1632 266.3312,44.7232 C284.5802,40.2852 303.0662,36.3712 321.9162,33.3072 C340.7752,30.2722 359.9792,28.0152 379.8362,27.4542 C389.7642,27.1802 399.8642,27.3542 410.1772,28.2062 C415.3402,28.6552 420.5562,29.2782 425.8312,30.1392 C427.1552,30.3702 428.4662,30.5612 429.7992,30.8312 C431.1362,31.0962 432.4192,31.3312 433.8842,31.6442 L438.3312,32.6582 L442.7432,33.8082 C454.4522,37.0482 465.7742,41.7702 475.8892,48.3992 C485.9972,54.9972 494.8682,63.5432 501.4552,73.6722 C504.7642,78.7172 507.5412,84.1112 509.7502,89.7352 C510.8662,92.5422 511.8172,95.4202 512.6632,98.3202 L513.8332,102.7142 L514.9152,107.2302 L516.8782,115.5112 L517.3022,117.3132 L517.6512,119.0542 L518.3402,122.5262 L521.0882,136.4182 C521.9932,141.0442 522.7202,145.5802 523.5432,150.1652 L525.9302,163.8822 L530.2912,191.1842 L534.3682,218.4272 L538.2332,245.6402 L538.8962,250.3472 C538.9162,250.4942 538.9482,250.6352 538.9922,250.7692 C540.9312,265.1402 542.9312,279.5142 544.7812,293.8802 C550.1212,334.5662 555.1282,375.2412 559.9372,415.9412 C560.0012,416.4742 560.2762,416.9612 560.7002,417.2902 C561.1142,417.6142 561.6402,417.7602 562.1622,417.6982 C562.1722,417.6972 562.3342,417.6772 562.3342,417.6772 C563.7202,417.5162 576.2332,416.2142 588.9592,420.8932 C604.7372,426.7162 614.0852,438.9082 616.7012,457.4372 L478.2022,472.9522 Z" id="Fill-1" fill="#FFF"/><path d="M209.5049,58.228 C227.4419,52.807 245.5609,47.767 263.9229,43.253 C282.2879,38.746 300.8929,34.753 319.8819,31.615 C338.8699,28.484 358.2349,26.172 378.2729,25.503 C383.2799,25.3317236 388.3349,25.283 393.4459,25.381 C398.5539,25.471 403.7069,25.683 408.9339,26.107 C414.1549,26.522 419.4359,27.11 424.7819,27.936 L428.8079,28.612 C430.1609,28.853 431.4909,29.126 432.8769,29.395 L433.9369,29.607 L435.0759,29.86 L437.3529,30.378 C438.8729,30.714 440.3759,31.116 441.8809,31.511 C453.9009,34.705 465.5459,39.412 475.9739,46.076 C486.3959,52.714 495.5719,61.338 502.4839,71.588 C505.9469,76.7 508.8509,82.188 511.1869,87.912 C511.7389,89.355 512.3209,90.79 512.8289,92.25 C513.3159,93.719 513.8169,95.186 514.2689,96.664 C515.1149,99.644 515.8999,102.622 516.6179,105.749 C518.2019,112.489 519.3179,116.785 520.1739,121.489 L522.9429,135.487 C523.4269,137.833 523.8179,140.127 524.2189,142.428 L525.4289,149.333 L527.8369,163.14 L532.2279,190.605 L536.3269,218.001 L540.2149,245.365 L540.8779,250.073 L540.9149,250.068 C542.8739,264.585 544.8969,279.107 546.7649,293.62 C552.1059,334.317 557.1129,374.999 561.9249,415.707 C561.9249,415.707 561.9839,415.7 562.0979,415.686 C563.7229,415.497 576.5389,414.186 589.6459,419.005 C596.1989,421.415 602.8289,425.359 608.1749,431.745 C613.5149,438.165 617.5609,446.902 618.9469,459.263 L567.6049,464.973 L476.4329,475.113 L471.2339,429.933 L465.8109,384.661 C462.5689,358.261 459.2899,331.861 455.8109,305.563 C453.9639,291.214 451.9759,276.948 450.0479,262.646 L449.3979,258.029 L445.5889,231.22 L441.6019,204.575 L437.3869,178.208 L435.1299,165.288 L434.0009,158.832 C433.6259,156.677 433.2579,154.503 432.8359,152.487 L430.3979,140.154 L429.7909,137.07 L429.6399,136.299 L429.4779,135.616 L429.1539,134.271 L428.5739,131.795 L428.2569,130.431 C428.1229,129.931 427.9669,129.438 427.7879,128.953 C427.4249,127.984 426.9639,127.051 426.3909,126.19 C425.2369,124.472 423.6939,123.025 421.9269,121.953 C420.1559,120.881 418.2069,120.118 416.1979,119.63 C415.9459,119.573 415.7049,119.474 415.4459,119.445 C415.3189,119.42 415.1939,119.391 415.0689,119.357 L414.8819,119.303 L414.5089,119.233 L412.6399,118.872 L410.6299,118.533 C407.8729,118.111 404.8879,117.772 401.7429,117.521 C398.6089,117.26 395.2749,117.123 391.8409,117.063 C388.4149,116.994 384.8599,117.028 381.2179,117.153 C366.6459,117.627 350.8809,119.424 334.8229,122.086 C318.7469,124.739 302.3169,128.245 285.8009,132.301 C269.2779,136.362 252.6519,140.979 236.0199,146.007 L209.5049,58.228 Z M214.9699,60.764 L238.8819,140.972 C255.4029,136.043 271.9189,131.529 288.3429,127.562 C304.7589,123.61 321.0939,120.213 337.0949,117.661 C353.0659,115.127 368.7719,113.43 383.3089,113.088 C390.5529,112.928 397.4989,113.1 403.7959,113.681 C406.9589,113.956 409.9329,114.35 412.6779,114.825 C413.3839,114.931 414.0419,115.064 414.6939,115.196 L415.5979,115.368 C415.8269,115.413 415.9209,115.454 416.0899,115.49 C416.7029,115.608 417.3029,115.782 417.9069,115.935 C420.3159,116.583 422.6519,117.546 424.7529,118.899 C426.8469,120.255 428.6659,122.049 429.9749,124.177 C430.6509,125.225 431.1699,126.371 431.5839,127.546 C431.7909,128.135 431.9719,128.734 432.1089,129.342 L432.4819,130.952 L433.3099,134.445 C433.5339,135.291 433.7269,136.376 433.9299,137.39 L434.5339,140.46 L436.9639,152.741 C437.1739,153.748 437.3639,154.807 437.5469,155.885 L438.1079,159.09 L439.2289,165.501 L441.4599,178.346 L445.6349,204.501 L449.5869,230.911 L453.3589,257.477 L454.0099,262.098 C455.9399,276.409 457.9289,290.686 459.7769,305.042 C463.2579,331.355 466.5379,357.766 469.7809,384.176 C473.3029,413.026 476.7109,441.97 479.9709,470.778 L567.1539,460.957 L614.3949,455.636 C611.5029,439.1 602.7119,428.1 588.2739,422.782 C575.9819,418.26 563.9049,419.514 562.5689,419.669 L562.4559,419.683 L562.4019,419.69 C561.3579,419.812 560.3049,419.519 559.4749,418.871 C558.6289,418.211 558.0779,417.241 557.9519,416.176 C553.1429,375.482 548.1369,334.815 542.7979,294.141 C540.9569,279.836 538.9659,265.525 537.0349,251.218 C536.9839,251.024 536.9439,250.826 536.9149,250.622 L536.2529,245.917 L532.4099,218.853 L528.3569,191.763 L524.0239,164.623 L521.6579,150.996 C520.8459,146.444 520.1049,141.925 519.2329,137.346 L516.5069,123.561 L515.8229,120.114 C515.5919,118.962 515.3899,117.833 515.0869,116.627 L513.2029,108.675 C511.8289,102.719 510.4209,97.071 508.2959,91.525 C506.2089,86.003 503.5669,80.699 500.3979,75.728 C494.0809,65.761 485.5579,57.27 475.7639,50.697 C465.9599,44.108 454.9539,39.366 443.5459,36.114 C440.6919,35.306 437.8159,34.561 434.9149,33.924 L432.7569,33.448 L430.7619,33.056 C429.4539,32.796 428.1479,32.545 426.8509,32.338 C421.6489,31.44 416.4959,30.782 411.4029,30.331 C401.2079,29.4 391.2209,29.199 381.3839,29.414 C361.7219,29.891 342.6629,32.049 323.9419,35.005 C305.2299,37.992 286.8659,41.832 268.7319,46.196 C250.6029,50.575 232.6989,55.476 214.9699,60.764 L214.9699,60.764 Z" id="Fill-3" fill="#000"/><line x1="477.005" y1="463.051" x2="614.664" y2="447.368" id="Stroke-5" stroke="#000" stroke-width="4"/><path d="M349.4356,-1.42108547e-14 L363.1816,136.687 C353.4736,137.666 343.3436,139.105 333.0066,140.925 C322.6736,142.731 312.1336,144.9 301.4966,147.345 C280.2116,152.238 258.5576,158.194 236.8516,164.848 C193.4166,178.183 149.7406,194.177 106.6206,211.649 C88.0536,219.179 68.4176,219.212 51.3316,213.145 C34.2606,207.065 19.7336,194.875 11.7676,177.658 L11.7676,177.658 C3.7826,160.456 4.4246,141.226 12.2666,124.206 C20.0726,107.196 35.0266,92.44 54.9596,84.355 C101.2166,65.623 148.1556,48.384 196.6046,33.499 C220.8386,26.074 245.4616,19.27 270.7566,13.452 C283.4066,10.545 296.2306,7.896 309.3096,5.607 C322.3816,3.312 335.7146,1.384 349.4356,-1.42108547e-14" id="Fill-7" fill="#2945ff"/><path d="M41.6621,219.9561 C54.6101,214.1491 67.8451,208.4431 81.1021,202.8951 C94.3731,197.3441 107.7191,191.9391 121.1041,186.6931 C147.8791,176.2051 174.8291,166.3431 201.8271,157.3511 C228.8191,148.3711 255.8891,140.2421 282.7331,133.5271 C296.1501,130.1751 309.5071,127.1851 322.6841,124.6951 C335.8581,122.2031 348.8641,120.2231 361.3991,118.9621" id="Stroke-9" stroke="#000" stroke-width="4" stroke-linecap="round" stroke-linejoin="round"/><path d="M18.8623,193.0606 C32.3073,186.8906 46.1833,180.8416 60.0133,174.9756 C73.8723,169.1026 87.8123,163.3936 101.8073,157.8426 C129.8003,146.7526 158.0243,136.3096 186.4323,126.7376 C214.8383,117.1816 243.4443,108.4826 272.1473,101.2166 C286.4973,97.5916 300.8683,94.3326 315.2113,91.5946 C329.5493,88.8576 343.8683,86.6346 358.0053,85.2166" id="Stroke-11" stroke="#000" stroke-width="4" stroke-linecap="round" stroke-linejoin="round"/><path d="M4.6729,162.2554 C32.5999,149.4934 60.8249,137.6304 89.3109,126.3134 C117.7979,115.0274 146.5499,104.3864 175.6099,94.5944 C204.6729,84.8184 234.0469,75.8774 263.8359,68.3354 C278.7309,64.5724 293.7319,61.1684 308.8549,58.2794 C323.9779,55.3944 339.2259,53.0164 354.6109,51.4704" id="Stroke-13" stroke="#000" stroke-width="4" stroke-linecap="round" stroke-linejoin="round"/><path d="M-1.44950718e-12,127.1294 C27.847,114.6644 55.732,103.0444 83.982,91.9594 C112.219,80.8994 140.743,70.4544 169.689,60.8124 C198.642,51.1844 228.002,42.3394 258.069,34.8144 C273.106,31.0584 288.325,27.6404 303.808,24.7134 C319.292,21.7894 335.042,19.3564 351.218,17.7254" id="Stroke-15" stroke="#000" stroke-width="4" stroke-linecap="round" stroke-linejoin="round"/><g id="Group-20" transform="translate(559.475400, 411.818000)"><line x1=".047" y1=".581" x2="4.781" y2="41.293" id="Fill-17" fill="#FFF"/><line x1=".047" y1=".581" x2="4.781" y2="41.293" id="Stroke-19" stroke="#000" stroke-width="4" stroke-linecap="round" stroke-linejoin="round"/></g><g id="Group-24" transform="translate(579.475400, 418.818000)"><line x1=".928" y1=".055" x2="4.63" y2="32.033" id="Fill-21" fill="#FFF"/><line x1=".928" y1=".055" x2="4.63" y2="32.033" id="Stroke-23" stroke="#000" stroke-width="4" stroke-linecap="round" stroke-linejoin="round"/></g></g><rect id="Leg-Rest" stroke="#000" stroke-width="4" fill="#FFF" x="1116" y="784" width="450" height="186" rx="93"/><g id="Black" transform="translate(562.000000, 302.000000)"><path d="M892.199352,500.292446 C886.961352,496.317446 881.454352,492.215446 876.000352,488.170446 L859.467352,476.045446 C848.388352,467.992446 837.224352,460.018446 826.022352,452.096446 C803.586352,436.293446 780.943352,420.776446 758.116352,405.632446 C740.292352,393.825446 722.364352,382.225446 704.326352,370.897446 C686.273352,359.608446 668.119352,348.587446 649.870352,337.875446 C631.596352,327.245446 613.229352,316.956446 594.779352,307.103446 C576.312352,297.349446 557.763352,288.089446 539.198352,279.525446 L525.275352,273.278446 L511.375352,267.428446 L507.901352,265.968446 L504.440352,264.629446 L497.522352,261.956446 C495.220352,261.084446 492.904352,260.123446 490.616352,259.318446 L483.758352,256.924446 L476.904352,254.515446 C474.634352,253.765446 472.393352,253.119446 470.138352,252.410446 L463.387352,250.316446 L461.692352,249.792446 L459.838352,249.301446 L456.129352,248.318446 L441.295352,244.378446 L433.881352,242.401446 L430.173352,241.413446 L426.388352,240.545446 C386.331352,230.737446 344.882352,223.288446 303.072352,217.129446 L315.833352,130.366446 C355.598352,136.103446 395.277352,143.364446 434.782352,152.494446 L449.597352,155.906446 C454.530352,157.099446 459.444352,158.487446 464.367352,159.771446 L479.131352,163.698446 C481.596352,164.366446 484.039352,164.981446 486.524352,165.692446 L494.058352,168.015446 C499.074352,169.574446 504.140352,171.063446 509.006352,172.848446 C513.902352,174.587446 518.859352,176.240446 523.703352,178.058446 L538.146352,183.643446 C540.572352,184.548446 542.916352,185.571446 545.285352,186.556446 L552.381352,189.531446 L559.474352,192.510446 L566.461352,195.642446 C571.106352,197.748446 575.803352,199.782446 580.404352,201.950446 L594.179352,208.493446 L597.623352,210.130446 L601.024352,211.826446 L607.826352,215.220446 C616.939352,219.683446 625.847352,224.428446 634.822352,229.084446 C639.289352,231.440446 643.702352,233.869446 648.144352,236.259446 L654.798352,239.858446 L661.395352,243.532446 L674.575352,250.904446 L687.642352,258.427446 L694.174352,262.192446 L700.653352,266.027446 L713.607352,273.704446 C730.784352,284.069446 747.854352,294.577446 764.733352,305.341446 C764.869352,305.427446 765.008352,305.500446 765.148352,305.559446 C772.112352,309.981446 779.022352,314.474446 785.955352,318.938446 C792.839352,323.468446 799.761352,327.943446 806.611352,332.519446 C840.454352,354.966446 873.767352,378.101446 906.659352,401.897446 C907.097352,402.215446 907.644352,402.344446 908.176352,402.257446 C908.697352,402.173446 909.162352,401.886446 909.470352,401.461446 C909.476352,401.453446 909.571352,401.320446 909.571352,401.320446 C910.392352,400.201446 917.909352,390.089446 930.055352,383.979446 C937.588352,380.192446 945.252352,378.709446 952.990352,379.569446 C956.859352,379.989446 960.753352,381.023446 964.656352,382.620446 C968.580352,384.247446 972.460352,386.411446 976.522352,389.332446 L892.199352,500.292446 Z" id="Fill-28" fill="#FFF"/><path d="M313.743252,128.023446 L343.733252,132.610446 L373.685252,137.828446 C376.181252,138.274446 378.680252,138.679446 381.172252,139.159446 L388.647252,140.653446 L403.597252,143.645446 L411.072252,145.142446 C413.562252,145.653446 416.057252,146.104446 418.541252,146.708446 L433.457252,150.137446 L448.372252,153.571446 C449.614252,153.863446 450.859252,154.131446 452.099252,154.443446 L455.816252,155.429446 L463.251252,157.404446 L478.119252,161.359446 L485.552252,163.339446 C488.044252,164.028446 490.609252,164.874446 493.135252,165.636446 L500.737252,167.986446 L504.535252,169.168446 L508.251252,170.465446 L523.100252,175.681446 L537.660252,181.309446 L541.299252,182.718446 L544.875252,184.215446 L552.025252,187.212446 L559.174252,190.212446 C561.551252,191.220446 563.874252,192.302446 566.226252,193.344446 C570.911252,195.457446 575.622252,197.533446 580.283252,199.678446 C589.522252,204.082446 598.826252,208.398446 607.904252,213.023446 C617.077252,217.519446 626.062252,222.269446 635.088252,226.966446 C639.596252,229.319446 644.027252,231.776446 648.501252,234.178446 C652.967252,236.589446 657.437252,238.994446 661.841252,241.489446 L675.101252,248.906446 L688.254252,256.470446 L694.825252,260.258446 L701.346252,264.113446 L714.380252,271.833446 C731.658252,282.260446 748.832252,292.826446 765.807252,303.653446 L765.828252,303.622446 C772.867252,308.083446 779.844252,312.628446 786.850252,317.133446 C793.804252,321.709446 800.798252,326.231446 807.717252,330.852446 C841.584252,353.316446 874.918252,376.464446 907.833252,400.278446 C907.833252,400.278446 907.867252,400.230446 907.934252,400.136446 C908.899252,398.815446 916.600252,388.489446 929.113252,382.177446 C935.367252,379.039446 942.838252,376.873446 951.277252,377.425446 C955.496252,377.687446 959.964252,378.640446 964.642252,380.468446 C966.985252,381.386446 969.388252,382.540446 971.838252,383.931446 C973.073252,384.641446 974.321252,385.412446 975.581252,386.247446 C976.205252,386.659446 976.871252,387.124446 977.518252,387.585446 C977.843252,387.821446 978.170252,388.058446 978.500252,388.297446 C978.867252,388.574446 979.238252,388.854446 979.611252,389.135446 L948.181252,430.133446 L892.371252,502.936446 L883.781252,496.456446 L874.866252,489.820446 C868.883252,485.398446 862.864252,480.989446 856.821252,476.598446 C844.735252,467.811446 832.537252,459.125446 820.289252,450.518446 C799.372252,435.829446 778.271252,421.400446 757.011252,407.299446 C750.314252,402.826446 743.564252,398.464446 736.845252,394.040446 C730.088252,389.698446 723.351252,385.307446 716.574252,381.013446 C700.220252,370.580446 683.746252,360.449446 667.224252,350.476446 L654.795252,343.115446 L648.579252,339.439446 L642.340252,335.844446 L629.860252,328.665446 L617.338252,321.663446 C613.170252,319.298446 608.978252,317.047446 604.789252,314.785446 C600.598252,312.538446 596.420252,310.216446 592.221252,308.026446 C583.818252,303.658446 575.427252,299.214446 566.998252,295.090446 C558.586252,290.798446 550.146252,286.899446 541.721252,282.872446 C537.505252,280.934446 533.289252,279.082446 529.075252,277.178446 C526.969252,276.245446 524.860252,275.256446 522.757252,274.367446 L516.447252,271.726446 L510.140252,269.079446 L506.987252,267.754446 L503.847252,266.544446 L491.299252,261.687446 L478.864252,257.326446 L475.759252,256.232446 L472.697252,255.291446 L466.581252,253.404446 L463.525252,252.454446 L461.998252,251.978446 L461.233252,251.739446 L460.391252,251.516446 L453.654252,249.731446 L440.181252,246.151446 L433.447252,244.356446 L430.080252,243.457446 C428.947252,243.171446 427.791252,242.925446 426.648252,242.657446 L412.895252,239.499446 L399.145252,236.330446 C396.870252,235.771446 394.519252,235.351446 392.198252,234.876446 L385.218252,233.481446 L371.258252,230.687446 L364.279252,229.287446 C361.945252,228.836446 359.578252,228.455446 357.229252,228.036446 L328.992252,223.114446 L300.520252,218.761446 L313.743252,128.023446 Z M317.918252,132.708446 L305.629252,215.497446 L319.756252,217.658446 L326.819252,218.736446 L330.351252,219.277446 L333.854252,219.890446 L361.881252,224.787446 C380.398252,228.417446 398.965252,231.968446 417.080252,236.356446 L430.746252,239.495446 L444.142252,243.066446 L457.542252,246.625446 L460.892252,247.512446 C461.442252,247.662446 462.029252,247.803446 462.548252,247.960446 L464.076252,248.437446 L470.193252,250.334446 C486.521252,255.439446 503.258252,261.647446 520.015252,268.883446 C536.768252,276.039446 553.573252,283.811446 570.292252,292.264446 C578.671252,296.356446 586.995252,300.832446 595.345252,305.143446 L607.822252,311.878446 L614.060252,315.251446 L620.275252,318.723446 L632.705252,325.675446 L645.088252,332.811446 L651.277252,336.383446 L657.443252,340.034446 L669.773252,347.344446 C686.165252,357.236446 702.502252,367.295446 718.723252,377.638446 C725.511252,381.940446 732.258252,386.337446 739.025252,390.687446 C745.756252,395.117446 752.515252,399.486446 759.222252,403.966446 C780.514252,418.087446 801.642252,432.536446 822.589252,447.244446 C834.321252,455.483446 846.002252,463.804446 857.585252,472.213446 C869.146252,480.603446 880.739252,489.123446 891.918252,497.568446 L944.848252,427.600446 L973.529252,389.687446 C966.235252,384.812446 959.103252,382.160446 952.001252,381.520446 C944.910252,380.890446 937.894252,382.314446 930.998252,385.782446 C919.262252,391.678446 912.004252,401.421446 911.209252,402.506446 L911.142252,402.597446 L911.111252,402.642446 C910.493252,403.492446 909.559252,404.066446 908.515252,404.235446 C907.453252,404.407446 906.361252,404.150446 905.486252,403.518446 C872.618252,379.737446 839.324252,356.617446 805.506252,334.186446 C798.687252,329.630446 791.795252,325.175446 784.943252,320.666446 L764.232252,307.345446 C764.038252,307.252446 763.847252,307.147446 763.660252,307.028446 C746.877252,296.328446 729.911252,285.877446 712.836252,275.574446 L699.961252,267.941446 L693.519252,264.129446 L687.031252,260.383446 L674.047252,252.901446 L660.950252,245.574446 L654.398252,241.916446 L647.787252,238.339446 L634.557252,231.200446 C625.633252,226.585446 616.799252,221.844446 607.745252,217.414446 C589.787252,208.343446 571.436252,199.831446 552.732252,191.846446 C534.066252,183.805446 514.834252,176.595446 494.969252,170.389446 C484.935252,167.107446 475.277252,164.801446 465.478252,162.135446 L450.817252,158.240446 L436.101252,154.850446 C416.500252,150.116446 396.806252,146.336446 377.119252,142.489446 L347.539252,137.320446 L343.842252,136.674446 L340.139252,136.106446 L332.732252,134.973446 L317.918252,132.708446 L317.918252,132.708446 Z" id="Fill-30" fill="#000"/><line x1="884.453" y1="494.558" x2="967.462" y2="383.627" id="Stroke-32" stroke="#000" stroke-width="4"/><path d="M472.138752,131.401846 L437.303752,264.288846 C425.901752,261.051846 413.941752,258.522846 402.149752,255.768846 L393.288752,253.722846 L384.267752,251.919846 L366.224752,248.307846 C360.246752,247.035846 354.109752,246.049846 348.022752,244.972846 L329.739752,241.775846 C326.705752,241.212846 323.611752,240.778846 320.536752,240.301846 L311.304752,238.891846 L292.834752,236.074846 C243.365752,229.083846 193.134752,223.951846 142.826752,220.272846 C121.160752,218.743846 102.058752,209.966846 88.3677522,196.890846 C74.6997522,183.835846 66.5437522,166.428846 67.0197522,147.471846 L67.0197522,147.471846 C67.3947522,128.501846 77.2127522,111.594846 92.8027522,99.8518457 C108.356752,88.1258457 129.679752,81.6238457 152.636752,83.2458457 C205.889752,87.1408457 259.029752,92.5558457 312.240752,100.074846 L332.199752,103.112846 L342.177752,104.639846 C345.503752,105.157846 348.828752,105.627846 352.158752,106.239846 L372.129752,109.727846 C378.786752,110.906846 385.440752,111.986846 392.107752,113.390846 L412.095752,117.389846 L422.088752,119.398846 L432.095752,121.695846 C445.439752,124.797846 458.767752,127.651846 472.138752,131.401846" id="Fill-34" fill="#000"/><g id="Group-39" transform="translate(903.347552, 398.936646)"><path d="M0.4045,0.8519 C11.5595,8.9039 22.6515,17.0319 33.7185,25.3109" id="Fill-36" fill="#FFF"/><path d="M0.4045,0.8519 C11.5595,8.9039 22.6515,17.0319 33.7185,25.3109" id="Stroke-38" stroke="#000" stroke-width="4" stroke-linecap="round" stroke-linejoin="round"/></g><g id="Group-43" transform="translate(922.347552, 387.936646)"><path d="M0.385,0.9281 C9.168,7.3271 17.922,13.7591 26.688,20.3161" id="Fill-40" fill="#FFF"/><path d="M0.385,0.9281 C9.168,7.3271 17.922,13.7591 26.688,20.3161" id="Stroke-42" stroke="#000" stroke-width="4" stroke-linecap="round" stroke-linejoin="round"/></g><g id="Pelvis" transform="translate(0.347552, 0.936646)" fill="#000"><path d="M0.0002,114.2648 C0.0002,51.6818 59.5492,0.9488 133.0062,0.9488 C206.4642,0.9488 266.0132,51.6818 266.0132,114.2648 C266.0132,176.8478 206.4642,227.5808 133.0062,227.5808 C59.5492,227.5808 0.0002,176.8478 0.0002,114.2648" id="Fill-25"/></g><path d="M0.965452173,1.88544573 L133.965452,1.88544573 L133.965452,188.196271 L59.9654522,188.196271 C27.3806519,188.196271 0.965452173,161.781071 0.965452173,129.196271 L0.965452173,1.88544573 L0.965452173,1.88544573 Z" id="Rectangle" fill="#000"/></g><g id="Sofa-Front" transform="translate(353.000000, 419.000000)"><polygon id="Rectangle" fill="#000" points="133 462.3851 227 462.3851 187 553.3851 133 553.3851"/><polygon id="Rectangle-Copy-3" fill="#000" transform="translate(605.000000, 507.885100) scale(-1, 1) translate(-605.000000, -507.885100)" points="558 462.3851 652 462.3851 612 553.3851 558 553.3851"/><polygon id="Rectangle-Copy-2" fill="#000" points="277 462.3851 371 462.3851 331 553.3851 277 553.3851"/><path d="M192.94356,27.8177715 C163.893894,22.4181476 135.405727,29.3044093 112.830071,44.8029936 C90.2544146,60.3015778 73.591269,84.4124846 68.1916451,113.462151 L25.929264,340.831332 C24.730568,347.280248 24.1274111,353.825726 24.1274111,360.3851 C24.1274111,389.932334 36.1037941,416.682334 55.4669856,436.045526 C74.830177,455.408717 101.580177,467.3851 131.127411,467.3851 L617.278055,467.3851 C626.548523,467.3851 635.779683,466.180333 644.739631,463.801065 C673.297161,456.217761 696.077411,437.77714 709.822452,414.092964 C723.567493,390.408787 728.277325,361.481055 720.69402,332.923524 L686.679003,204.828331 C681.64366,185.866023 671.620693,169.042345 658.089528,155.804638 C644.558362,142.56693 627.518998,132.915193 608.450859,128.296764 L198.577613,29.0227762 C196.710752,28.5706101 194.832053,28.1687963 192.94356,27.8177715 Z" id="Rectangle" stroke="#000" stroke-width="4" fill="#FFF"/></g></g></g><g id="Upper Body" transform="translate(-51.000000, 303.000000) scale(1 1)"><g id="Upper Body/Holding Phone" stroke="none" stroke-width="1" fill="none" fill-rule="evenodd"><g id="left" transform="translate(722.000000, 310.000000)"><g id="Group-3" transform="translate(70.330691, 89.353369)"><path d="M363.159692,2.51563644 C359.453692,3.60363644 356.137692,5.71463644 354.808692,9.29263644 C351.123692,19.2916364 346.912692,28.6766364 342.349692,37.3916364 C327.140282,68.197577 306.035514,84.4069811 281.864803,90.630935 C215.314752,107.767562 125.522257,49.20598 71.5446916,11.1916364 L2.00069158,106.562636 C171.886692,235.158636 390.385692,280.669636 471.315692,33.5636364 C461.574692,31.8346364 371.012692,-2.97936356 363.159692,2.51563644 Z" id="Fill-1" fill="#FFF"/><path d="M4.77539158,106.151536 C58.0113916,146.215536 113.694392,176.248536 165.923392,193.057536 C224.646392,211.956536 277.684392,214.261536 323.564392,199.909536 C390.449392,178.986536 439.283392,123.508536 468.737392,34.9925364 C464.194392,33.7275364 455.169392,30.6215364 443.450392,26.5885364 C428.393392,21.4075364 409.654392,14.9585364 394.013392,10.2675364 C369.372392,2.87853644 365.037392,3.72553644 364.296392,4.16153644 C364.118392,4.28553644 363.931392,4.37353644 363.722392,4.43453644 C361.174392,5.18253644 357.885392,6.75353644 356.683392,9.98853644 C353.102392,19.7055364 348.875392,29.2385364 344.121392,38.3185364 C329.693392,67.5435364 308.826392,85.8305364 282.121392,92.6295364 C252.551392,100.158536 215.170392,93.6715364 171.020392,73.3485364 C134.168392,56.3855364 98.9103916,32.8615364 72.0013916,13.9595364 L4.77539158,106.151536 Z M260.347392,213.189536 C230.474392,213.189536 198.504392,207.745536 164.697392,196.865536 C111.533392,179.755536 54.8563916,149.080536 0.793391576,108.157536 C-0.076608424,107.499536 -0.258608424,106.265536 0.384391576,105.384536 L69.9283916,10.0135364 C70.5713916,9.13153644 71.8033916,8.92853644 72.6953916,9.55653644 C99.6613916,28.5475364 135.396392,52.5475364 172.693392,69.7145364 C215.989392,89.6445364 252.474392,96.0495364 281.135392,88.7535364 C306.655392,82.2555364 326.648392,64.6765364 340.556392,36.5055364 C345.252392,27.5355364 349.408392,18.1615364 352.932392,8.60053644 C354.319392,4.86653644 357.575392,2.12853644 362.358392,0.668536439 C368.395392,-2.49846356 395.052392,5.70253644 444.751392,22.8065364 C457.666392,27.2505364 468.819392,31.0895364 471.665392,31.5945364 C472.235392,31.6955364 472.734392,32.0395364 473.031392,32.5365364 C473.329392,33.0335364 473.396392,33.6355364 473.216392,34.1865364 C443.410392,125.193536 393.462392,182.234536 324.758392,203.726536 C304.588392,210.036536 283.074392,213.189536 260.347392,213.189536 L260.347392,213.189536 Z" id="Fill-3" fill="#000"/></g><g id="Group-2" transform="translate(408.348919, 46.766133)"><path d="M64.1616635,59.5644725 C67.4006635,45.8594725 79.6776635,20.5474725 74.6336635,7.75847253 C69.3236635,-2.31952747 55.0356635,1.79347253 52.8926635,12.7374725 C49.1056635,29.1774725 44.4556635,45.1924725 38.7966635,60.4424725" id="Fill-5" fill="#FFF"/><path d="M38.7962635,62.4433725 C38.5652635,62.4433725 38.3302635,62.4033725 38.1002635,62.3183725 C37.0652635,61.9333725 36.5372635,60.7823725 36.9212635,59.7473725 C42.3272635,45.1813725 47.0452635,29.2143725 50.9442635,12.2883725 C52.1792635,5.97137253 57.2222635,1.06737253 63.4762635,0.148372529 C68.9452635,-0.655627471 73.7762635,1.84137253 76.4032635,6.82537253 C76.4372635,6.89037253 76.4672635,6.95637253 76.4942635,7.02437253 C80.3932635,16.9113725 75.0462635,32.6193725 70.3292635,46.4783725 C68.6142635,51.5163725 66.9942635,56.2763725 66.1082635,60.0243725 C65.8542635,61.0993725 64.7752635,61.7653725 63.7022635,61.5103725 C62.6272635,61.2563725 61.9612635,60.1793725 62.2152635,59.1043725 C63.1452635,55.1693725 64.7962635,50.3213725 66.5422635,45.1893725 C70.7992635,32.6853725 76.0922635,17.1373725 72.8132635,8.59437253 C70.9772635,5.19237253 67.7932635,3.55537253 64.0582635,4.10537253 C60.2462635,4.66537253 55.9232635,7.67037253 54.8552635,13.1223725 C50.9042635,30.2793725 46.1362635,46.4123725 40.6712635,61.1383725 C40.3722635,61.9443725 39.6082635,62.4433725 38.7962635,62.4433725" id="Fill-7" fill="#000"/><path d="M64.1616635,59.5644725 C68.7846635,46.0144725 72.6596635,32.1384725 75.8906635,18.0644725 C76.7506635,14.3314725 78.8086635,11.2344725 81.3956635,9.19047253 C86.6256635,4.78247253 94.7746635,6.36447253 97.7256635,12.6514725 C102.629664,26.4054725 90.0676635,52.3854725 86.5006635,67.1954725" id="Fill-9" fill="#FFF"/><path d="M86.5022635,69.1962725 C86.3472635,69.1962725 86.1902635,69.1782725 86.0322635,69.1402725 C84.9582635,68.8812725 84.2972635,67.8012725 84.5562635,66.7272725 C85.5792635,62.4772725 87.3172635,57.3612725 89.1562635,51.9432725 C93.5862635,38.8942725 99.0962635,22.6652725 95.8742635,13.4162725 C94.7542635,11.0952725 92.6612635,9.44927253 90.1192635,8.89227253 C87.4632635,8.31027253 84.7532635,8.97627253 82.6842635,10.7202725 C80.2622635,12.6352725 78.5592635,15.3892725 77.8392635,18.5142725 C74.5072635,33.0252725 70.5432635,47.0542725 66.0542635,60.2102725 C65.6982635,61.2552725 64.5602635,61.8132725 63.5162635,61.4572725 C62.4702635,61.1002725 61.9122635,59.9642725 62.2692635,58.9182725 C66.7122635,45.8922725 70.6392635,31.9962725 73.9412635,17.6172725 C74.8652635,13.6082725 77.0712635,10.0592725 80.1552635,7.62227253 C83.1342635,5.11027253 87.0952635,4.13427253 90.9762635,4.98527253 C94.7732635,5.81727253 97.8932635,8.30227253 99.5362635,11.8012725 C99.5632635,11.8602725 99.5882635,11.9192725 99.6092635,11.9802725 C103.369264,22.5252725 97.8302635,38.8372725 92.9442635,53.2292725 C91.1352635,58.5582725 89.4262635,63.5912725 88.4452635,67.6642725 C88.2242635,68.5802725 87.4052635,69.1962725 86.5022635,69.1962725" id="Fill-11" fill="#000"/><path d="M86.5005635,67.1957725 C91.4265635,52.7557725 95.5045635,38.1207725 98.8885635,23.3927725 C99.7885635,19.4847725 101.881564,16.2317725 104.489564,14.0847725 C114.017564,6.28277253 125.078564,16.5237725 121.885564,28.7207725 C118.350564,44.1037725 114.069564,59.4967725 108.839564,74.8277725" id="Fill-13" fill="#FFF"/><path d="M108.840164,76.8281725 C108.626164,76.8281725 108.408164,76.7931725 108.194164,76.7201725 C107.149164,76.3641725 106.590164,75.2271725 106.947164,74.1821725 C111.906164,59.6421725 116.277164,44.1961725 119.936164,28.2721725 C121.614164,21.8601725 118.850164,16.7061725 115.577164,14.6071725 C112.523164,12.6481725 108.944164,13.0221725 105.757164,15.6321725 C103.348164,17.6141725 101.600164,20.5311725 100.837164,23.8411725 C97.3261635,39.1261725 93.1391635,53.9301725 88.3931635,67.8411725 C88.0361635,68.8871725 86.8991635,69.4451725 85.8551635,69.0881725 C84.8091635,68.7321725 84.2511635,67.5951725 84.6081635,66.5501725 C89.3091635,52.7681725 93.4581635,38.0971725 96.9391635,22.9451725 C97.8991635,18.7781725 100.129164,15.0831725 103.219164,12.5401725 C107.771164,8.81317253 113.196164,8.32817253 117.736164,11.2401725 C123.177164,14.7301725 125.679164,22.1271725 123.820164,29.2271725 C120.144164,45.2251725 115.736164,60.8041725 110.733164,75.4731725 C110.449164,76.3051725 109.672164,76.8281725 108.840164,76.8281725" id="Fill-15" fill="#000"/><path d="M34.0215635,72.4057725 C36.8485635,63.0317725 45.0615635,52.4167725 41.3085635,42.3787725 C38.0395635,34.6427725 26.7565635,33.8697725 21.8105635,40.3177725 C14.5415635,54.7937725 10.0555635,71.5787725 2.0005635,84.2207725" id="Fill-23" fill="#FFF"/><path d="M1.9981635,86.2209725 C1.6301635,86.2209725 1.2581635,86.1199725 0.925163502,85.9079725 C-0.00583649795,85.3139725 -0.279836498,84.0779725 0.313163502,83.1459725 C4.9221635,75.9119725 8.3031635,67.3759725 11.8831635,58.3389725 C14.3821635,52.0309725 16.9661635,45.5079725 20.0231635,39.4199725 C20.0791635,39.3069725 20.1461635,39.1999725 20.2231635,39.0999725 C23.0791635,35.3779725 27.9311635,33.4609725 32.8841635,34.0939725 C37.5811635,34.6949725 41.4191635,37.5019725 43.1511635,41.6009725 C46.1281635,49.5589725 42.4821635,57.6299725 39.2651635,64.7499725 C37.9581635,67.6419725 36.7231635,70.3739725 35.9361635,72.9829725 C35.6171635,74.0409725 34.5011635,74.6389725 33.4441635,74.3209725 C32.3861635,74.0019725 31.7881635,72.8859725 32.1071635,71.8279725 C32.9701635,68.9659725 34.3171635,65.9849725 35.6191635,63.1029725 C38.6601635,56.3739725 41.8041635,49.4149725 39.4351635,43.0799725 C38.2771635,40.3439725 35.6931635,38.4859725 32.3761635,38.0619725 C28.8961635,37.6159725 25.5161635,38.8899725 23.5081635,41.3929725 C20.5691635,47.2729725 18.0441635,53.6469725 15.6021635,59.8119725 C12.1111635,68.6259725 8.5011635,77.7399725 3.6871635,85.2949725 C3.3051635,85.8939725 2.6591635,86.2209725 1.9981635,86.2209725" id="Fill-25" fill="#000"/><path d="M108.839964,74.8276725 C115.604964,62.1446725 116.384964,23.7166725 134.399964,26.9286725 C153.352964,33.2066725 133.997964,68.3876725 131.178964,82.4586725" id="Fill-27" fill="#FFF"/><path d="M131.181464,84.4594725 C131.051464,84.4594725 130.919464,84.4464725 130.786464,84.4194725 C129.703464,84.2034725 129.001464,83.1494725 129.218464,82.0664725 C129.932464,78.4984725 131.587464,73.8544725 133.503464,68.4764725 C137.809464,56.3924725 143.168464,41.3524725 139.318464,33.4694725 C138.237464,31.2564725 136.467464,29.7524725 133.908464,28.8734725 C124.193464,27.2754725 120.211464,40.6004725 116.020464,58.1754725 C114.371464,65.0934725 112.813464,71.6274725 110.604464,75.7684725 C110.084464,76.7434725 108.873464,77.1124725 107.898464,76.5924725 C106.924464,76.0724725 106.555464,74.8614725 107.075464,73.8864725 C109.041464,70.1994725 110.541464,63.9084725 112.129464,57.2474725 C115.830464,41.7254725 120.437464,22.4084725 134.751464,24.9594725 C134.845464,24.9764725 134.938464,24.9994725 135.029464,25.0294725 C138.685464,26.2404725 141.337464,28.4904725 142.912464,31.7144725 C147.500464,41.1094725 141.828464,57.0284725 137.271464,69.8194725 C135.485464,74.8324725 133.798464,79.5674725 133.140464,82.8514725 C132.950464,83.8024725 132.115464,84.4594725 131.181464,84.4594725" id="Fill-29" fill="#000"/></g><path d="M157.455883,96.5247056 C141.157883,84.9727056 125.134883,72.6397056 109.522883,59.7657056 C81.4288826,37.2017056 53.7404551,35.5852056 32.8293745,35.5852056 C-3.84574202,35.5852056 -10.4681174,143.583706 19.8228826,168.493706 C37.9358826,183.429706 56.5708826,197.784706 75.9358826,211.513706 L157.455883,96.5247056 Z" id="Fill-31" fill="#000"/><g id="Group" transform="translate(442.479531, 0.000000)"><path d="M63.0537516,147.721506 L14.4697516,135.238506 C5.59075161,132.957506 0.242751612,123.910506 2.52375161,115.031506 L28.3597516,14.4755056 C30.6417516,5.59650555 39.6887516,0.248505552 48.5667516,2.52950555 L97.1507516,15.0135056 C106.029752,17.2945056 111.377752,26.3405056 109.096752,35.2195056 L83.2607516,135.775506 C80.9787516,144.654506 71.9317516,150.002506 63.0537516,147.721506" id="Fill-42" fill="#FFF"/><path d="M44.4112516,4.00170555 C41.8302516,4.00170555 39.2872516,4.69170555 37.0072516,6.03970555 C33.6512516,8.02370555 31.2672516,11.1967056 30.2972516,14.9737056 L4.46125161,115.529706 C2.45725161,123.325706 7.17125161,131.298706 14.9672516,133.301706 L63.5512516,145.784706 C67.3282516,146.754706 71.2562516,146.195706 74.6132516,144.211706 C77.9702516,142.227706 80.3532516,139.054706 81.3232516,135.277706 L107.160252,34.7217056 C109.163252,26.9257056 104.450252,18.9527056 96.6532516,16.9497056 L48.0692516,4.46670555 C46.8572516,4.15570555 45.6302516,4.00170555 44.4112516,4.00170555 M67.1822516,150.245706 C65.6542516,150.245706 64.1022516,150.055706 62.5562516,149.658706 L13.9712516,137.175706 C4.03925161,134.623706 -1.96474839,124.466706 0.587251612,114.533706 L26.4232516,13.9777056 C27.6592516,9.16670555 30.6952516,5.12470555 34.9722516,2.59570555 C39.2482516,0.0677055517 44.2532516,-0.643294448 49.0642516,0.592705552 L97.6492516,13.0757056 C107.581252,15.6277056 113.586252,25.7847056 111.034252,35.7177056 L85.1972516,136.273706 C83.0422516,144.659706 75.4662516,150.245706 67.1822516,150.245706" id="Fill-43" fill="#000"/><path d="M69.9097516,128.695806 L17.6337516,115.264806 C14.6907516,114.507806 12.9187516,111.509806 13.6747516,108.567806 L37.5147516,15.7798056 C38.2707516,12.8378056 41.2687516,11.0648056 44.2117516,11.8208056 L96.4877516,25.2528056 C99.4307516,26.0088056 101.202752,29.0068056 100.446752,31.9498056 L76.6067516,124.736806 C75.8507516,127.679806 72.8527516,129.451806 69.9097516,128.695806" id="Fill-44" fill="#2945ff"/><path d="M43.5242516,125.352806 C47.9432516,130.159806 40.2932516,136.989806 36.0162516,132.054806 C31.5972516,127.248806 39.2482516,120.418806 43.5242516,125.352806" id="Fill-45" fill="#2945ff"/></g></g><g id="torso" transform="translate(495.000000, 296.000000)"><path d="M333.395,374.716706 C334.415,385.639706 325.821,395.073706 314.85,395.073706 L19.111,395.073706 C9.448,395.073706 1.277,387.919706 -1.13686838e-12,378.340706 L15.307,110.595706 C11.03,78.5147058 35.989,50.0077058 68.354,50.0077058 L261.779,50.0077058 C303.71,50.3197058 336.762,87.8447058 333.304,129.568706 C333.304,129.568706 333.395,374.716706 333.395,374.716706" id="Fill-33" fill="#2945ff"/><path d="M246.3354,50.0080058 C222.1204,-51.9649942 42.0814,20.1250058 158.9964,105.243006 C161.0954,106.948006 164.1424,106.783006 166.0554,104.869006 L179.9214,91.0030058 L193.7414,77.1830058 C200.3604,83.6150058 213.9684,96.8290058 220.6314,103.304006 C230.8254,113.815006 247.1564,62.9830058 246.3354,50.0080058" id="Fill-35" fill="#2945ff"/><path d="M163.3225,107.350806 C161.5575,107.350806 159.4585,106.708806 157.0335,105.430806 C141.9055,97.4588058 116.3325,65.7488058 118.7495,49.7838058 C118.8735,48.9648058 119.6385,48.4028058 120.4575,48.5248058 C121.2765,48.6488058 121.8395,49.4138058 121.7155,50.2328058 C120.7495,56.6128058 125.2875,67.3718058 133.8555,79.0128058 C141.6315,89.5778058 151.5075,99.1278058 158.4315,102.776806 C160.2625,103.740806 163.5545,105.153806 165.0325,103.773806 C168.8015,99.9998058 174.7425,94.0588058 180.4615,88.3418058 L192.6805,76.1228058 C193.2605,75.5418058 194.1985,75.5348058 194.7875,76.1068058 L221.6765,102.227806 C222.6765,103.257806 223.5805,103.465806 224.7335,102.956806 C233.4035,99.1198058 245.5675,61.6248058 244.8385,50.1028058 C244.7865,49.2758058 245.4135,48.5638058 246.2405,48.5108058 C247.0685,48.4608058 247.7805,49.0868058 247.8325,49.9128058 C248.5725,61.6048058 236.3715,101.086806 225.9475,105.699806 C223.6545,106.715806 221.3835,106.234806 219.5545,104.347806 L193.7575,79.2888058 L182.5825,90.4628058 C176.8645,96.1798058 170.9235,102.119806 167.1175,105.930806 C166.1025,106.878806 164.8355,107.350806 163.3225,107.350806" id="Fill-38" fill="#000"/></g><g id="right" transform="translate(483.000000, 345.000000)"><path d="M482.098041,257.41176 C427.876041,146.33476 468.472041,154.17476 358.191041,194.51576 C298.560041,214.10876 206.148041,247.02076 147.739041,218.86876 C122.654041,202.57176 123.723041,168.55676 125.427041,140.48576 L30.974041,132.03576 C25.697041,131.52976 20.927041,136.36576 20.565041,142.96076 C16.883041,196.71076 30.888041,258.66976 75.271041,295.02776 C178.748041,377.91076 350.845041,310.33076 459.144041,267.23176 C453.386041,269.64276 441.758041,274.40176 435.963041,276.72076 C445.789041,302.32776 493.480041,282.41176 482.098041,257.41176" id="Fill-46" fill="#FFF"/><path d="M25.935241,135.68506 C23.955241,137.38706 22.726241,140.07906 22.562241,143.07006 C20.601241,171.69106 23.795241,199.98006 31.797241,224.90506 C41.025241,253.64806 56.078241,276.72006 76.538241,293.48006 C179.848241,376.23006 354.220241,306.83506 458.405241,265.37306 C459.424241,264.96806 460.581241,265.45906 460.996241,266.47506 C461.411241,267.49106 460.929241,268.65206 459.917241,269.07606 C454.782241,271.22706 444.797241,275.31806 438.629241,277.80406 C441.720241,283.86906 447.141241,285.86106 451.323241,286.43806 C460.911241,287.76006 472.496241,282.91006 478.269241,275.16006 C481.016241,271.47306 483.594241,265.54906 480.288241,258.26406 C467.799241,232.67706 460.341241,213.41806 454.894241,199.35306 C452.583689,193.387509 450.632477,188.349484 448.822858,184.205431 C445.404631,176.377645 445.61824,170.17451 441.742871,168.5 C435.339871,165.735 423.212256,171.492133 400.167241,180.31406 C389.085062,184.55646 375.953241,190.14806 358.878241,196.39406 C355.985241,197.34506 353.080241,198.30606 350.109241,199.28806 C320.491241,209.07806 283.631241,221.26106 247.457241,227.54506 C204.759241,234.96206 171.857241,232.71306 146.870241,220.67006 C146.794241,220.63406 146.720241,220.59206 146.649241,220.54606 C120.320241,203.44106 121.819241,167.22006 123.313241,142.30406 L30.796241,134.02806 C30.609241,134.01006 30.422241,134.00106 30.235241,134.00106 C28.715241,134.00106 27.210241,134.58806 25.935241,135.68506 Z M74.021241,296.58906 C52.938241,279.31806 37.456241,255.61606 27.989241,226.12806 C19.834241,200.72406 16.576241,171.91906 18.570241,142.82406 C18.791241,138.77906 20.526241,135.06106 23.327241,132.65206 C25.593241,130.70406 28.377241,129.77806 31.165241,130.04506 L125.605241,138.49306 C126.683241,138.59006 127.488241,139.52606 127.423241,140.60606 C125.574241,171.07206 125.698241,202.07006 148.722241,217.12206 C203.636241,243.49406 291.016241,214.60806 348.853241,195.49006 C351.827241,194.50706 354.734241,193.54606 357.567241,192.61506 C374.513241,186.41506 387.903241,180.97706 398.662241,176.60806 C421.732241,167.23906 435.387871,161.398 443.328871,164.828 C448.458771,167.043902 448.665667,173.766099 452.615932,182.886289 C454.41484,187.039525 456.341646,192.014615 458.624241,197.90806 C464.047241,211.91106 471.474241,231.08806 483.895241,256.53406 C483.903241,256.55006 483.911241,256.56706 483.918241,256.58306 C487.141241,263.66306 486.274241,271.10906 481.477241,277.55006 C474.791241,286.52506 461.881241,291.92806 450.777241,290.40006 C443.404241,289.38406 437.783241,285.36906 434.775241,279.02706 C367.954241,305.19606 280.846241,336.19406 201.239241,336.198108 C154.331241,336.20106 110.042241,325.44106 74.021241,296.58906 Z" id="Fill-47" fill="#000"/><path d="M441.458256,187.305011 C454.734256,181.554011 467.956256,175.613011 481.138256,169.550011 C488.133256,166.287011 491.545256,158.858011 488.763256,152.964011 L488.762256,152.964011 C485.979256,147.068011 478.134256,144.903011 471.237256,148.119011 C455.282256,155.482011 439.271256,162.605011 423.212256,169.430011" id="Fill-48" fill="#FFF"/><path d="M441.459156,189.305411 C440.686156,189.305411 439.950156,188.854411 439.623156,188.099411 C439.184156,187.086411 439.650156,185.908411 440.663156,185.469411 C453.091156,180.086411 466.057156,174.284411 480.302156,167.732411 C483.550156,166.218411 486.047156,163.604411 487.145156,160.565411 C487.982156,158.248411 487.914156,155.852411 486.954156,153.817411 C484.645156,148.927411 477.974156,147.184411 472.083156,149.931411 C455.684156,157.499411 439.507156,164.677411 423.995156,171.270411 C422.978156,171.703411 421.804156,171.229411 421.372156,170.212411 C420.940156,169.195411 421.414156,168.021411 422.430156,167.589411 C437.905156,161.012411 454.044156,153.850411 470.399156,146.303411 C478.273156,142.630411 487.325156,145.234411 490.571156,152.110411 C491.989156,155.114411 492.108156,158.599411 490.907156,161.924411 C489.450156,165.956411 486.198156,169.396411 481.983156,171.362411 C467.701156,177.930411 454.709156,183.744411 442.253156,189.140411 C441.994156,189.252411 441.724156,189.305411 441.459156,189.305411" id="Fill-49" fill="#000"/><path d="M141.031341,151.23266 C141.031341,151.23266 141.802038,129.816301 144.448454,91.3065361 C147.09487,52.7967716 139.359341,21.0636596 105.782341,5.94965961 C78.403341,-6.64434039 46.130341,4.48765961 28.307341,28.2856596 C5.94134103,61.8196596 4.33734103,103.56766 0.212341026,145.06166 L141.031341,151.23266 Z" id="Fill-50" fill="#000"/></g></g></g><g id="Hairstyle" transform="translate(569.000000, 452.000000) scale(1 1)"><g id="Hairstyle/Afro" stroke="none" stroke-width="1" fill="none" fill-rule="evenodd"><path d="M164.4307,66.7155 C164.4307,122.3395 119.3387,167.4305 63.7157,167.4305 C8.0917,167.4305 -37.0003,122.3395 -37.0003,66.7155 C-37.0003,11.0915 8.0917,-33.9995 63.7157,-33.9995 C119.3387,-33.9995 164.4307,11.0915 164.4307,66.7155" id="Hair" fill="#000"/><g id="head" transform="translate(19.003300, 62.834900)"><path d="M112.9218,43.543 C112.9218,51.956 106.1018,58.776 97.6888,58.776 C89.2758,58.776 82.4558,51.956 82.4558,43.543 C82.4558,35.13 89.2758,28.31 97.6888,28.31 C106.1018,28.31 112.9218,35.13 112.9218,43.543" id="Fill-4" fill="#FFF"/><path d="M97.689,30.3101 C90.392,30.3101 84.456,36.2461 84.456,43.5431 C84.456,50.8401 90.392,56.7761 97.689,56.7761 C104.986,56.7761 110.922,50.8401 110.922,43.5431 C110.922,36.2461 104.986,30.3101 97.689,30.3101 M97.689,60.7761 C88.187,60.7761 80.456,53.0451 80.456,43.5431 C80.456,34.0411 88.187,26.3101 97.689,26.3101 C107.191,26.3101 114.922,34.0411 114.922,43.5431 C114.922,53.0451 107.191,60.7761 97.689,60.7761" id="Fill-6" fill="#000"/><path d="M46.5859,143.0381 L46.5859,143.0381 C27.6289,143.0381 10.1519,128.5001 10.1519,111.1431 L26.2619,51.4801 C26.2619,34.1231 21.6289,20.0521 40.5859,20.0521 L60.5859,20.0521 C79.5429,20.0521 74.9099,34.1231 74.9099,51.4801 L74.9099,111.6101 C74.9099,128.9671 65.5429,143.0381 46.5859,143.0381" id="Fill-8" fill="#FFF"/><path d="M12.153,111.4031 C12.326,127.2201 28.342,141.0381 46.586,141.0381 L46.586,141.0381 C65.995,141.0381 72.91,125.8371 72.91,111.6101 L72.91,51.4801 C72.91,48.4321 73.048,45.5361 73.182,42.7351 C73.549,35.0281 73.867,28.3731 70.687,25.0381 C68.771,23.0291 65.467,22.0521 60.586,22.0521 L40.586,22.0521 C35.705,22.0521 32.401,23.0291 30.485,25.0381 C27.305,28.3731 27.622,35.0281 27.99,42.7351 C28.124,45.5361 28.262,48.4321 28.262,51.4801 L28.262,51.7461 L12.153,111.4031 Z M46.586,145.0381 C26.112,145.0381 8.152,129.1991 8.152,111.1431 L8.152,110.8781 L24.261,51.2161 C24.254,48.3581 24.122,45.5971 23.994,42.9251 C23.583,34.3011 23.228,26.8531 27.59,22.2781 C30.301,19.4341 34.552,18.0521 40.586,18.0521 L60.586,18.0521 C66.62,18.0521 70.871,19.4341 73.582,22.2781 C77.944,26.8531 77.589,34.3011 77.177,42.9251 C77.046,45.6801 76.91,48.5281 76.91,51.4801 L76.91,111.6101 C76.91,131.9171 65.007,145.0381 46.586,145.0381 L46.586,145.0381 Z" id="Fill-10" fill="#000"/><path d="M58.1852,90.97 C40.7182,90.97 24.9552,80.61 18.0282,64.578 L17.3782,63.073 C12.7472,52.352 12.5662,40.47 16.8722,29.614 C21.1782,18.758 29.4532,10.228 40.1742,5.596 C45.6972,3.21 51.5252,2 57.4942,2 C74.9612,2 90.7242,12.36 97.6502,28.392 L98.3012,29.897 C107.8622,52.028 97.6362,77.812 75.5052,87.374 C69.9812,89.76 64.1542,90.97 58.1852,90.97" id="Fill-12" fill="#FFF"/><path d="M57.4953,0 L57.4943,0 C51.2503,0 45.1563,1.266 39.3803,3.761 C28.1693,8.604 19.5163,17.524 15.0133,28.876 C10.5113,40.229 10.6983,52.655 15.5423,63.866 L16.1933,65.372 C23.4363,82.137 39.9193,92.97 58.1853,92.97 C64.4283,92.97 70.5233,91.705 76.2983,89.209 C87.5093,84.366 96.1633,75.446 100.6663,64.094 C105.1683,52.741 104.9803,40.315 100.1363,29.104 L99.4863,27.599 C92.2433,10.833 75.7603,0 57.4953,0 M57.4943,4 C73.6373,4 89.0053,13.424 95.8143,29.186 L96.4643,30.69 C105.6033,51.843 95.8643,76.399 74.7123,85.538 C69.3203,87.867 63.7073,88.97 58.1853,88.97 C42.0423,88.97 26.6743,79.546 19.8643,63.785 L19.2143,62.28 C10.0753,41.127 19.8143,16.571 40.9673,7.433 C46.3583,5.103 51.9723,4 57.4943,4" id="Fill-14" fill="#000"/><path d="M17.233,58.7759 C8.82,58.7759 2,51.9559 2,43.5429 C2,35.1299 8.82,28.3099 17.233,28.3099 C18.285,28.3099 19.311,28.4169 20.303,28.6199" id="Fill-16" fill="#FFF"/><path d="M17.233,60.7759 C7.731,60.7759 1.24344979e-14,53.0449 1.24344979e-14,43.5429 C1.24344979e-14,34.0409 7.731,26.3099 17.233,26.3099 C18.4,26.3099 19.568,26.4279 20.704,26.6599 C21.786,26.8819 22.484,27.9389 22.262,29.0209 C22.041,30.1019 20.984,30.7999 19.902,30.5789 C19.03,30.4009 18.132,30.3099 17.233,30.3099 C9.936,30.3099 4,36.2459 4,43.5429 C4,50.8399 9.936,56.7759 17.233,56.7759 C18.338,56.7759 19.233,57.6719 19.233,58.7759 C19.233,59.8799 18.338,60.7759 17.233,60.7759" id="Fill-18" fill="#000"/></g><path id="Path-2" stroke="#22252B"/><circle id="Oval" fill="#000" cx="46" cy="81" r="14"/><circle id="Oval" fill="#000" cx="69" cy="69" r="14"/><circle id="Oval" fill="#000" cx="96" cy="69" r="14"/><circle id="Oval" fill="#000" cx="119" cy="80" r="14"/><path d="M83.1469751,123.991627 L90.7079751,123.991627 C92.7929751,123.991627 94.3369751,120.960627 93.8709751,117.781627 L90.6869751,96.0426271 C89.9479751,90.9976271 85.4229751,90.7156271 84.4289751,95.6516271 L80.0519751,117.390627 C79.3939751,120.661627 80.9549751,123.991627 83.1469751,123.991627" id="Fill-9" fill="#2945ff"/></g></g><g id="Face" transform="translate(589.000000, 542.000000) scale(1 1)" fill="#000"><g id="Face/Beard" stroke="none" stroke-width="1" fill="none" fill-rule="evenodd"><path d="M98.0639,-1 C101.128923,-1 103.626299,1.42609627 103.740798,4.46305966 L103.7449,4.681 L103.7449,29.803 C103.7449,30.2428824 103.696561,30.6714568 103.604903,31.0837018 L103.501724,31.8656728 C102.207592,41.1969033 94.8050997,79.0512 59.872,79.0512 C23.2143681,79.0512 16.8733039,38.9149288 16.0935395,32.4954461 C16.0317706,32.2189216 15.9999,31.9301761 15.9999,31.634 L15.9999,4.681 C15.9999,1.543 18.5429,-1 21.6809,-1 C24.8179,-1 27.3619,1.543 27.3619,4.681 L27.362,27.2232 C27.362,32.3865207 30.9110137,39.640296 36.4785581,46.1029364 C35.6907345,40.018504 35.7972726,33.4381495 38.7064,29.3812 C40.6074,26.7292 43.4884,25.3282 47.0364,25.3282 C53.2004238,25.3282 56.8957464,26.7786881 59.7844107,28.1509402 L61.8562358,29.1554478 C64.8932287,30.5960665 67.0954315,31.1528535 73.157035,28.3730139 L73.5254,28.2022 C80.4794,24.9442 84.7004,24.4522 87.6404,26.5602 C91.442973,29.2855193 91.0455739,34.8129108 90.2059788,42.4468043 C92.321918,37.6276908 92.5459358,33.3852314 92.4874003,31.2559078 C92.435873,30.9967976 92.4028553,30.7309113 92.3895668,30.4597981 L92.3829,30.187 L92.3829,4.681 C92.3829,1.543 94.9269,-1 98.0639,-1 Z M76.4055298,33.4799576 L76.0714,33.6352 C67.1704,37.8072 63.2464,36.5232 58.2754,34.0872 L57.785228,33.8477131 C55.1599709,32.5709958 52.3126353,31.3282 47.0364,31.3282 C44.9604,31.3282 44.1004,32.1552 43.5824,32.8762 C40.9359359,36.5647786 42.1114907,45.8405908 43.9672791,53.245186 C46.7977401,55.4428008 49.8635663,57.3177744 53.0605136,58.6734537 L59.7193,52.0144 C61.7543,49.9794 65.0553,49.9794 67.0903,52.0144 L73.725,58.6492 C77.6605414,56.6820735 80.7794214,54.4617901 83.248942,52.1481933 C83.4079506,49.5592576 83.658143,47.0838007 83.909792,44.7840734 L84.3381083,40.8815935 C84.737249,37.0489182 85.0938095,32.3700325 84.215424,31.4958612 L84.1320048,31.4284645 C83.9782236,31.3462766 82.4488252,30.6967033 76.4055298,33.4799576 L76.4055298,33.4799576 Z" id="Shape" fill="#000"/></g></g><g id="Expression" transform="translate(617.000000, 533.000000) scale(1 1)" fill="#000"><g id="Expression/Happy" stroke="none" stroke-width="1" fill="none" fill-rule="evenodd"><path d="M37.01775,54.38275 C31.79075,54.38275 26.56475,52.39375 22.58575,48.41375 C21.80475,47.63275 21.80475,46.36675 22.58575,45.58575 C23.36675,44.80475 24.63275,44.80475 25.41375,45.58575 C31.81175,51.98375 42.22375,51.98375 48.62175,45.58575 C49.40275,44.80475 50.66875,44.80475 51.44975,45.58575 C52.23175,46.36675 52.23175,47.63275 51.44975,48.41375 C47.47175,52.39275 42.24375,54.38275 37.01775,54.38275" id="Fill-1" fill="#000"/><path d="M25.1309185,19.3419183 C22.5579185,19.5899183 20.2699185,17.7049183 20.0219185,15.1319183 C19.7739185,12.5579183 21.6589185,10.2709183 24.2319185,10.0219183 C26.8059185,9.7739183 29.0929185,11.6589183 29.3409185,14.2329183 C29.5899185,16.8059183 27.7049185,19.0939183 25.1309185,19.3419183" id="Fill-3" fill="#000"/><path d="M50.5506185,19.3419183 C47.9766185,19.5899183 45.6896185,17.7049183 45.4416185,15.1319183 C45.1926185,12.5579183 47.0786185,10.2709183 49.6516185,10.0219183 C52.2256185,9.7739183 54.5126185,11.6589183 54.7606185,14.2329183 C55.0096185,16.8059183 53.1236185,19.0939183 50.5506185,19.3419183" id="Fill-6" fill="#000"/></g></g><g id="Glasses" transform="translate(598.000000, 520.000000) scale(1 1)"><g id="Glasses/Round Glasses" stroke="none" stroke-width="1" fill="none" fill-rule="evenodd"><path d="M77.2002,10 C86.5532,10 94.1622,17.609 94.1622,26.962 C94.1622,36.316 86.5532,43.925 77.2002,43.925 C67.8472,43.925 60.2382,36.316 60.2382,26.962 C60.2382,26.3960541 60.2660596,25.8364938 60.3204795,25.2846183 C59.1178333,24.4201628 57.979038,24.7444155 57.2242403,25.1805302 C57.2871245,25.7661085 57.3186,26.3604471 57.3186,26.962 C57.3186,36.316 49.7096,43.925 40.3566,43.925 C31.018336,43.925 23.4185808,36.3399576 23.3946566,27.0061997 L12.0002,27.0063 C10.8952,27.0063 10.0002,26.1113 10.0002,25.0063 C10.0002,23.9013 10.8952,23.0063 12.0002,23.0063 L23.8602166,23.0064541 C25.6468157,15.5549759 32.3651014,10 40.3566,10 C47.6931207,10 53.9565791,14.6817262 56.3163288,21.2145319 C57.7786096,20.66055 59.5140839,20.5111082 61.2355928,21.2273072 C63.5912982,14.6883983 69.8584534,10 77.2002,10 Z M40.3566,14 C33.2096,14 27.3946,19.815 27.3946,26.962 C27.3946,34.11 33.2096,39.925 40.3566,39.925 C47.5046,39.925 53.3186,34.11 53.3186,26.962 C53.3186,19.815 47.5046,14 40.3566,14 Z M77.2002,14 C70.0532,14 64.2382,19.815 64.2382,26.962 C64.2382,34.11 70.0532,39.925 77.2002,39.925 C84.3472,39.925 90.1622,34.11 90.1622,26.962 C90.1622,19.815 84.3472,14 77.2002,14 Z" id="Shape" fill="#2945ff"/></g></g></g></svg>