<svg viewBox="75 37.5 850.0000000000002 900.0000000000002" fill="none" xmlns="http://www.w3.org/2000/svg" xmlns:xlink="http://www.w3.org/1999/xlink" overflow="visible" width="850.0000000000002px" height="900.0000000000002px"><g id="Master/Stickers/Graph"><g id="Whiteboard Copy"><path id="Fill 2" fill-rule="evenodd" clip-rule="evenodd" d="M819.364 52H177.064C144.996 52 119 77.996 119 110.063V454.048V523.19V925.237H463.642H532.786H877.428V523.19V454.048V110.064C877.428 77.996 851.432 52 819.364 52" fill="white"/><path id="Fill 2 Copy" fill-rule="evenodd" clip-rule="evenodd" d="M880.6 105.579C880.074 73.1366 853.611 46.9998 821.044 46.9998H178.744L177.759 47.0077C145.317 47.5337 119.18 73.9961 119.18 106.563V923.237H880.608V106.564L880.6 105.579ZM178.744 49.9998H821.044L821.979 50.0073C852.787 50.5068 877.608 75.6366 877.608 106.564L877.607 920.236H122.179L122.18 106.563L122.187 105.627C122.687 74.8201 147.817 49.9998 178.744 49.9998Z" fill="black"/><path id="Fill 6" fill-rule="evenodd" clip-rule="evenodd" d="M855.918 897.268H143.87C108.319 897.268 79.5 898.214 79.5 899.38V911.895V914.41V926.924C79.5 928.09 108.319 929.037 143.87 929.037H461.568H538.22H855.918C891.468 929.037 920.288 928.09 920.288 926.924V914.41V911.895V899.38C920.288 898.214 891.468 897.268 855.918 897.268" fill="white"/><path id="Fill 6 Copy" fill-rule="evenodd" clip-rule="evenodd" d="M900.711 896.362C889.039 895.991 873.558 895.777 857.022 895.768L141.665 895.768C125.177 895.787 109.806 896.009 98.3042 896.387L93.5555 896.549C80.5126 897.019 78 897.411 78 899.379V926.923L78.0038 927.052C78.1259 929.057 81.2474 929.346 96.7939 929.866L101.461 930.013C112.548 930.332 126.644 930.518 141.665 930.535H858.123C874.609 930.517 889.981 930.294 901.483 929.916L906.232 929.754C919.274 929.284 921.788 928.892 921.788 926.923V899.379L921.784 899.25C921.672 897.414 919.046 897.017 906.663 896.564L900.711 896.362ZM142.768 898.768L855.918 898.767L861.395 898.775C875.881 898.815 889.339 899.014 899.833 899.336L902.007 899.406C907.152 899.579 911.354 899.781 914.404 900L915.477 900.082C916.667 900.178 917.627 900.277 918.343 900.376L918.788 900.442V925.86L918.343 925.927C917.556 926.036 916.472 926.144 915.113 926.25L914.032 926.329C911.142 926.53 907.284 926.714 902.62 926.876L899.833 926.967C888.551 927.314 873.844 927.518 858.119 927.535H141.669C126.309 927.518 111.922 927.323 100.747 926.991L97.7807 926.897C92.2239 926.71 87.7677 926.49 84.6745 926.25L83.9609 926.192C82.9318 926.105 82.0891 926.016 81.4451 925.927L81 925.86V900.442L81.2377 900.405C81.8375 900.316 82.6372 900.227 83.6247 900.14L84.6745 900.053C87.8821 899.804 92.5557 899.577 98.4026 899.385L101.55 899.289C111.797 898.994 124.631 898.813 138.393 898.775L142.768 898.768Z" fill="black"/><g id="grid"><path id="Fill 14" fill-rule="evenodd" clip-rule="evenodd" d="M255.984 489.267H333.954V421.874H255.984V489.267ZM251.984 493.267H337.954V417.874H251.984V493.267Z" fill="black"/><path id="Fill 16" fill-rule="evenodd" clip-rule="evenodd" d="M337.953 489.267H415.923V421.874H337.953V489.267ZM333.953 493.267H419.923V417.874H333.953V493.267Z" fill="black"/><path id="Fill 17" fill-rule="evenodd" clip-rule="evenodd" d="M419.922 489.267H497.892V421.874H419.922V489.267ZM415.922 493.267H501.892V417.874H415.922V493.267Z" fill="black"/><path id="Fill 18" fill-rule="evenodd" clip-rule="evenodd" d="M501.892 489.267H579.862V421.874H501.892V489.267ZM497.891 493.267H583.861V417.874H497.891V493.267Z" fill="black"/><path id="Fill 19" fill-rule="evenodd" clip-rule="evenodd" d="M583.867 489.267H661.837V421.874H583.867V489.267ZM579.867 493.267H665.837V417.874H579.867V493.267Z" fill="black"/><path id="Fill 20" fill-rule="evenodd" clip-rule="evenodd" d="M665.836 489.267H743.806V421.874H665.836V489.267ZM661.836 493.267H747.806V417.874H661.836V493.267Z" fill="black"/><path id="Fill 21" fill-rule="evenodd" clip-rule="evenodd" d="M255.984 417.874H333.954V350.48H255.984V417.874ZM251.984 421.874H337.954V346.48H251.984V421.874Z" fill="black"/><path id="Fill 22" fill-rule="evenodd" clip-rule="evenodd" d="M337.953 417.874H415.923V350.48H337.953V417.874ZM333.953 421.874H419.923V346.48H333.953V421.874Z" fill="black"/><path id="Fill 23" fill-rule="evenodd" clip-rule="evenodd" d="M419.922 417.874H497.892V350.48H419.922V417.874ZM415.922 421.874H501.892V346.48H415.922V421.874Z" fill="black"/><path id="Fill 24" fill-rule="evenodd" clip-rule="evenodd" d="M501.892 417.874H579.862V350.48H501.892V417.874ZM497.891 421.874H583.861V346.48H497.891V421.874Z" fill="black"/><path id="Fill 25" fill-rule="evenodd" clip-rule="evenodd" d="M583.867 417.874H661.837V350.48H583.867V417.874ZM579.867 421.874H665.837V346.48H579.867V421.874Z" fill="black"/><path id="Fill 26" fill-rule="evenodd" clip-rule="evenodd" d="M665.836 417.874H743.806V350.48H665.836V417.874ZM661.836 421.874H747.806V346.48H661.836V421.874Z" fill="black"/><path id="Fill 27" fill-rule="evenodd" clip-rule="evenodd" d="M255.984 346.48H333.954V279.087H255.984V346.48ZM251.984 350.48H337.954V275.087H251.984V350.48Z" fill="black"/><path id="Fill 28" fill-rule="evenodd" clip-rule="evenodd" d="M337.953 346.48H415.923V279.087H337.953V346.48ZM333.953 350.48H419.923V275.087H333.953V350.48Z" fill="black"/><path id="Fill 29" fill-rule="evenodd" clip-rule="evenodd" d="M419.922 346.48H497.892V279.087H419.922V346.48ZM415.922 350.48H501.892V275.087H415.922V350.48Z" fill="black"/><path id="Fill 30" fill-rule="evenodd" clip-rule="evenodd" d="M501.892 346.48H579.862V279.087H501.892V346.48ZM497.891 350.48H583.861V275.087H497.891V350.48Z" fill="black"/><path id="Fill 31" fill-rule="evenodd" clip-rule="evenodd" d="M583.867 346.48H661.837V279.087H583.867V346.48ZM579.867 350.48H665.837V275.087H579.867V350.48Z" fill="black"/><path id="Fill 32" fill-rule="evenodd" clip-rule="evenodd" d="M665.836 346.48H743.806V279.087H665.836V346.48ZM661.836 350.48H747.806V275.087H661.836V350.48Z" fill="black"/><path id="Fill 33" fill-rule="evenodd" clip-rule="evenodd" d="M255.984 275.088H333.954V207.694H255.984V275.088ZM251.984 279.088H337.954V203.694H251.984V279.088Z" fill="black"/><path id="Fill 34" fill-rule="evenodd" clip-rule="evenodd" d="M337.953 275.088H415.923V207.694H337.953V275.088ZM333.953 279.088H419.923V203.694H333.953V279.088Z" fill="black"/><path id="Fill 35" fill-rule="evenodd" clip-rule="evenodd" d="M419.922 275.088H497.892V207.694H419.922V275.088ZM415.922 279.088H501.892V203.694H415.922V279.088Z" fill="black"/><path id="Fill 36" fill-rule="evenodd" clip-rule="evenodd" d="M501.892 275.088H579.862V207.694H501.892V275.088ZM497.891 279.088H583.861V203.694H497.891V279.088Z" fill="black"/><path id="Fill 37" fill-rule="evenodd" clip-rule="evenodd" d="M583.867 275.088H661.837V207.694H583.867V275.088ZM579.867 279.088H665.837V203.694H579.867V279.088Z" fill="black"/><path id="Fill 38" fill-rule="evenodd" clip-rule="evenodd" d="M665.836 275.088H743.806V207.694H665.836V275.088ZM661.836 279.088H747.806V203.694H661.836V279.088Z" fill="black"/><path id="Fill 39" fill-rule="evenodd" clip-rule="evenodd" d="M255.984 203.694H333.954V136.301H255.984V203.694ZM251.984 207.694H337.954V132.301H251.984V207.694Z" fill="black"/><path id="Fill 40" fill-rule="evenodd" clip-rule="evenodd" d="M337.953 203.694H415.923V136.301H337.953V203.694ZM333.953 207.694H419.923V132.301H333.953V207.694Z" fill="black"/><path id="Fill 41" fill-rule="evenodd" clip-rule="evenodd" d="M419.922 203.694H497.892V136.301H419.922V203.694ZM415.922 207.694H501.892V132.301H415.922V207.694Z" fill="black"/><path id="Fill 42" fill-rule="evenodd" clip-rule="evenodd" d="M501.892 203.694H579.862V136.301H501.892V203.694ZM497.891 207.694H583.861V132.301H497.891V207.694Z" fill="black"/><path id="Fill 43" fill-rule="evenodd" clip-rule="evenodd" d="M583.867 203.694H661.837V136.301H583.867V203.694ZM579.867 207.694H665.837V132.301H579.867V207.694Z" fill="black"/><path id="Fill 44" fill-rule="evenodd" clip-rule="evenodd" d="M665.836 203.694H743.806V136.301H665.836V203.694ZM661.836 207.694H747.806V132.301H661.836V207.694Z" fill="black"/></g><path id="Fill 45" fill-rule="evenodd" clip-rule="evenodd" d="M253.986 488.618C253.009 488.618 252.038 488.211 251.345 487.416C250.076 485.959 250.229 483.748 251.686 482.478L449.608 310.144C450.926 308.998 452.887 308.997 454.204 310.143L533.91 379.487L620.488 300.337C621.221 299.664 622.206 299.336 623.198 299.437C624.188 299.536 625.09 300.053 625.676 300.856L636.686 315.936L691.885 225.472C692.892 223.82 695.047 223.301 696.695 224.307C698.344 225.314 698.866 227.468 697.859 229.118L639.934 324.052C639.326 325.049 638.259 325.677 637.091 325.725C635.94 325.774 634.81 325.236 634.12 324.292L622.327 308.139L536.329 386.76C535.017 387.96 533.012 387.983 531.672 386.817L451.908 317.424L256.283 487.758C255.621 488.335 254.801 488.618 253.986 488.618" fill="black"/><path id="Fill 46" fill-rule="evenodd" clip-rule="evenodd" d="M434.496 622.743C450.645 640.962 460.451 664.932 460.451 691.193C460.451 748.207 414.232 794.427 357.218 794.427C300.204 794.427 253.984 748.207 253.984 691.193C253.984 634.179 300.204 587.96 357.218 587.96V691.193L434.496 622.743Z" fill="black"/><path id="Fill 47" fill-rule="evenodd" clip-rule="evenodd" d="M745.8 624.989H499.891C498.786 624.989 497.891 624.093 497.891 622.989C497.891 621.885 498.786 620.989 499.891 620.989H745.8C746.904 620.989 747.8 621.885 747.8 622.989C747.8 624.093 746.904 624.989 745.8 624.989" fill="black"/><path id="Fill 48" fill-rule="evenodd" clip-rule="evenodd" d="M745.8 670.459H499.891C498.786 670.459 497.891 669.563 497.891 668.459C497.891 667.355 498.786 666.459 499.891 666.459H745.8C746.904 666.459 747.8 667.355 747.8 668.459C747.8 669.563 746.904 670.459 745.8 670.459" fill="black"/><path id="Fill 49" fill-rule="evenodd" clip-rule="evenodd" d="M745.8 715.928H499.891C498.786 715.928 497.891 715.032 497.891 713.928C497.891 712.824 498.786 711.928 499.891 711.928H745.8C746.904 711.928 747.8 712.824 747.8 713.928C747.8 715.032 746.904 715.928 745.8 715.928" fill="black"/><path id="Fill 50" fill-rule="evenodd" clip-rule="evenodd" d="M745.8 761.397H499.891C498.786 761.397 497.891 760.501 497.891 759.397C497.891 758.293 498.786 757.397 499.891 757.397H745.8C746.904 757.397 747.8 758.293 747.8 759.397C747.8 760.501 746.904 761.397 745.8 761.397" fill="black"/></g></g></svg>